<svg width="138" height="101" viewBox="0 0 138 101" fill="none" xmlns="http://www.w3.org/2000/svg">
<rect width="84" height="25" rx="12.5" fill="#F3D882"/>
<path d="M20.024 11.448V12.368H17.2V13.856H20.16V14.84H16V9.128H20.16V10.08H17.2V11.448H20.024Z" fill="#452E66"/>
<path d="M21.5603 12.08H24.0323V13.048H21.5603V12.08Z" fill="#452E66"/>
<path d="M31.5614 14.84H30.4334V10.616H30.4014L29.0094 14.84H28.1134L26.7214 10.616H26.6894V14.84H25.5934V9.128H27.3454L28.5614 13.064H28.5934L29.8094 9.128H31.5614V14.84Z" fill="#452E66"/>
<path d="M35.5949 9C36.1495 9 36.6375 9.12 37.0589 9.36C37.4855 9.59467 37.8162 9.93867 38.0509 10.392C38.2855 10.84 38.4029 11.3707 38.4029 11.984C38.4029 12.5973 38.2855 13.1307 38.0509 13.584C37.8162 14.032 37.4855 14.376 37.0589 14.616C36.6375 14.8507 36.1495 14.968 35.5949 14.968C35.0455 14.968 34.5575 14.8507 34.1309 14.616C33.7095 14.376 33.3789 14.032 33.1389 13.584C32.9042 13.1307 32.7869 12.5973 32.7869 11.984C32.7869 11.3707 32.9042 10.84 33.1389 10.392C33.3789 9.93867 33.7095 9.59467 34.1309 9.36C34.5575 9.12 35.0455 9 35.5949 9ZM35.5949 14C36.0749 14 36.4589 13.8293 36.7469 13.488C37.0349 13.1413 37.1789 12.64 37.1789 11.984C37.1789 11.328 37.0349 10.8293 36.7469 10.488C36.4589 10.1413 36.0749 9.968 35.5949 9.968C35.1149 9.968 34.7309 10.1413 34.4429 10.488C34.1549 10.8293 34.0109 11.328 34.0109 11.984C34.0109 12.64 34.1549 13.1413 34.4429 13.488C34.7309 13.8293 35.1149 14 35.5949 14Z" fill="#452E66"/>
<path d="M42.3842 9.128C42.9495 9.128 43.3895 9.26933 43.7042 9.552C44.0242 9.82933 44.1842 10.2027 44.1842 10.672C44.1842 10.9333 44.1229 11.16 44.0002 11.352C43.8775 11.5387 43.6989 11.6853 43.4642 11.792V11.824C43.7522 11.936 43.9762 12.104 44.1362 12.328C44.2962 12.552 44.3762 12.8293 44.3762 13.16C44.3762 13.6827 44.2109 14.0933 43.8802 14.392C43.5495 14.6907 43.0882 14.84 42.4962 14.84H39.6322V9.128H42.3842ZM42.1522 11.488C42.4242 11.488 42.6295 11.4267 42.7682 11.304C42.9122 11.176 42.9842 11 42.9842 10.776C42.9842 10.5467 42.9122 10.3707 42.7682 10.248C42.6242 10.12 42.4189 10.056 42.1522 10.056H40.8322V11.488H42.1522ZM42.2562 13.888C42.5495 13.888 42.7709 13.8213 42.9202 13.688C43.0749 13.5493 43.1522 13.3573 43.1522 13.112C43.1522 12.8667 43.0749 12.6773 42.9202 12.544C42.7709 12.4053 42.5495 12.336 42.2562 12.336H40.8322V13.888H42.2562Z" fill="#452E66"/>
<path d="M45.5656 9.128H46.7656V14.84H45.5656V9.128Z" fill="#452E66"/>
<path d="M48.2334 9.128H49.4334V13.832H52.4414V14.84H48.2334V9.128Z" fill="#452E66"/>
<path d="M53.6278 9.128H54.8278V14.84H53.6278V9.128Z" fill="#452E66"/>
<path d="M58.9996 10.136V14.84H57.7996V10.136H55.9516V9.128H60.8476V10.136H58.9996Z" fill="#452E66"/>
<path d="M64.8351 12.656V14.84H63.6351V12.656L61.5791 9.128H62.8911L64.2431 11.624L65.6031 9.128H66.8911L64.8351 12.656Z" fill="#452E66"/>
<path d="M2.91 41.16C3.63667 41.16 4.2 41.3433 4.6 41.71C5 42.0767 5.2 42.5967 5.2 43.27C5.2 43.9433 5 44.4633 4.6 44.83C4.2 45.1967 3.63667 45.38 2.91 45.38H0.7V48.3H0V41.16H2.91ZM2.8 44.78C3.34667 44.78 3.76333 44.6567 4.05 44.41C4.33667 44.1567 4.48 43.7767 4.48 43.27C4.48 42.7633 4.33667 42.3867 4.05 42.14C3.76333 41.8867 3.34667 41.76 2.8 41.76H0.7V44.78H2.8Z" fill="white"/>
<path d="M6.72211 44.06H6.75211C6.88544 43.7067 7.10544 43.4333 7.41211 43.24C7.72544 43.04 8.08544 42.94 8.49211 42.94C8.65211 42.94 8.79211 42.9533 8.91211 42.98V43.61C8.77211 43.59 8.61878 43.58 8.45211 43.58C7.94544 43.58 7.53544 43.7567 7.22211 44.11C6.91544 44.4567 6.76211 44.9667 6.76211 45.64V48.3H6.10211V43.06H6.72211V44.06Z" fill="white"/>
<path d="M11.7196 42.94C12.1996 42.94 12.6229 43.0533 12.9896 43.28C13.3563 43.5 13.6396 43.8167 13.8396 44.23C14.0463 44.6433 14.1496 45.1267 14.1496 45.68C14.1496 46.2333 14.0463 46.7167 13.8396 47.13C13.6396 47.5433 13.3563 47.8633 12.9896 48.09C12.6229 48.31 12.1996 48.42 11.7196 48.42C11.2463 48.42 10.8263 48.31 10.4596 48.09C10.0929 47.8633 9.80628 47.5433 9.59961 47.13C9.39961 46.7167 9.29961 46.2333 9.29961 45.68C9.29961 45.1267 9.39961 44.6433 9.59961 44.23C9.80628 43.8167 10.0929 43.5 10.4596 43.28C10.8263 43.0533 11.2463 42.94 11.7196 42.94ZM11.7196 47.86C12.2396 47.86 12.6596 47.6667 12.9796 47.28C13.3063 46.8867 13.4696 46.3533 13.4696 45.68C13.4696 45.0067 13.3063 44.4733 12.9796 44.08C12.6596 43.6867 12.2396 43.49 11.7196 43.49C11.1996 43.49 10.7796 43.6867 10.4596 44.08C10.1396 44.4733 9.97961 45.0067 9.97961 45.68C9.97961 46.3533 10.1396 46.8867 10.4596 47.28C10.7796 47.6667 11.1996 47.86 11.7196 47.86Z" fill="white"/>
<path d="M14.726 49.68C14.926 49.68 15.0627 49.63 15.136 49.53C15.216 49.4367 15.256 49.26 15.256 49V43.06H15.906V49.1C15.906 49.54 15.8193 49.8433 15.646 50.01C15.4793 50.1767 15.1927 50.26 14.786 50.26C14.6193 50.26 14.4293 50.2533 14.216 50.24V49.66C14.3627 49.6733 14.5327 49.68 14.726 49.68ZM15.936 41.06V41.87H15.226V41.06H15.936Z" fill="white"/>
<path d="M21.528 46.84C21.3746 47.2867 21.1113 47.6633 20.738 47.97C20.3646 48.27 19.858 48.42 19.218 48.42C18.758 48.42 18.3513 48.31 17.998 48.09C17.6446 47.8633 17.368 47.5433 17.168 47.13C16.968 46.71 16.868 46.2233 16.868 45.67C16.868 45.1233 16.968 44.6433 17.168 44.23C17.368 43.8167 17.6446 43.5 17.998 43.28C18.3513 43.0533 18.758 42.94 19.218 42.94C19.6846 42.94 20.098 43.0567 20.458 43.29C20.8246 43.5167 21.1046 43.85 21.298 44.29C21.498 44.7233 21.588 45.24 21.568 45.84H17.548C17.5613 46.44 17.7213 46.9267 18.028 47.3C18.3346 47.6733 18.7313 47.86 19.218 47.86C19.6713 47.86 20.0313 47.7533 20.298 47.54C20.5646 47.32 20.7513 47.0567 20.858 46.75L21.528 46.84ZM19.218 43.49C18.7446 43.49 18.358 43.6633 18.058 44.01C17.758 44.35 17.5913 44.7767 17.558 45.29H20.888C20.8546 44.7767 20.6846 44.35 20.378 44.01C20.078 43.6633 19.6913 43.49 19.218 43.49Z" fill="white"/>
<path d="M24.6777 47.86C25.451 47.86 25.9877 47.44 26.2877 46.6L26.9677 46.7C26.821 47.16 26.561 47.5633 26.1877 47.91C25.821 48.25 25.3177 48.42 24.6777 48.42C24.211 48.42 23.7977 48.31 23.4377 48.09C23.0777 47.8633 22.7977 47.5433 22.5977 47.13C22.3977 46.7167 22.2977 46.2333 22.2977 45.68C22.2977 45.1267 22.3977 44.6433 22.5977 44.23C22.8043 43.8167 23.0877 43.5 23.4477 43.28C23.8143 43.0533 24.231 42.94 24.6977 42.94C25.3043 42.94 25.7743 43.09 26.1077 43.39C26.4477 43.69 26.691 44.0033 26.8377 44.33L26.2077 44.54C26.0677 44.2667 25.8877 44.0233 25.6677 43.81C25.4543 43.5967 25.131 43.49 24.6977 43.49C24.1777 43.49 23.761 43.6867 23.4477 44.08C23.1343 44.4733 22.9777 45.0067 22.9777 45.68C22.9777 46.3533 23.131 46.8867 23.4377 47.28C23.751 47.6667 24.1643 47.86 24.6777 47.86Z" fill="white"/>
<path d="M29.5916 47.74C29.8182 47.74 30.0049 47.7333 30.1516 47.72V48.3C29.9516 48.3133 29.7449 48.32 29.5316 48.32C29.2049 48.32 28.9516 48.2867 28.7716 48.22C28.5916 48.1467 28.4616 48.0267 28.3816 47.86C28.3016 47.6933 28.2616 47.46 28.2616 47.16V43.58H27.3716V43.06H28.2616V41.53H28.9116V43.06H30.1816V43.58H28.9116V47.02C28.9116 47.3 28.9582 47.49 29.0516 47.59C29.1449 47.69 29.3249 47.74 29.5916 47.74Z" fill="white"/>
<path d="M32.0935 43.45V44.37H31.2035V43.45H32.0935ZM32.0935 47.39V48.3H31.2035V47.39H32.0935Z" fill="white"/>
<path d="M49.7014 44.06V45.21H46.1714V47.07H49.8814V48.3H44.6714V41.16H49.8814V42.35H46.1714V44.06H49.7014Z" fill="white"/>
<path d="M50.7008 44.85H53.7908V46.06H50.7008V44.85Z" fill="white"/>
<path d="M62.2 48.3H60.78V43.02H60.74L59 48.3H57.89L56.15 43.02H56.11V48.3H54.73V41.16H56.93L58.45 46.08H58.49L60.01 41.16H62.2V48.3Z" fill="white"/>
<path d="M65.5219 42.88C66.0686 42.88 66.5453 42.9933 66.952 43.22C67.3586 43.4467 67.672 43.77 67.892 44.19C68.112 44.61 68.2219 45.1 68.2219 45.66C68.2219 46.22 68.112 46.71 67.892 47.13C67.672 47.5433 67.3586 47.8633 66.952 48.09C66.5453 48.31 66.0686 48.42 65.5219 48.42C64.9686 48.42 64.4853 48.31 64.072 48.09C63.6653 47.8633 63.352 47.5433 63.132 47.13C62.9186 46.71 62.812 46.22 62.812 45.66C62.812 45.0933 62.9186 44.6033 63.132 44.19C63.352 43.77 63.6653 43.4467 64.072 43.22C64.4853 42.9933 64.9686 42.88 65.5219 42.88ZM65.5219 47.37C65.9153 47.37 66.2253 47.2233 66.452 46.93C66.6786 46.6367 66.7919 46.2133 66.7919 45.66C66.7919 45.1 66.6786 44.6733 66.452 44.38C66.2253 44.08 65.9153 43.93 65.5219 43.93C65.1219 43.93 64.8053 44.08 64.572 44.38C64.3453 44.6733 64.2319 45.1 64.2319 45.66C64.2319 46.2133 64.3453 46.6367 64.572 46.93C64.8053 47.2233 65.1219 47.37 65.5219 47.37Z" fill="white"/>
<path d="M71.8118 42.88C72.2518 42.88 72.6451 42.9933 72.9918 43.22C73.3451 43.4467 73.6218 43.7733 73.8218 44.2C74.0218 44.62 74.1218 45.1067 74.1218 45.66C74.1218 46.2133 74.0218 46.7 73.8218 47.12C73.6218 47.5333 73.3451 47.8533 72.9918 48.08C72.6385 48.3067 72.2385 48.42 71.7918 48.42C71.4251 48.42 71.0985 48.3533 70.8118 48.22C70.5318 48.0867 70.3185 47.8833 70.1718 47.61H70.1318V48.3H68.7918V41.06H70.1918V43.62H70.2318C70.3785 43.3867 70.5885 43.2067 70.8618 43.08C71.1351 42.9467 71.4518 42.88 71.8118 42.88ZM71.4018 47.35C71.8018 47.35 72.1151 47.2067 72.3418 46.92C72.5751 46.6267 72.6918 46.2067 72.6918 45.66C72.6918 45.1067 72.5751 44.6833 72.3418 44.39C72.1151 44.0967 71.8018 43.95 71.4018 43.95C71.0018 43.95 70.6851 44.1 70.4518 44.4C70.2251 44.6933 70.1118 45.1133 70.1118 45.66C70.1118 46.2067 70.2251 46.6267 70.4518 46.92C70.6851 47.2067 71.0018 47.35 71.4018 47.35Z" fill="white"/>
<path d="M76.11 43.01V48.3H74.71V43.01H76.11ZM76.11 41.06V42.26H74.71V41.06H76.11Z" fill="white"/>
<path d="M78.2291 41.06V48.3H76.8291V41.06H78.2291Z" fill="white"/>
<path d="M80.3483 43.01V48.3H78.9483V43.01H80.3483ZM80.3483 41.06V42.26H78.9483V41.06H80.3483Z" fill="white"/>
<path d="M84.0774 47.21V48.3C83.8907 48.3133 83.5841 48.32 83.1574 48.32C82.7774 48.32 82.4774 48.2867 82.2574 48.22C82.0374 48.1467 81.8741 48.02 81.7674 47.84C81.6608 47.6533 81.6074 47.3867 81.6074 47.04V43.95H80.7674V43.01H81.6074V41.53H83.0074V43.01H84.1174V43.95H83.0074V46.69C83.0074 46.91 83.0508 47.0533 83.1374 47.12C83.2308 47.18 83.3941 47.21 83.6274 47.21H84.0774Z" fill="white"/>
<path d="M87.8021 48.3C87.6021 48.8533 87.3921 49.2733 87.1721 49.56C86.9588 49.8467 86.7288 50.0333 86.4821 50.12C86.2421 50.2133 85.9521 50.26 85.6121 50.26C85.2521 50.26 84.9721 50.25 84.7721 50.23V49.07C84.9588 49.0967 85.1654 49.11 85.3921 49.11C85.6321 49.11 85.8121 49.06 85.9321 48.96C86.0588 48.86 86.1754 48.68 86.2821 48.42L86.3421 48.25L84.2221 43.01H85.7421L87.0321 46.63H87.0721L88.2421 43.01H89.7321L87.8021 48.3Z" fill="white"/>
<path d="M97.5954 48.3V47.46C97.0821 48.1267 96.3487 48.46 95.3954 48.46C94.7087 48.46 94.0987 48.3067 93.5654 48C93.0387 47.6933 92.6254 47.26 92.3254 46.7C92.0254 46.1333 91.8754 45.4733 91.8754 44.72C91.8754 43.9667 92.0221 43.31 92.3154 42.75C92.6154 42.19 93.0321 41.76 93.5654 41.46C94.0987 41.1533 94.7087 41 95.3954 41C96.1887 41 96.8687 41.2 97.4354 41.6C98.0087 42 98.4087 42.54 98.6354 43.22L97.1254 43.4C96.9721 43.02 96.7487 42.7267 96.4554 42.52C96.1621 42.3133 95.8087 42.21 95.3954 42.21C94.7954 42.21 94.3121 42.4267 93.9454 42.86C93.5854 43.2933 93.4054 43.9133 93.4054 44.72C93.4054 45.54 93.5854 46.1667 93.9454 46.6C94.3054 47.0333 94.7887 47.25 95.3954 47.25C95.8954 47.25 96.3121 47.1033 96.6454 46.81C96.9854 46.5167 97.1954 46.14 97.2754 45.68H95.5154V44.55H98.6654V48.3H97.5954Z" fill="white"/>
<path d="M100.727 43.82H100.767C100.914 43.5333 101.121 43.3067 101.387 43.14C101.661 42.9667 101.984 42.88 102.357 42.88C102.491 42.88 102.614 42.8967 102.727 42.93V44.23C102.687 44.23 102.607 44.2233 102.487 44.21C102.374 44.1967 102.271 44.19 102.177 44.19C101.251 44.19 100.787 44.67 100.787 45.63V48.3H99.3875V43.01H100.727V43.82Z" fill="white"/>
<path d="M105.707 42.88C106.254 42.88 106.731 42.9933 107.137 43.22C107.544 43.4467 107.857 43.77 108.077 44.19C108.297 44.61 108.407 45.1 108.407 45.66C108.407 46.22 108.297 46.71 108.077 47.13C107.857 47.5433 107.544 47.8633 107.137 48.09C106.731 48.31 106.254 48.42 105.707 48.42C105.154 48.42 104.671 48.31 104.257 48.09C103.851 47.8633 103.537 47.5433 103.317 47.13C103.104 46.71 102.997 46.22 102.997 45.66C102.997 45.0933 103.104 44.6033 103.317 44.19C103.537 43.77 103.851 43.4467 104.257 43.22C104.671 42.9933 105.154 42.88 105.707 42.88ZM105.707 47.37C106.101 47.37 106.411 47.2233 106.637 46.93C106.864 46.6367 106.977 46.2133 106.977 45.66C106.977 45.1 106.864 44.6733 106.637 44.38C106.411 44.08 106.101 43.93 105.707 43.93C105.307 43.93 104.991 44.08 104.757 44.38C104.531 44.6733 104.417 45.1 104.417 45.66C104.417 46.2133 104.531 46.6367 104.757 46.93C104.991 47.2233 105.307 47.37 105.707 47.37Z" fill="white"/>
<path d="M112.507 47.6C112.121 48.1467 111.564 48.42 110.837 48.42C110.297 48.42 109.851 48.26 109.497 47.94C109.151 47.6133 108.977 47.13 108.977 46.49V43.01H110.377V46.13C110.377 46.5433 110.457 46.84 110.617 47.02C110.784 47.2 111.034 47.29 111.367 47.29C111.681 47.29 111.944 47.17 112.157 46.93C112.377 46.6833 112.487 46.3367 112.487 45.89V43.01H113.887V48.3H112.547V47.6H112.507Z" fill="white"/>
<path d="M117.583 48.42C117.217 48.42 116.9 48.3567 116.633 48.23C116.367 48.1033 116.157 47.92 116.003 47.68H115.963V50.14H114.563V43.01H115.893V43.7H115.933C116.093 43.42 116.313 43.2133 116.593 43.08C116.873 42.9467 117.197 42.88 117.563 42.88C118.01 42.88 118.41 42.9933 118.763 43.22C119.117 43.4467 119.393 43.77 119.593 44.19C119.793 44.61 119.893 45.0967 119.893 45.65C119.893 46.2033 119.793 46.69 119.593 47.11C119.393 47.53 119.117 47.8533 118.763 48.08C118.417 48.3067 118.023 48.42 117.583 48.42ZM117.173 43.95C116.773 43.95 116.457 44.0967 116.223 44.39C115.997 44.6833 115.883 45.1033 115.883 45.65C115.883 46.1967 115.997 46.6167 116.223 46.91C116.457 47.2033 116.773 47.35 117.173 47.35C117.573 47.35 117.887 47.2067 118.113 46.92C118.347 46.6267 118.463 46.2033 118.463 45.65C118.463 45.1033 118.347 44.6833 118.113 44.39C117.887 44.0967 117.573 43.95 117.173 43.95Z" fill="white"/>
<path d="M2.91 66.42C3.63667 66.42 4.2 66.6033 4.6 66.97C5 67.3367 5.2 67.8567 5.2 68.53C5.2 69.2033 5 69.7233 4.6 70.09C4.2 70.4567 3.63667 70.64 2.91 70.64H0.7V73.56H0V66.42H2.91ZM2.8 70.04C3.34667 70.04 3.76333 69.9167 4.05 69.67C4.33667 69.4167 4.48 69.0367 4.48 68.53C4.48 68.0233 4.33667 67.6467 4.05 67.4C3.76333 67.1467 3.34667 67.02 2.8 67.02H0.7V70.04H2.8Z" fill="white"/>
<path d="M9.39492 73.56C9.32826 73.4733 9.28492 73.21 9.26492 72.77C9.05826 73.0967 8.77492 73.33 8.41492 73.47C8.05492 73.61 7.68492 73.68 7.30492 73.68C7.00492 73.68 6.73159 73.6167 6.48492 73.49C6.23826 73.3633 6.04159 73.1833 5.89492 72.95C5.75492 72.7167 5.68492 72.45 5.68492 72.15C5.68492 71.61 5.87492 71.2233 6.25492 70.99C6.64159 70.7567 7.18492 70.5933 7.88492 70.5C8.27826 70.4467 8.56826 70.3967 8.75492 70.35C8.94159 70.2967 9.06826 70.2333 9.13492 70.16C9.20826 70.0867 9.24492 69.98 9.24492 69.84C9.24492 69.5 9.13826 69.2333 8.92492 69.04C8.71159 68.8467 8.38492 68.75 7.94492 68.75C7.60492 68.75 7.30492 68.8333 7.04492 69C6.79159 69.16 6.60826 69.4367 6.49492 69.83L5.88492 69.68C6.01159 69.18 6.26159 68.81 6.63492 68.57C7.01492 68.3233 7.46159 68.2 7.97492 68.2C8.62826 68.2 9.11159 68.3467 9.42492 68.64C9.74492 68.9267 9.90492 69.32 9.90492 69.82V72.27C9.90492 72.6167 9.91159 72.8833 9.92492 73.07C9.94492 73.25 9.98492 73.4133 10.0449 73.56H9.39492ZM9.24492 70.65C9.17159 70.7367 9.03159 70.8033 8.82492 70.85C8.61826 70.89 8.28492 70.9467 7.82492 71.02C7.43826 71.0733 7.09826 71.1867 6.80492 71.36C6.51159 71.5333 6.36492 71.7967 6.36492 72.15C6.36492 72.45 6.46159 72.6867 6.65492 72.86C6.84826 73.0333 7.10826 73.12 7.43492 73.12C7.89492 73.12 8.31159 72.9933 8.68492 72.74C9.05826 72.48 9.24492 72.0467 9.24492 71.44V70.65Z" fill="white"/>
<path d="M11.683 69.32H11.713C11.8464 68.9667 12.0664 68.6933 12.373 68.5C12.6864 68.3 13.0464 68.2 13.453 68.2C13.613 68.2 13.753 68.2133 13.873 68.24V68.87C13.733 68.85 13.5797 68.84 13.413 68.84C12.9064 68.84 12.4964 69.0167 12.183 69.37C11.8764 69.7167 11.723 70.2267 11.723 70.9V73.56H11.063V68.32H11.683V69.32Z" fill="white"/>
<path d="M16.5349 73C16.7616 73 16.9483 72.9933 17.0949 72.98V73.56C16.8949 73.5733 16.6883 73.58 16.4749 73.58C16.1483 73.58 15.8949 73.5467 15.7149 73.48C15.5349 73.4067 15.4049 73.2867 15.3249 73.12C15.2449 72.9533 15.2049 72.72 15.2049 72.42V68.84H14.3149V68.32H15.2049V66.79H15.8549V68.32H17.1249V68.84H15.8549V72.28C15.8549 72.56 15.9016 72.75 15.9949 72.85C16.0883 72.95 16.2683 73 16.5349 73Z" fill="white"/>
<path d="M18.6369 69.12C18.7702 68.86 18.9902 68.6433 19.2969 68.47C19.6035 68.29 19.9469 68.2 20.3269 68.2C20.8869 68.2 21.3369 68.36 21.6769 68.68C22.0169 69 22.1869 69.4533 22.1869 70.04V73.56H21.5369V70.32C21.5369 69.78 21.4302 69.3867 21.2169 69.14C21.0102 68.8867 20.6735 68.76 20.2069 68.76C19.7669 68.76 19.3969 68.9133 19.0969 69.22C18.7969 69.52 18.6469 69.9833 18.6469 70.61V73.56H17.9869V68.32H18.6069V69.12H18.6369Z" fill="white"/>
<path d="M27.7682 72.1C27.6149 72.5467 27.3515 72.9233 26.9782 73.23C26.6049 73.53 26.0982 73.68 25.4582 73.68C24.9982 73.68 24.5915 73.57 24.2382 73.35C23.8849 73.1233 23.6082 72.8033 23.4082 72.39C23.2082 71.97 23.1082 71.4833 23.1082 70.93C23.1082 70.3833 23.2082 69.9033 23.4082 69.49C23.6082 69.0767 23.8849 68.76 24.2382 68.54C24.5915 68.3133 24.9982 68.2 25.4582 68.2C25.9249 68.2 26.3382 68.3167 26.6982 68.55C27.0649 68.7767 27.3449 69.11 27.5382 69.55C27.7382 69.9833 27.8282 70.5 27.8082 71.1H23.7882C23.8015 71.7 23.9615 72.1867 24.2682 72.56C24.5749 72.9333 24.9715 73.12 25.4582 73.12C25.9115 73.12 26.2715 73.0133 26.5382 72.8C26.8049 72.58 26.9915 72.3167 27.0982 72.01L27.7682 72.1ZM25.4582 68.75C24.9849 68.75 24.5982 68.9233 24.2982 69.27C23.9982 69.61 23.8315 70.0367 23.7982 70.55H27.1282C27.0949 70.0367 26.9249 69.61 26.6182 69.27C26.3182 68.9233 25.9315 68.75 25.4582 68.75Z" fill="white"/>
<path d="M29.3979 69.32H29.4279C29.5612 68.9667 29.7812 68.6933 30.0879 68.5C30.4012 68.3 30.7612 68.2 31.1679 68.2C31.3279 68.2 31.4679 68.2133 31.5879 68.24V68.87C31.4479 68.85 31.2946 68.84 31.1279 68.84C30.6212 68.84 30.2112 69.0167 29.8979 69.37C29.5912 69.7167 29.4379 70.2267 29.4379 70.9V73.56H28.7779V68.32H29.3979V69.32Z" fill="white"/>
<path d="M33.4998 68.71V69.63H32.6098V68.71H33.4998ZM33.4998 72.65V73.56H32.6098V72.65H33.4998Z" fill="white"/>
<path d="M49.2034 69.32V70.47H45.6734V72.33H49.3834V73.56H44.1734V66.42H49.3834V67.61H45.6734V69.32H49.2034Z" fill="white"/>
<path d="M51.4127 66.32V73.56H50.0127V66.32H51.4127Z" fill="white"/>
<path d="M53.5319 68.27V73.56H52.1319V68.27H53.5319ZM53.5319 66.32V67.52H52.1319V66.32H53.5319Z" fill="white"/>
<path d="M57.731 73.56C57.6843 73.5067 57.6477 73.4167 57.621 73.29C57.5944 73.1567 57.581 73 57.581 72.82C57.4343 73.0933 57.1977 73.3067 56.871 73.46C56.551 73.6067 56.2043 73.68 55.831 73.68C55.5177 73.68 55.2243 73.6167 54.951 73.49C54.6843 73.3633 54.4677 73.1833 54.301 72.95C54.141 72.71 54.061 72.43 54.061 72.11C54.061 71.57 54.2443 71.17 54.611 70.91C54.9777 70.65 55.5277 70.4767 56.261 70.39C56.7677 70.3233 57.111 70.25 57.291 70.17C57.4777 70.0833 57.571 69.9567 57.571 69.79C57.571 69.59 57.4943 69.4333 57.341 69.32C57.1877 69.2 56.9577 69.14 56.651 69.14C56.3977 69.14 56.171 69.2067 55.971 69.34C55.7777 69.4733 55.641 69.67 55.561 69.93L54.271 69.73C54.3843 69.2367 54.6577 68.85 55.091 68.57C55.5243 68.2833 56.0543 68.14 56.681 68.14C57.4477 68.14 58.021 68.2933 58.401 68.6C58.781 68.9067 58.971 69.3233 58.971 69.85V72.5C58.971 72.8067 58.9777 73.0367 58.991 73.19C59.011 73.3367 59.051 73.46 59.111 73.56H57.731ZM57.571 70.95C57.491 71.0167 57.3543 71.0733 57.161 71.12C56.9743 71.16 56.7277 71.2 56.421 71.24C56.141 71.2867 55.9143 71.3767 55.741 71.51C55.5743 71.6367 55.491 71.8167 55.491 72.05C55.491 72.2633 55.5577 72.43 55.691 72.55C55.831 72.6633 56.021 72.72 56.261 72.72C56.4677 72.72 56.671 72.6767 56.871 72.59C57.071 72.5033 57.2377 72.37 57.371 72.19C57.5044 72.0033 57.571 71.7733 57.571 71.5V70.95Z" fill="white"/>
<path d="M67.1755 73.56V72.72C66.6621 73.3867 65.9288 73.72 64.9755 73.72C64.2888 73.72 63.6788 73.5667 63.1455 73.26C62.6188 72.9533 62.2055 72.52 61.9055 71.96C61.6055 71.3933 61.4555 70.7333 61.4555 69.98C61.4555 69.2267 61.6021 68.57 61.8955 68.01C62.1955 67.45 62.6121 67.02 63.1455 66.72C63.6788 66.4133 64.2888 66.26 64.9755 66.26C65.7688 66.26 66.4488 66.46 67.0155 66.86C67.5888 67.26 67.9888 67.8 68.2155 68.48L66.7055 68.66C66.5521 68.28 66.3288 67.9867 66.0355 67.78C65.7421 67.5733 65.3888 67.47 64.9755 67.47C64.3755 67.47 63.8921 67.6867 63.5255 68.12C63.1655 68.5533 62.9855 69.1733 62.9855 69.98C62.9855 70.8 63.1655 71.4267 63.5255 71.86C63.8855 72.2933 64.3688 72.51 64.9755 72.51C65.4755 72.51 65.8921 72.3633 66.2255 72.07C66.5655 71.7767 66.7755 71.4 66.8555 70.94H65.0955V69.81H68.2455V73.56H67.1755Z" fill="white"/>
<path d="M70.3076 69.08H70.3476C70.4942 68.7933 70.7009 68.5667 70.9676 68.4C71.2409 68.2267 71.5642 68.14 71.9376 68.14C72.0709 68.14 72.1942 68.1567 72.3076 68.19V69.49C72.2676 69.49 72.1876 69.4833 72.0676 69.47C71.9542 69.4567 71.8509 69.45 71.7576 69.45C70.8309 69.45 70.3676 69.93 70.3676 70.89V73.56H68.9676V68.27H70.3076V69.08Z" fill="white"/>
<path d="M75.2876 68.14C75.8342 68.14 76.3109 68.2533 76.7176 68.48C77.1242 68.7067 77.4376 69.03 77.6576 69.45C77.8776 69.87 77.9876 70.36 77.9876 70.92C77.9876 71.48 77.8776 71.97 77.6576 72.39C77.4376 72.8033 77.1242 73.1233 76.7176 73.35C76.3109 73.57 75.8342 73.68 75.2876 73.68C74.7342 73.68 74.2509 73.57 73.8376 73.35C73.4309 73.1233 73.1176 72.8033 72.8976 72.39C72.6842 71.97 72.5776 71.48 72.5776 70.92C72.5776 70.3533 72.6842 69.8633 72.8976 69.45C73.1176 69.03 73.4309 68.7067 73.8376 68.48C74.2509 68.2533 74.7342 68.14 75.2876 68.14ZM75.2876 72.63C75.6809 72.63 75.9909 72.4833 76.2176 72.19C76.4442 71.8967 76.5576 71.4733 76.5576 70.92C76.5576 70.36 76.4442 69.9333 76.2176 69.64C75.9909 69.34 75.6809 69.19 75.2876 69.19C74.8876 69.19 74.5709 69.34 74.3376 69.64C74.1109 69.9333 73.9976 70.36 73.9976 70.92C73.9976 71.4733 74.1109 71.8967 74.3376 72.19C74.5709 72.4833 74.8876 72.63 75.2876 72.63Z" fill="white"/>
<path d="M82.0874 72.86C81.7008 73.4067 81.1441 73.68 80.4174 73.68C79.8774 73.68 79.4307 73.52 79.0774 73.2C78.7307 72.8733 78.5574 72.39 78.5574 71.75V68.27H79.9574V71.39C79.9574 71.8033 80.0374 72.1 80.1974 72.28C80.3641 72.46 80.6141 72.55 80.9474 72.55C81.2608 72.55 81.5241 72.43 81.7374 72.19C81.9574 71.9433 82.0674 71.5967 82.0674 71.15V68.27H83.4674V73.56H82.1274V72.86H82.0874Z" fill="white"/>
<path d="M87.1634 73.68C86.7967 73.68 86.48 73.6167 86.2134 73.49C85.9467 73.3633 85.7367 73.18 85.5834 72.94H85.5434V75.4H84.1434V68.27H85.4734V68.96H85.5134C85.6734 68.68 85.8934 68.4733 86.1734 68.34C86.4534 68.2067 86.7767 68.14 87.1434 68.14C87.59 68.14 87.99 68.2533 88.3434 68.48C88.6967 68.7067 88.9734 69.03 89.1734 69.45C89.3734 69.87 89.4734 70.3567 89.4734 70.91C89.4734 71.4633 89.3734 71.95 89.1734 72.37C88.9734 72.79 88.6967 73.1133 88.3434 73.34C87.9967 73.5667 87.6034 73.68 87.1634 73.68ZM86.7534 69.21C86.3534 69.21 86.0367 69.3567 85.8034 69.65C85.5767 69.9433 85.4634 70.3633 85.4634 70.91C85.4634 71.4567 85.5767 71.8767 85.8034 72.17C86.0367 72.4633 86.3534 72.61 86.7534 72.61C87.1534 72.61 87.4667 72.4667 87.6934 72.18C87.9267 71.8867 88.0434 71.4633 88.0434 70.91C88.0434 70.3633 87.9267 69.9433 87.6934 69.65C87.4667 69.3567 87.1534 69.21 86.7534 69.21Z" fill="white"/>
<path d="M6.15 96.5C6.05 96.9067 5.87333 97.29 5.62 97.65C5.36667 98.0034 5.03333 98.29 4.62 98.51C4.21333 98.73 3.74333 98.84 3.21 98.84C2.59 98.84 2.03667 98.69 1.55 98.39C1.06333 98.09 0.683333 97.66 0.41 97.1C0.136667 96.54 0 95.88 0 95.12C0 94.3667 0.136667 93.71 0.41 93.15C0.683333 92.59 1.06333 92.1634 1.55 91.87C2.03667 91.57 2.59 91.42 3.21 91.42C3.75 91.42 4.21333 91.5267 4.6 91.74C4.99333 91.9467 5.3 92.19 5.52 92.47C5.74667 92.75 5.91333 93.02 6.02 93.28L5.32 93.44C5.15333 93.0467 4.89 92.7134 4.53 92.44C4.17 92.16 3.73 92.02 3.21 92.02C2.71667 92.02 2.28333 92.1434 1.91 92.39C1.53667 92.6367 1.24333 92.9934 1.03 93.46C0.823333 93.9267 0.72 94.48 0.72 95.12C0.72 95.7667 0.823333 96.3267 1.03 96.8C1.24333 97.2667 1.53667 97.6234 1.91 97.87C2.28333 98.1167 2.71667 98.24 3.21 98.24C3.78333 98.24 4.26333 98.0667 4.65 97.72C5.03667 97.3667 5.3 96.9234 5.44 96.39L6.15 96.5Z" fill="white"/>
<path d="M9.31219 93.34C9.79219 93.34 10.2155 93.4534 10.5822 93.68C10.9489 93.9 11.2322 94.2167 11.4322 94.63C11.6389 95.0434 11.7422 95.5267 11.7422 96.08C11.7422 96.6334 11.6389 97.1167 11.4322 97.53C11.2322 97.9434 10.9489 98.2634 10.5822 98.49C10.2155 98.71 9.79219 98.82 9.31219 98.82C8.83885 98.82 8.41885 98.71 8.05219 98.49C7.68552 98.2634 7.39885 97.9434 7.19219 97.53C6.99219 97.1167 6.89219 96.6334 6.89219 96.08C6.89219 95.5267 6.99219 95.0434 7.19219 94.63C7.39885 94.2167 7.68552 93.9 8.05219 93.68C8.41885 93.4534 8.83885 93.34 9.31219 93.34ZM9.31219 98.26C9.83219 98.26 10.2522 98.0667 10.5722 97.68C10.8989 97.2867 11.0622 96.7534 11.0622 96.08C11.0622 95.4067 10.8989 94.8734 10.5722 94.48C10.2522 94.0867 9.83219 93.89 9.31219 93.89C8.79219 93.89 8.37219 94.0867 8.05219 94.48C7.73219 94.8734 7.57219 95.4067 7.57219 96.08C7.57219 96.7534 7.73219 97.2867 8.05219 97.68C8.37219 98.0667 8.79219 98.26 9.31219 98.26Z" fill="white"/>
<path d="M16.2586 97.9C16.1186 98.16 15.8953 98.38 15.5886 98.56C15.2886 98.7334 14.9453 98.82 14.5586 98.82C13.9986 98.82 13.5486 98.66 13.2086 98.34C12.8686 98.02 12.6986 97.5634 12.6986 96.97V93.46H13.3586V96.7C13.3586 97.24 13.4619 97.6367 13.6686 97.89C13.8819 98.1367 14.2186 98.26 14.6786 98.26C15.1186 98.26 15.4886 98.1067 15.7886 97.8C16.0953 97.4934 16.2486 97.0267 16.2486 96.4V93.46H16.8986V98.7H16.2786V97.9H16.2586Z" fill="white"/>
<path d="M18.7099 94.26C18.8433 94 19.0633 93.7834 19.3699 93.61C19.6766 93.43 20.0199 93.34 20.3999 93.34C20.9599 93.34 21.4099 93.5 21.7499 93.82C22.0899 94.14 22.2599 94.5934 22.2599 95.18V98.7H21.6099V95.46C21.6099 94.92 21.5033 94.5267 21.2899 94.28C21.0833 94.0267 20.7466 93.9 20.2799 93.9C19.8399 93.9 19.4699 94.0534 19.1699 94.36C18.8699 94.66 18.7199 95.1234 18.7199 95.75V98.7H18.0599V93.46H18.6799V94.26H18.7099Z" fill="white"/>
<path d="M25.1431 98.14C25.3698 98.14 25.5565 98.1334 25.7031 98.12V98.7C25.5031 98.7134 25.2965 98.72 25.0831 98.72C24.7565 98.72 24.5031 98.6867 24.3231 98.62C24.1431 98.5467 24.0131 98.4267 23.9331 98.26C23.8531 98.0934 23.8131 97.86 23.8131 97.56V93.98H22.9231V93.46H23.8131V91.93H24.4631V93.46H25.7331V93.98H24.4631V97.42C24.4631 97.7 24.5098 97.89 24.6031 97.99C24.6965 98.09 24.8765 98.14 25.1431 98.14Z" fill="white"/>
<path d="M27.2151 94.46H27.2451C27.3784 94.1067 27.5984 93.8334 27.9051 93.64C28.2184 93.44 28.5784 93.34 28.9851 93.34C29.1451 93.34 29.2851 93.3534 29.4051 93.38V94.01C29.2651 93.99 29.1117 93.98 28.9451 93.98C28.4384 93.98 28.0284 94.1567 27.7151 94.51C27.4084 94.8567 27.2551 95.3667 27.2551 96.04V98.7H26.5951V93.46H27.2151V94.46Z" fill="white"/>
<path d="M32.4858 98.7C32.2591 99.2667 32.0491 99.69 31.8558 99.97C31.6691 100.257 31.4858 100.443 31.3058 100.53C31.1324 100.617 30.9291 100.66 30.6958 100.66C30.5424 100.66 30.4224 100.65 30.3358 100.63C30.2491 100.617 30.1991 100.61 30.1858 100.61V100.03C30.1991 100.03 30.2424 100.037 30.3158 100.05C30.3891 100.07 30.4824 100.08 30.5958 100.08C30.7624 100.08 30.9024 100.053 31.0158 100C31.1358 99.9467 31.2524 99.84 31.3658 99.68C31.4791 99.52 31.5991 99.28 31.7258 98.96L31.8458 98.66L29.7158 93.46H30.4558L32.1558 97.87H32.1858L33.8458 93.46H34.5658L32.4858 98.7Z" fill="white"/>
<path d="M36.2974 93.85V94.77H35.4074V93.85H36.2974ZM36.2974 97.79V98.7H35.4074V97.79H36.2974Z" fill="white"/>
<path d="M46.3824 91.56C47.0691 91.56 47.6024 91.7367 47.9824 92.09C48.3624 92.4434 48.5524 92.9167 48.5524 93.51C48.5524 93.8367 48.4791 94.12 48.3324 94.36C48.1858 94.5934 47.9624 94.77 47.6624 94.89V94.93C48.4158 95.2034 48.7924 95.7734 48.7924 96.64C48.7924 97.2734 48.5924 97.7767 48.1924 98.15C47.7924 98.5167 47.2291 98.7 46.5024 98.7H43.2324V91.56H46.3824ZM46.2224 94.59C46.6158 94.59 46.9158 94.5 47.1224 94.32C47.3291 94.14 47.4324 93.88 47.4324 93.54C47.4324 93.2 47.3291 92.94 47.1224 92.76C46.9158 92.5734 46.6158 92.48 46.2224 92.48H44.3324V94.59H46.2224ZM46.3424 97.76C46.7758 97.76 47.1058 97.66 47.3324 97.46C47.5591 97.26 47.6724 96.9734 47.6724 96.6C47.6724 96.2334 47.5591 95.95 47.3324 95.75C47.1058 95.55 46.7758 95.45 46.3424 95.45H44.3324V97.76H46.3424Z" fill="white"/>
<path d="M54.2317 97.16C54.0851 97.62 53.8184 98.0134 53.4317 98.34C53.0451 98.66 52.4984 98.82 51.7917 98.82C51.3051 98.82 50.8717 98.7067 50.4917 98.48C50.1184 98.2467 49.8284 97.9234 49.6217 97.51C49.4151 97.09 49.3117 96.61 49.3117 96.07C49.3117 95.5234 49.4117 95.04 49.6117 94.62C49.8184 94.2 50.1051 93.8767 50.4717 93.65C50.8451 93.4167 51.2817 93.3 51.7817 93.3C52.2684 93.3 52.6984 93.41 53.0717 93.63C53.4517 93.8434 53.7451 94.1534 53.9517 94.56C54.1651 94.96 54.2717 95.4367 54.2717 95.99C54.2717 96.13 54.2684 96.2367 54.2617 96.31H50.3417C50.3551 96.8034 50.4917 97.2067 50.7517 97.52C51.0184 97.8334 51.3651 97.99 51.7917 97.99C52.1984 97.99 52.5117 97.8967 52.7317 97.71C52.9517 97.5167 53.1084 97.2934 53.2017 97.04L54.2317 97.16ZM51.7817 94.13C51.3684 94.13 51.0384 94.2667 50.7917 94.54C50.5517 94.8067 50.4084 95.1367 50.3617 95.53H53.2317C53.1851 95.13 53.0384 94.7967 52.7917 94.53C52.5451 94.2634 52.2084 94.13 51.7817 94.13Z" fill="white"/>
<path d="M55.9902 91.46V98.7H54.9702V91.46H55.9902Z" fill="white"/>
<path d="M61.6445 98.33C61.6445 99.13 61.4179 99.7167 60.9645 100.09C60.5112 100.47 59.9145 100.66 59.1745 100.66C58.5812 100.66 58.0712 100.523 57.6445 100.25C57.2245 99.9767 56.9345 99.5567 56.7745 98.99L57.7545 98.78C57.8545 99.1534 58.0212 99.42 58.2545 99.58C58.4945 99.74 58.8012 99.82 59.1745 99.82C60.1412 99.82 60.6245 99.3067 60.6245 98.28V97.75H60.5845C60.4379 97.9567 60.2312 98.12 59.9645 98.24C59.6979 98.36 59.3912 98.42 59.0445 98.42C58.5912 98.42 58.1845 98.3134 57.8245 98.1C57.4712 97.8867 57.1945 97.5867 56.9945 97.2C56.7945 96.8134 56.6945 96.3667 56.6945 95.86C56.6945 95.36 56.7945 94.9167 56.9945 94.53C57.1945 94.1367 57.4712 93.8334 57.8245 93.62C58.1845 93.4067 58.5912 93.3 59.0445 93.3C59.4045 93.3 59.7245 93.3667 60.0045 93.5C60.2845 93.6267 60.4945 93.8034 60.6345 94.03H60.6745V93.42H61.6445V98.33ZM59.2145 97.61C59.6612 97.61 60.0179 97.45 60.2845 97.13C60.5512 96.81 60.6845 96.3867 60.6845 95.86C60.6845 95.34 60.5512 94.9234 60.2845 94.61C60.0179 94.29 59.6612 94.13 59.2145 94.13C58.7679 94.13 58.4079 94.29 58.1345 94.61C57.8679 94.9234 57.7345 95.34 57.7345 95.86C57.7345 96.38 57.8679 96.8034 58.1345 97.13C58.4079 97.45 58.7679 97.61 59.2145 97.61Z" fill="white"/>
<path d="M63.4805 93.42V98.7H62.4605V93.42H63.4805ZM63.4805 91.46V92.57H62.4605V91.46H63.4805Z" fill="white"/>
<path d="M67.8548 98C67.4814 98.5467 66.9348 98.82 66.2148 98.82C65.6881 98.82 65.2448 98.66 64.8848 98.34C64.5248 98.02 64.3448 97.5467 64.3448 96.92V93.42H65.3648V96.61C65.3648 97.0967 65.4614 97.4434 65.6548 97.65C65.8481 97.8567 66.1414 97.96 66.5348 97.96C66.7681 97.96 66.9814 97.8967 67.1748 97.77C67.3748 97.6434 67.5348 97.4567 67.6548 97.21C67.7814 96.9634 67.8448 96.6667 67.8448 96.32V93.42H68.8648V98.7H67.8948V98H67.8548Z" fill="white"/>
<path d="M75.517 93.3C75.8237 93.3 76.1104 93.37 76.377 93.51C76.6504 93.6434 76.8704 93.8534 77.037 94.14C77.2037 94.4267 77.287 94.78 77.287 95.2V98.7H76.267V95.51C76.267 95.03 76.177 94.6867 75.997 94.48C75.817 94.2667 75.547 94.16 75.187 94.16C74.9737 94.16 74.777 94.2234 74.597 94.35C74.417 94.4767 74.2704 94.6634 74.157 94.91C74.0437 95.15 73.987 95.4434 73.987 95.79V98.7H72.967V95.51C72.967 95.03 72.877 94.6867 72.697 94.48C72.517 94.2667 72.247 94.16 71.887 94.16C71.6737 94.16 71.477 94.2234 71.297 94.35C71.117 94.4767 70.9704 94.6634 70.857 94.91C70.7437 95.1567 70.687 95.4534 70.687 95.8V98.7H69.667V93.42H70.637V94.13H70.677C70.8704 93.8434 71.097 93.6334 71.357 93.5C71.6237 93.3667 71.9104 93.3 72.217 93.3C72.5437 93.3 72.8437 93.3734 73.117 93.52C73.3904 93.66 73.6004 93.8767 73.747 94.17C73.987 93.8767 74.247 93.66 74.527 93.52C74.8137 93.3734 75.1437 93.3 75.517 93.3Z" fill="white"/>
<path d="M83.4693 98.7C83.4226 98.6534 83.3826 98.5667 83.3493 98.44C83.3226 98.3134 83.3093 98.1667 83.3093 98C83.1493 98.2734 82.8993 98.48 82.5593 98.62C82.226 98.7534 81.8826 98.82 81.5293 98.82C81.216 98.82 80.926 98.7567 80.6593 98.63C80.3926 98.4967 80.1793 98.3134 80.0193 98.08C79.866 97.84 79.7893 97.56 79.7893 97.24C79.7893 96.7 79.976 96.3034 80.3493 96.05C80.7226 95.79 81.286 95.62 82.0393 95.54C82.526 95.4934 82.856 95.4234 83.0293 95.33C83.2093 95.2367 83.2993 95.1034 83.2993 94.93C83.2993 94.4034 82.9293 94.14 82.1893 94.14C81.9026 94.14 81.6426 94.2167 81.4093 94.37C81.176 94.5167 81.0126 94.7367 80.9193 95.03L79.9893 94.81C80.1026 94.3434 80.3626 93.9767 80.7693 93.71C81.176 93.4367 81.6626 93.3 82.2293 93.3C82.9493 93.3 83.476 93.45 83.8093 93.75C84.1493 94.0434 84.3193 94.43 84.3193 94.91V97.56C84.3193 97.8934 84.326 98.14 84.3393 98.3C84.3593 98.4534 84.3993 98.5867 84.4593 98.7H83.4693ZM83.2993 95.98C83.226 96.06 83.0693 96.1267 82.8293 96.18C82.596 96.2267 82.296 96.2734 81.9293 96.32C81.616 96.36 81.3526 96.4567 81.1393 96.61C80.9326 96.7567 80.8293 96.9667 80.8293 97.24C80.8293 97.4934 80.9093 97.6867 81.0693 97.82C81.2293 97.9467 81.4493 98.01 81.7293 98.01C81.9826 98.01 82.2293 97.9634 82.4693 97.87C82.7093 97.77 82.906 97.6167 83.0593 97.41C83.2193 97.1967 83.2993 96.9334 83.2993 96.62V95.98Z" fill="white"/>
<path d="M86.1263 94.12C86.3196 93.84 86.5563 93.6334 86.8363 93.5C87.1163 93.3667 87.4263 93.3 87.7663 93.3C88.0996 93.3 88.4062 93.37 88.6862 93.51C88.9729 93.6434 89.2029 93.8534 89.3763 94.14C89.5496 94.42 89.6363 94.7734 89.6363 95.2V98.7H88.6162V95.51C88.6162 95.0234 88.5196 94.6767 88.3262 94.47C88.1329 94.2634 87.8396 94.16 87.4463 94.16C87.2196 94.16 87.0063 94.2234 86.8063 94.35C86.6063 94.4767 86.4429 94.6634 86.3163 94.91C86.1963 95.1567 86.1363 95.4534 86.1363 95.8V98.7H85.1162V93.42H86.0863V94.12H86.1263Z" fill="white"/>
<path d="M92.6785 93.3C93.0385 93.3 93.3552 93.3667 93.6285 93.5C93.9085 93.6334 94.1218 93.8134 94.2685 94.04H94.3085V91.46H95.3285V98.7H94.3585V98.02H94.3185C94.1785 98.2667 93.9619 98.4634 93.6685 98.61C93.3819 98.75 93.0519 98.82 92.6785 98.82C92.2119 98.82 91.7952 98.7067 91.4285 98.48C91.0685 98.2467 90.7852 97.9234 90.5785 97.51C90.3785 97.09 90.2785 96.6067 90.2785 96.06C90.2785 95.5134 90.3785 95.0334 90.5785 94.62C90.7852 94.2 91.0685 93.8767 91.4285 93.65C91.7952 93.4167 92.2119 93.3 92.6785 93.3ZM92.8485 97.99C93.3152 97.99 93.6852 97.82 93.9585 97.48C94.2319 97.1334 94.3685 96.66 94.3685 96.06C94.3685 95.46 94.2319 94.99 93.9585 94.65C93.6852 94.3034 93.3152 94.13 92.8485 94.13C92.3819 94.13 92.0085 94.3034 91.7285 94.65C91.4552 94.99 91.3185 95.46 91.3185 96.06C91.3185 96.66 91.4552 97.1334 91.7285 97.48C92.0085 97.82 92.3819 97.99 92.8485 97.99Z" fill="white"/>
<path d="M103.536 98.7V97.83C103.07 98.5167 102.336 98.86 101.336 98.86C100.676 98.86 100.086 98.7034 99.5662 98.39C99.0528 98.0767 98.6528 97.6367 98.3662 97.07C98.0795 96.5034 97.9362 95.8534 97.9362 95.12C97.9362 94.3867 98.0795 93.74 98.3662 93.18C98.6528 92.6134 99.0528 92.1767 99.5662 91.87C100.08 91.5567 100.67 91.4 101.336 91.4C102.07 91.4 102.71 91.59 103.256 91.97C103.81 92.35 104.203 92.8734 104.436 93.54L103.336 93.67C103.156 93.23 102.896 92.8967 102.556 92.67C102.216 92.4367 101.81 92.32 101.336 92.32C100.876 92.32 100.473 92.4367 100.126 92.67C99.7862 92.8967 99.5228 93.22 99.3362 93.64C99.1495 94.06 99.0562 94.5534 99.0562 95.12C99.0562 95.6934 99.1495 96.1934 99.3362 96.62C99.5228 97.04 99.7862 97.3667 100.126 97.6C100.473 97.8267 100.876 97.94 101.336 97.94C101.756 97.94 102.123 97.85 102.436 97.67C102.756 97.4834 103 97.2434 103.166 96.95C103.34 96.65 103.426 96.3334 103.426 96H101.466V95.07H104.426V98.7H103.536Z" fill="white"/>
<path d="M110.042 97.16C109.896 97.62 109.629 98.0134 109.242 98.34C108.856 98.66 108.309 98.82 107.602 98.82C107.116 98.82 106.682 98.7067 106.302 98.48C105.929 98.2467 105.639 97.9234 105.432 97.51C105.226 97.09 105.122 96.61 105.122 96.07C105.122 95.5234 105.222 95.04 105.422 94.62C105.629 94.2 105.916 93.8767 106.282 93.65C106.656 93.4167 107.092 93.3 107.592 93.3C108.079 93.3 108.509 93.41 108.882 93.63C109.262 93.8434 109.556 94.1534 109.762 94.56C109.976 94.96 110.082 95.4367 110.082 95.99C110.082 96.13 110.079 96.2367 110.072 96.31H106.152C106.166 96.8034 106.302 97.2067 106.562 97.52C106.829 97.8334 107.176 97.99 107.602 97.99C108.009 97.99 108.322 97.8967 108.542 97.71C108.762 97.5167 108.919 97.2934 109.012 97.04L110.042 97.16ZM107.592 94.13C107.179 94.13 106.849 94.2667 106.602 94.54C106.362 94.8067 106.219 95.1367 106.172 95.53H109.042C108.996 95.13 108.849 94.7967 108.602 94.53C108.356 94.2634 108.019 94.13 107.592 94.13Z" fill="white"/>
<path d="M111.731 94.22H111.771C111.911 93.9534 112.117 93.7334 112.391 93.56C112.664 93.3867 112.981 93.3 113.341 93.3C113.507 93.3 113.664 93.3167 113.811 93.35V94.33C113.624 94.3034 113.451 94.29 113.291 94.29C112.831 94.29 112.464 94.42 112.191 94.68C111.917 94.9334 111.781 95.34 111.781 95.9V98.7H110.761V93.42H111.731V94.22Z" fill="white"/>
<path d="M120.185 93.3C120.492 93.3 120.778 93.37 121.045 93.51C121.318 93.6434 121.538 93.8534 121.705 94.14C121.872 94.4267 121.955 94.78 121.955 95.2V98.7H120.935V95.51C120.935 95.03 120.845 94.6867 120.665 94.48C120.485 94.2667 120.215 94.16 119.855 94.16C119.642 94.16 119.445 94.2234 119.265 94.35C119.085 94.4767 118.938 94.6634 118.825 94.91C118.712 95.15 118.655 95.4434 118.655 95.79V98.7H117.635V95.51C117.635 95.03 117.545 94.6867 117.365 94.48C117.185 94.2667 116.915 94.16 116.555 94.16C116.342 94.16 116.145 94.2234 115.965 94.35C115.785 94.4767 115.638 94.6634 115.525 94.91C115.412 95.1567 115.355 95.4534 115.355 95.8V98.7H114.335V93.42H115.305V94.13H115.345C115.538 93.8434 115.765 93.6334 116.025 93.5C116.292 93.3667 116.578 93.3 116.885 93.3C117.212 93.3 117.512 93.3734 117.785 93.52C118.058 93.66 118.268 93.8767 118.415 94.17C118.655 93.8767 118.915 93.66 119.195 93.52C119.482 93.3734 119.812 93.3 120.185 93.3Z" fill="white"/>
<path d="M126.233 98.7C126.186 98.6534 126.146 98.5667 126.113 98.44C126.086 98.3134 126.073 98.1667 126.073 98C125.913 98.2734 125.663 98.48 125.323 98.62C124.99 98.7534 124.646 98.82 124.293 98.82C123.98 98.82 123.69 98.7567 123.423 98.63C123.156 98.4967 122.943 98.3134 122.783 98.08C122.63 97.84 122.553 97.56 122.553 97.24C122.553 96.7 122.74 96.3034 123.113 96.05C123.486 95.79 124.05 95.62 124.803 95.54C125.29 95.4934 125.62 95.4234 125.793 95.33C125.973 95.2367 126.063 95.1034 126.063 94.93C126.063 94.4034 125.693 94.14 124.953 94.14C124.666 94.14 124.406 94.2167 124.173 94.37C123.94 94.5167 123.776 94.7367 123.683 95.03L122.753 94.81C122.866 94.3434 123.126 93.9767 123.533 93.71C123.94 93.4367 124.426 93.3 124.993 93.3C125.713 93.3 126.24 93.45 126.573 93.75C126.913 94.0434 127.083 94.43 127.083 94.91V97.56C127.083 97.8934 127.09 98.14 127.103 98.3C127.123 98.4534 127.163 98.5867 127.223 98.7H126.233ZM126.063 95.98C125.99 96.06 125.833 96.1267 125.593 96.18C125.36 96.2267 125.06 96.2734 124.693 96.32C124.38 96.36 124.116 96.4567 123.903 96.61C123.696 96.7567 123.593 96.9667 123.593 97.24C123.593 97.4934 123.673 97.6867 123.833 97.82C123.993 97.9467 124.213 98.01 124.493 98.01C124.746 98.01 124.993 97.9634 125.233 97.87C125.473 97.77 125.67 97.6167 125.823 97.41C125.983 97.1967 126.063 96.9334 126.063 96.62V95.98Z" fill="white"/>
<path d="M128.89 94.12C129.083 93.84 129.32 93.6334 129.6 93.5C129.88 93.3667 130.19 93.3 130.53 93.3C130.863 93.3 131.17 93.37 131.45 93.51C131.737 93.6434 131.967 93.8534 132.14 94.14C132.313 94.42 132.4 94.7734 132.4 95.2V98.7H131.38V95.51C131.38 95.0234 131.283 94.6767 131.09 94.47C130.897 94.2634 130.603 94.16 130.21 94.16C129.983 94.16 129.77 94.2234 129.57 94.35C129.37 94.4767 129.207 94.6634 129.08 94.91C128.96 95.1567 128.9 95.4534 128.9 95.8V98.7H127.88V93.42H128.85V94.12H128.89Z" fill="white"/>
<path d="M135.697 98.7C135.491 99.2467 135.287 99.66 135.087 99.94C134.887 100.227 134.681 100.417 134.467 100.51C134.254 100.61 134.001 100.66 133.707 100.66C133.427 100.66 133.221 100.65 133.087 100.63V99.73C133.107 99.73 133.154 99.7367 133.227 99.75C133.307 99.77 133.421 99.78 133.567 99.78C133.834 99.78 134.034 99.7134 134.167 99.58C134.301 99.4467 134.447 99.1967 134.607 98.83L134.687 98.63L132.567 93.42H133.667L135.157 97.42H135.197L136.597 93.42H137.697L135.697 98.7Z" fill="white"/>
</svg>
