<svg width="893" height="178" viewBox="0 0 893 178" fill="none" xmlns="http://www.w3.org/2000/svg">
<mask id="mask0_190:573" style="mask-type:alpha" maskUnits="userSpaceOnUse" x="0" y="0" width="893" height="178">
<path fill-rule="evenodd" clip-rule="evenodd" d="M893 12C893 5.37258 887.627 0 881 0H12C5.37258 0 0 5.37258 0 12V79C0 85.6274 5.37259 91 12 91H77C83.6274 91 89 96.3726 89 103V166C89 172.627 94.3726 178 101 178H792C798.627 178 804 172.627 804 166V103C804 96.3726 809.373 91 816 91H881C887.627 91 893 85.6274 893 79V12Z" fill="#C4C4C4"/>
</mask>
<g mask="url(#mask0_190:573)">
<path d="M396.5 670C62.6439 670 -208 399.356 -208 65.5V65.5C-208 -268.356 62.6439 -539 396.5 -539L446.5 -539C780.356 -539 1051 -268.356 1051 65.5001V65.5001C1051 399.356 780.356 670 446.5 670L396.5 670Z" fill="url(#paint0_angular_190:573)"/>
</g>
<path d="M65.129 54.5401L69.389 66.0001H76.589L59.789 23.1601H51.449L34.709 66.0001H41.789L46.049 54.5401H65.129ZM63.029 48.9601H48.089L55.469 29.1601H55.709L63.029 48.9601Z" fill="#452E66"/>
<path d="M79.4723 22.5601V66.0001H85.5923V22.5601H79.4723Z" fill="#452E66"/>
<path d="M90.898 22.5601V66.0001H97.0181V22.5601H90.898Z" fill="#452E66"/>
<path d="M140.45 66.0001C139.67 64.5601 139.61 62.7601 139.61 59.2201V43.3201C139.61 37.9801 136.25 33.6601 127.07 33.6601C120.29 33.6601 115.01 37.0201 113.63 42.7201L119.21 43.9801C120.35 40.2601 123.59 38.6401 126.83 38.6401C131.63 38.6401 133.49 40.6201 133.49 43.4401C133.49 45.4201 131.93 46.5001 125.87 47.1001C117.41 47.9401 112.37 50.4601 112.37 57.3001C112.37 63.1201 117.17 66.7201 122.87 66.7201C126.65 66.7201 131.39 65.3401 133.55 61.8001C133.55 63.9001 134.03 65.5201 134.51 66.0001H140.45ZM133.49 53.5201C133.49 59.5801 128.21 61.9201 124.07 61.9201C120.71 61.9201 118.67 60.3001 118.67 57.3001C118.67 53.7601 121.91 52.2001 125.21 51.7801C128.75 51.3601 132.47 50.8201 133.49 49.7401V53.5201Z" fill="#452E66"/>
<path d="M150.211 34.3801H144.391V66.0001H150.511V49.2001C150.511 42.1201 154.351 39.6001 159.571 39.6001C160.711 39.6001 161.851 39.7201 162.631 39.8401V33.9601C161.911 33.7801 160.831 33.6601 159.871 33.6601C155.311 33.6601 152.011 36.1201 150.451 39.1801H150.211V34.3801Z" fill="#452E66"/>
<path d="M187.981 56.0401C187.201 58.3201 185.041 61.8001 179.581 61.8001C174.301 61.8001 171.061 57.4201 170.881 51.6601H194.341C195.181 40.3201 188.701 33.6601 179.521 33.6601C170.461 33.6601 164.641 40.2601 164.641 50.2801C164.641 60.1201 170.641 66.7801 179.581 66.7801C188.881 66.7801 192.721 61.3801 194.161 56.8201L187.981 56.0401ZM179.521 38.5801C184.921 38.5801 187.681 42.6001 188.161 46.9801H171.001C171.481 42.6001 174.181 38.5801 179.521 38.5801Z" fill="#452E66"/>
<path d="M236.778 66.0001C235.998 64.5601 235.938 62.7601 235.938 59.2201V43.3201C235.938 37.9801 232.578 33.6601 223.398 33.6601C216.618 33.6601 211.338 37.0201 209.958 42.7201L215.538 43.9801C216.678 40.2601 219.918 38.6401 223.158 38.6401C227.958 38.6401 229.818 40.6201 229.818 43.4401C229.818 45.4201 228.258 46.5001 222.198 47.1001C213.738 47.9401 208.698 50.4601 208.698 57.3001C208.698 63.1201 213.498 66.7201 219.198 66.7201C222.978 66.7201 227.718 65.3401 229.878 61.8001C229.878 63.9001 230.358 65.5201 230.838 66.0001H236.778ZM229.818 53.5201C229.818 59.5801 224.538 61.9201 220.398 61.9201C217.038 61.9201 214.998 60.3001 214.998 57.3001C214.998 53.7601 218.238 52.2001 221.538 51.7801C225.078 51.3601 228.798 50.8201 229.818 49.7401V53.5201Z" fill="#452E66"/>
<path d="M265.559 42.6601C264.719 37.8601 259.499 33.6601 252.599 33.6601C245.219 33.6601 240.059 37.5601 240.059 42.9601C240.059 49.5601 245.219 51.2401 250.139 52.0801L253.319 52.6201C257.159 53.2801 259.979 54.1801 259.979 57.0601C259.979 60.2401 257.039 62.1601 252.959 62.1601C248.459 62.1601 245.279 60.1801 244.259 55.6801L238.679 56.8801C239.699 62.6401 244.739 66.7201 252.839 66.7201C260.399 66.7201 266.219 63.4201 266.219 56.8801C266.219 50.1001 261.059 48.4201 255.599 47.4601L252.479 46.9801C249.119 46.3801 246.359 45.7201 246.359 42.9001C246.359 39.9601 248.819 38.3401 252.539 38.3401C255.899 38.3401 259.079 40.0801 259.979 43.8001L265.559 42.6601Z" fill="#452E66"/>
<path d="M295.032 42.6601C294.192 37.8601 288.972 33.6601 282.072 33.6601C274.692 33.6601 269.532 37.5601 269.532 42.9601C269.532 49.5601 274.692 51.2401 279.612 52.0801L282.792 52.6201C286.632 53.2801 289.452 54.1801 289.452 57.0601C289.452 60.2401 286.512 62.1601 282.432 62.1601C277.932 62.1601 274.752 60.1801 273.732 55.6801L268.152 56.8801C269.172 62.6401 274.212 66.7201 282.312 66.7201C289.872 66.7201 295.692 63.4201 295.692 56.8801C295.692 50.1001 290.532 48.4201 285.072 47.4601L281.952 46.9801C278.592 46.3801 275.832 45.7201 275.832 42.9001C275.832 39.9601 278.292 38.3401 282.012 38.3401C285.372 38.3401 288.552 40.0801 289.452 43.8001L295.032 42.6601Z" fill="#452E66"/>
<path d="M299.725 22.5601V29.2201H305.905V22.5601H299.725ZM299.785 34.3801V66.0001H305.905V34.3801H299.785Z" fill="#452E66"/>
<path d="M339.771 34.3801H333.951V38.0401H333.711C332.031 35.2801 328.551 33.6601 324.171 33.6601C315.951 33.6601 310.131 39.7801 310.131 49.0201C310.131 58.2601 315.951 64.3201 324.171 64.3201C328.431 64.3201 331.731 62.7601 333.411 60.3601H333.651V63.5401C333.651 70.0801 330.471 72.7801 325.011 72.7801C320.691 72.7801 317.691 71.1601 316.491 66.5401L310.611 67.7401C312.591 74.8801 318.231 77.7601 325.011 77.7601C333.231 77.7601 339.771 73.9201 339.771 63.8401V34.3801ZM325.251 59.5201C319.791 59.5201 316.371 55.2001 316.371 49.0201C316.371 42.8401 319.791 38.5801 325.251 38.5801C330.591 38.5801 334.071 42.8401 334.071 49.0201C334.071 55.2001 330.591 59.5201 325.251 59.5201Z" fill="#452E66"/>
<path d="M350.426 38.5201V34.3801H344.606V66.0001H350.726V48.6001C350.726 42.1201 354.566 38.7601 358.586 38.7601C363.146 38.7601 365.606 40.9201 365.606 46.8601V66.0001H371.726V45.0001C371.726 37.0201 366.266 33.6601 360.506 33.6601C356.606 33.6601 353.066 35.0401 350.666 38.5201H350.426Z" fill="#452E66"/>
<path d="M398.86 56.0401C398.08 58.3201 395.92 61.8001 390.46 61.8001C385.18 61.8001 381.94 57.4201 381.76 51.6601H405.22C406.06 40.3201 399.58 33.6601 390.4 33.6601C381.34 33.6601 375.52 40.2601 375.52 50.2801C375.52 60.1201 381.52 66.7801 390.46 66.7801C399.76 66.7801 403.6 61.3801 405.04 56.8201L398.86 56.0401ZM390.4 38.5801C395.8 38.5801 398.56 42.6001 399.04 46.9801H381.88C382.36 42.6001 385.06 38.5801 390.4 38.5801Z" fill="#452E66"/>
<path d="M422.791 33.6601C414.391 33.6601 408.451 40.2001 408.451 50.2201C408.451 60.1801 414.391 66.7201 422.791 66.7201C427.291 66.7201 430.951 64.8601 432.631 61.9201H432.871V66.0001H438.691V22.5601H432.571V38.0401H432.331C430.651 35.4001 427.171 33.6601 422.791 33.6601ZM423.871 61.8001C418.231 61.8001 414.691 57.3601 414.691 50.2201C414.691 43.0201 418.231 38.5801 423.871 38.5801C429.391 38.5801 432.991 43.0201 432.991 50.2201C432.991 57.3601 429.391 61.8001 423.871 61.8001Z" fill="#452E66"/>
<path d="M481.817 66.0001C481.037 64.5601 480.977 62.7601 480.977 59.2201V43.3201C480.977 37.9801 477.617 33.6601 468.437 33.6601C461.657 33.6601 456.377 37.0201 454.997 42.7201L460.577 43.9801C461.717 40.2601 464.957 38.6401 468.197 38.6401C472.997 38.6401 474.857 40.6201 474.857 43.4401C474.857 45.4201 473.297 46.5001 467.237 47.1001C458.777 47.9401 453.737 50.4601 453.737 57.3001C453.737 63.1201 458.537 66.7201 464.237 66.7201C468.017 66.7201 472.757 65.3401 474.917 61.8001C474.917 63.9001 475.397 65.5201 475.877 66.0001H481.817ZM474.857 53.5201C474.857 59.5801 469.577 61.9201 465.437 61.9201C462.077 61.9201 460.037 60.3001 460.037 57.3001C460.037 53.7601 463.277 52.2001 466.577 51.7801C470.117 51.3601 473.837 50.8201 474.857 49.7401V53.5201Z" fill="#452E66"/>
<path d="M497.424 23.1601V66.0001H513.684C525.864 66.0001 534.024 58.8001 534.024 44.5801C534.024 30.4201 525.864 23.1601 513.684 23.1601H497.424ZM504.024 60.4801V28.7401H512.844C522.084 28.7401 527.304 34.2001 527.304 44.6401C527.304 55.0201 522.084 60.4801 512.844 60.4801H504.024Z" fill="#452E66"/>
<path d="M538.612 22.5601V29.2201H544.792V22.5601H538.612ZM538.672 34.3801V66.0001H544.792V34.3801H538.672Z" fill="#452E66"/>
<path d="M578.657 34.3801H572.837V38.0401H572.597C570.917 35.2801 567.437 33.6601 563.057 33.6601C554.837 33.6601 549.017 39.7801 549.017 49.0201C549.017 58.2601 554.837 64.3201 563.057 64.3201C567.317 64.3201 570.617 62.7601 572.297 60.3601H572.537V63.5401C572.537 70.0801 569.357 72.7801 563.897 72.7801C559.577 72.7801 556.577 71.1601 555.377 66.5401L549.497 67.7401C551.477 74.8801 557.117 77.7601 563.897 77.7601C572.117 77.7601 578.657 73.9201 578.657 63.8401V34.3801ZM564.137 59.5201C558.677 59.5201 555.257 55.2001 555.257 49.0201C555.257 42.8401 558.677 38.5801 564.137 38.5801C569.477 38.5801 572.957 42.8401 572.957 49.0201C572.957 55.2001 569.477 59.5201 564.137 59.5201Z" fill="#452E66"/>
<path d="M583.553 22.5601V29.2201H589.733V22.5601H583.553ZM583.613 34.3801V66.0001H589.733V34.3801H583.613Z" fill="#452E66"/>
<path d="M607.759 60.8401C605.359 60.8401 604.219 60.4801 604.219 57.5401V38.9401H611.119V34.3801H604.219V25.3801H598.099V34.3801H592.879V38.9401H598.099V59.1601C598.099 64.8001 600.679 66.1201 606.259 66.1201C607.819 66.1201 610.099 66.0601 610.759 66.0001V60.7801C609.919 60.8401 608.479 60.8401 607.759 60.8401Z" fill="#452E66"/>
<path d="M641.485 66.0001C640.705 64.5601 640.645 62.7601 640.645 59.2201V43.3201C640.645 37.9801 637.285 33.6601 628.105 33.6601C621.325 33.6601 616.045 37.0201 614.665 42.7201L620.245 43.9801C621.385 40.2601 624.625 38.6401 627.865 38.6401C632.665 38.6401 634.525 40.6201 634.525 43.4401C634.525 45.4201 632.965 46.5001 626.905 47.1001C618.445 47.9401 613.405 50.4601 613.405 57.3001C613.405 63.1201 618.205 66.7201 623.905 66.7201C627.685 66.7201 632.425 65.3401 634.585 61.8001C634.585 63.9001 635.065 65.5201 635.545 66.0001H641.485ZM634.525 53.5201C634.525 59.5801 629.245 61.9201 625.105 61.9201C621.745 61.9201 619.705 60.3001 619.705 57.3001C619.705 53.7601 622.945 52.2001 626.245 51.7801C629.785 51.3601 633.505 50.8201 634.525 49.7401V53.5201Z" fill="#452E66"/>
<path d="M645.547 22.5601V66.0001H651.667V22.5601H645.547Z" fill="#452E66"/>
<path d="M668.638 66.0001H675.238V23.1601H668.638V66.0001Z" fill="#452E66"/>
<path d="M694.021 33.6601C685.621 33.6601 679.681 40.2001 679.681 50.2201C679.681 60.1801 685.621 66.7201 694.021 66.7201C698.521 66.7201 702.181 64.8601 703.861 61.9201H704.101V66.0001H709.921V22.5601H703.801V38.0401H703.561C701.881 35.4001 698.401 33.6601 694.021 33.6601ZM695.101 61.8001C689.461 61.8001 685.921 57.3601 685.921 50.2201C685.921 43.0201 689.461 38.5801 695.101 38.5801C700.621 38.5801 704.221 43.0201 704.221 50.2201C704.221 57.3601 700.621 61.8001 695.101 61.8001Z" fill="#452E66"/>
<path d="M737.122 56.0401C736.342 58.3201 734.181 61.8001 728.721 61.8001C723.441 61.8001 720.201 57.4201 720.021 51.6601H743.482C744.322 40.3201 737.842 33.6601 728.661 33.6601C719.601 33.6601 713.781 40.2601 713.781 50.2801C713.781 60.1201 719.781 66.7801 728.721 66.7801C738.021 66.7801 741.862 61.3801 743.302 56.8201L737.122 56.0401ZM728.661 38.5801C734.061 38.5801 736.822 42.6001 737.302 46.9801H720.141C720.621 42.6001 723.321 38.5801 728.661 38.5801Z" fill="#452E66"/>
<path d="M753.493 38.5201V34.3801H747.673V66.0001H753.793V48.6001C753.793 42.1201 757.633 38.7601 761.653 38.7601C766.213 38.7601 768.673 40.9201 768.673 46.8601V66.0001H774.793V45.0001C774.793 37.0201 769.333 33.6601 763.573 33.6601C759.673 33.6601 756.133 35.0401 753.733 38.5201H753.493Z" fill="#452E66"/>
<path d="M792.212 60.8401C789.812 60.8401 788.672 60.4801 788.672 57.5401V38.9401H795.572V34.3801H788.672V25.3801H782.552V34.3801H777.332V38.9401H782.552V59.1601C782.552 64.8001 785.132 66.1201 790.712 66.1201C792.272 66.1201 794.552 66.0601 795.212 66.0001V60.7801C794.372 60.8401 792.932 60.8401 792.212 60.8401Z" fill="#452E66"/>
<path d="M799.178 22.5601V29.2201H805.358V22.5601H799.178ZM799.238 34.3801V66.0001H805.358V34.3801H799.238Z" fill="#452E66"/>
<path d="M823.384 60.8401C820.984 60.8401 819.844 60.4801 819.844 57.5401V38.9401H826.744V34.3801H819.844V25.3801H813.724V34.3801H808.504V38.9401H813.724V59.1601C813.724 64.8001 816.304 66.1201 821.884 66.1201C823.444 66.1201 825.724 66.0601 826.384 66.0001V60.7801C825.544 60.8401 824.104 60.8401 823.384 60.8401Z" fill="#452E66"/>
<path d="M858.49 34.3801H851.95L843.55 58.3801H843.31L834.37 34.3801H827.77L840.49 65.6401L839.95 66.7801C838.21 71.0401 837.01 72.4801 833.77 72.4801C831.97 72.4801 831.31 72.3001 830.83 72.2401V77.5801C831.67 77.7001 832.87 77.7601 834.61 77.7601C839.35 77.7601 842.65 76.3201 846.55 66.0001L858.49 34.3801Z" fill="#452E66"/>
<path d="M139.455 118.66C130.095 118.66 124.095 125.2 124.095 135.22C124.095 145.18 130.095 151.72 139.455 151.72C148.695 151.72 154.755 145.18 154.755 135.22C154.755 125.2 148.695 118.66 139.455 118.66ZM139.455 146.8C133.815 146.8 130.335 142.36 130.335 135.22C130.335 128.02 133.815 123.58 139.455 123.58C144.975 123.58 148.515 128.02 148.515 135.22C148.515 142.36 144.975 146.8 139.455 146.8Z" fill="#452E66"/>
<path d="M164.743 123.52V119.38H158.923V151H165.043V133.6C165.043 127.12 168.883 123.76 172.903 123.76C177.463 123.76 179.923 125.92 179.923 131.86V151H186.043V130C186.043 122.02 180.583 118.66 174.823 118.66C170.923 118.66 167.383 120.04 164.983 123.52H164.743Z" fill="#452E66"/>
<path d="M215.122 145.84C212.722 145.84 211.582 145.48 211.582 142.54V123.94H218.482V119.38H211.582V110.38H205.462V119.38H200.242V123.94H205.462V144.16C205.462 149.8 208.042 151.12 213.622 151.12C215.182 151.12 217.462 151.06 218.122 151V145.78C217.282 145.84 215.842 145.84 215.122 145.84Z" fill="#452E66"/>
<path d="M228.148 123.52V107.56H222.028V151H228.148V134.2C228.148 127.72 232.108 123.76 236.008 123.76C240.568 123.76 243.028 125.92 243.028 131.86V151H249.148V130C249.148 122.02 243.688 118.66 238.108 118.66C234.328 118.66 230.848 120.04 228.388 123.52H228.148Z" fill="#452E66"/>
<path d="M276.282 141.04C275.502 143.32 273.342 146.8 267.882 146.8C262.602 146.8 259.362 142.42 259.182 136.66H282.642C283.482 125.32 277.002 118.66 267.822 118.66C258.762 118.66 252.942 125.26 252.942 135.28C252.942 145.12 258.942 151.78 267.882 151.78C277.182 151.78 281.022 146.38 282.462 141.82L276.282 141.04ZM267.822 123.58C273.222 123.58 275.982 127.6 276.462 131.98H259.302C259.782 127.6 262.482 123.58 267.822 123.58Z" fill="#452E66"/>
<path d="M305.099 126.22V113.74H328.259V108.16H298.499V151H328.259V145.3H305.099V131.68H327.299V126.22H305.099Z" fill="#452E66"/>
<path d="M338.473 123.52V119.38H332.653V151H338.773V133.6C338.773 127.12 342.613 123.76 346.633 123.76C351.193 123.76 353.653 125.92 353.653 131.86V151H359.773V130C359.773 122.02 354.313 118.66 348.553 118.66C344.653 118.66 341.113 120.04 338.713 123.52H338.473Z" fill="#452E66"/>
<path d="M386.907 141.04C386.127 143.32 383.967 146.8 378.507 146.8C373.227 146.8 369.987 142.42 369.807 136.66H393.267C394.107 125.32 387.627 118.66 378.447 118.66C369.387 118.66 363.567 125.26 363.567 135.28C363.567 145.12 369.567 151.78 378.507 151.78C387.807 151.78 391.647 146.38 393.087 141.82L386.907 141.04ZM378.447 123.58C383.847 123.58 386.607 127.6 387.087 131.98H369.927C370.407 127.6 373.107 123.58 378.447 123.58Z" fill="#452E66"/>
<path d="M403.278 119.38H397.458V151H403.578V134.2C403.578 127.12 407.418 124.6 412.638 124.6C413.778 124.6 414.918 124.72 415.698 124.84V118.96C414.978 118.78 413.898 118.66 412.938 118.66C408.378 118.66 405.078 121.12 403.518 124.18H403.278V119.38Z" fill="#452E66"/>
<path d="M447.407 119.38H441.587V123.04H441.347C439.667 120.28 436.187 118.66 431.807 118.66C423.587 118.66 417.767 124.78 417.767 134.02C417.767 143.26 423.587 149.32 431.807 149.32C436.067 149.32 439.367 147.76 441.047 145.36H441.287V148.54C441.287 155.08 438.107 157.78 432.647 157.78C428.327 157.78 425.327 156.16 424.127 151.54L418.247 152.74C420.227 159.88 425.867 162.76 432.647 162.76C440.867 162.76 447.407 158.92 447.407 148.84V119.38ZM432.887 144.52C427.427 144.52 424.007 140.2 424.007 134.02C424.007 127.84 427.427 123.58 432.887 123.58C438.227 123.58 441.707 127.84 441.707 134.02C441.707 140.2 438.227 144.52 432.887 144.52Z" fill="#452E66"/>
<path d="M480.443 119.38H473.903L465.503 143.38H465.263L456.323 119.38H449.723L462.443 150.64L461.903 151.78C460.163 156.04 458.963 157.48 455.723 157.48C453.923 157.48 453.263 157.3 452.783 157.24V162.58C453.623 162.7 454.823 162.76 456.563 162.76C461.303 162.76 464.603 161.32 468.503 151L480.443 119.38Z" fill="#452E66"/>
<path d="M527.25 151H534.63L545.67 108.16H538.83L530.91 142.36H530.67L522.51 108.16H515.25L507.15 142.36H506.91L499.05 108.16H492.21L503.19 151H510.75L518.85 117.7H519.09L527.25 151Z" fill="#452E66"/>
<path d="M568.372 141.04C567.592 143.32 565.431 146.8 559.971 146.8C554.691 146.8 551.451 142.42 551.271 136.66H574.732C575.572 125.32 569.092 118.66 559.911 118.66C550.851 118.66 545.031 125.26 545.031 135.28C545.031 145.12 551.031 151.78 559.971 151.78C569.271 151.78 573.112 146.38 574.552 141.82L568.372 141.04ZM559.911 123.58C565.311 123.58 568.072 127.6 568.552 131.98H551.391C551.871 127.6 554.571 123.58 559.911 123.58Z" fill="#452E66"/>
<path d="M594.823 118.66C590.383 118.66 586.963 120.4 585.283 123.04H585.043V107.56H578.923V151H584.743V146.92H584.983C586.663 149.86 590.263 151.78 594.823 151.78C603.163 151.78 609.163 145.18 609.163 135.22C609.163 125.26 603.163 118.66 594.823 118.66ZM593.743 146.8C588.223 146.8 584.623 142.36 584.623 135.22C584.623 128.02 588.223 123.58 593.743 123.58C599.383 123.58 602.923 128.02 602.923 135.22C602.923 142.36 599.383 146.8 593.743 146.8Z" fill="#452E66"/>
<path d="M656.363 136.12C655.103 141.46 651.443 146.44 644.303 146.44C636.023 146.44 630.863 140.2 630.863 129.52C630.863 119.02 636.023 112.78 644.303 112.78C650.243 112.78 654.143 116.38 655.763 120.58L662.183 119.14C660.203 113.74 654.263 107.26 644.303 107.26C632.363 107.26 624.143 115.78 624.143 129.52C624.143 143.44 632.363 151.96 644.303 151.96C655.463 151.96 661.463 144.1 662.963 137.14L656.363 136.12Z" fill="#452E66"/>
<path d="M673.05 123.52V107.56H666.93V151H673.05V134.2C673.05 127.72 677.01 123.76 680.91 123.76C685.47 123.76 687.93 125.92 687.93 131.86V151H694.05V130C694.05 122.02 688.59 118.66 683.01 118.66C679.23 118.66 675.75 120.04 673.29 123.52H673.05Z" fill="#452E66"/>
<path d="M725.684 151C724.904 149.56 724.844 147.76 724.844 144.22V128.32C724.844 122.98 721.484 118.66 712.304 118.66C705.524 118.66 700.244 122.02 698.864 127.72L704.444 128.98C705.584 125.26 708.824 123.64 712.064 123.64C716.864 123.64 718.724 125.62 718.724 128.44C718.724 130.42 717.164 131.5 711.104 132.1C702.644 132.94 697.604 135.46 697.604 142.3C697.604 148.12 702.404 151.72 708.104 151.72C711.884 151.72 716.624 150.34 718.784 146.8C718.784 148.9 719.264 150.52 719.744 151H725.684ZM718.724 138.52C718.724 144.58 713.444 146.92 709.304 146.92C705.944 146.92 703.904 145.3 703.904 142.3C703.904 138.76 707.144 137.2 710.444 136.78C713.984 136.36 717.704 135.82 718.724 134.74V138.52Z" fill="#452E66"/>
<path d="M729.686 107.56V114.22H735.866V107.56H729.686ZM729.746 119.38V151H735.866V119.38H729.746Z" fill="#452E66"/>
<path d="M746.872 123.52V119.38H741.052V151H747.172V133.6C747.172 127.12 751.011 123.76 755.031 123.76C759.591 123.76 762.052 125.92 762.052 131.86V151H768.172V130C768.172 122.02 762.711 118.66 756.951 118.66C753.051 118.66 749.512 120.04 747.112 123.52H746.872Z" fill="#452E66"/>
<path d="M494.664 72.0001H858.55V75.0001H494.664V72.0001ZM295.739 157H770.451V160H295.739V157Z" fill="#452E66"/>
<defs>
<radialGradient id="paint0_angular_190:573" cx="0" cy="0" r="1" gradientUnits="userSpaceOnUse" gradientTransform="translate(373.359 -62.7566) scale(677.625 1563.71)">
<stop stop-color="#EBB9F2"/>
<stop offset="0.541667" stop-color="#F6AAAA"/>
<stop offset="1" stop-color="#A566FF"/>
</radialGradient>
</defs>
</svg>
