<svg width="893" height="179" viewBox="0 0 893 179" fill="none" xmlns="http://www.w3.org/2000/svg">
<mask id="mask0_772:1650" style="mask-type:alpha" maskUnits="userSpaceOnUse" x="0" y="0" width="893" height="179">
<path fill-rule="evenodd" clip-rule="evenodd" d="M893 12.2969C893 5.66946 887.627 0.296875 881 0.296875H12C5.37258 0.296875 0 5.66946 0 12.2969V79.2969C0 85.9243 5.37259 91.2969 12 91.2969H77C83.6274 91.2969 89 96.6695 89 103.297V166.297C89 172.924 94.3726 178.297 101 178.297H792C798.627 178.297 804 172.924 804 166.297V103.297C804 96.6695 809.373 91.2969 816 91.2969H881C887.627 91.2969 893 85.9243 893 79.2969V12.2969Z" fill="#C4C4C4"/>
</mask>
<g mask="url(#mask0_772:1650)">
<path d="M396.5 670.297C62.6439 670.297 -208 399.653 -208 65.7969V65.7969C-208 -268.059 62.6439 -538.703 396.5 -538.703L446.5 -538.703C780.356 -538.703 1051 -268.059 1051 65.7969V65.7969C1051 399.653 780.356 670.297 446.5 670.297L396.5 670.297Z" fill="url(#paint0_angular_772:1650)"/>
</g>
<path d="M65.129 54.8364L69.389 66.2964H76.589L59.789 23.4564H51.449L34.709 66.2964H41.789L46.049 54.8364H65.129ZM63.029 49.2564H48.089L55.469 29.4564H55.709L63.029 49.2564Z" fill="#452E66"/>
<path d="M79.4723 22.8564V66.2964H85.5923V22.8564H79.4723Z" fill="#452E66"/>
<path d="M90.898 22.8564V66.2964H97.0181V22.8564H90.898Z" fill="#452E66"/>
<path d="M140.45 66.2964C139.67 64.8564 139.61 63.0564 139.61 59.5164V43.6164C139.61 38.2764 136.25 33.9564 127.07 33.9564C120.29 33.9564 115.01 37.3164 113.63 43.0164L119.21 44.2764C120.35 40.5564 123.59 38.9364 126.83 38.9364C131.63 38.9364 133.49 40.9164 133.49 43.7364C133.49 45.7164 131.93 46.7964 125.87 47.3964C117.41 48.2364 112.37 50.7564 112.37 57.5964C112.37 63.4164 117.17 67.0164 122.87 67.0164C126.65 67.0164 131.39 65.6364 133.55 62.0964C133.55 64.1964 134.03 65.8164 134.51 66.2964H140.45ZM133.49 53.8164C133.49 59.8764 128.21 62.2164 124.07 62.2164C120.71 62.2164 118.67 60.5964 118.67 57.5964C118.67 54.0564 121.91 52.4964 125.21 52.0764C128.75 51.6564 132.47 51.1164 133.49 50.0364V53.8164Z" fill="#452E66"/>
<path d="M150.211 34.6764H144.391V66.2964H150.511V49.4964C150.511 42.4164 154.351 39.8964 159.571 39.8964C160.711 39.8964 161.851 40.0164 162.631 40.1364V34.2564C161.911 34.0764 160.831 33.9564 159.871 33.9564C155.311 33.9564 152.011 36.4164 150.451 39.4764H150.211V34.6764Z" fill="#452E66"/>
<path d="M187.981 56.3364C187.201 58.6164 185.041 62.0964 179.581 62.0964C174.301 62.0964 171.061 57.7164 170.881 51.9564H194.341C195.181 40.6164 188.701 33.9564 179.521 33.9564C170.461 33.9564 164.641 40.5564 164.641 50.5764C164.641 60.4164 170.641 67.0764 179.581 67.0764C188.881 67.0764 192.721 61.6764 194.161 57.1164L187.981 56.3364ZM179.521 38.8764C184.921 38.8764 187.681 42.8964 188.161 47.2764H171.001C171.481 42.8964 174.181 38.8764 179.521 38.8764Z" fill="#452E66"/>
<path d="M236.778 66.2964C235.998 64.8564 235.938 63.0564 235.938 59.5164V43.6164C235.938 38.2764 232.578 33.9564 223.398 33.9564C216.618 33.9564 211.338 37.3164 209.958 43.0164L215.538 44.2764C216.678 40.5564 219.918 38.9364 223.158 38.9364C227.958 38.9364 229.818 40.9164 229.818 43.7364C229.818 45.7164 228.258 46.7964 222.198 47.3964C213.738 48.2364 208.698 50.7564 208.698 57.5964C208.698 63.4164 213.498 67.0164 219.198 67.0164C222.978 67.0164 227.718 65.6364 229.878 62.0964C229.878 64.1964 230.358 65.8164 230.838 66.2964H236.778ZM229.818 53.8164C229.818 59.8764 224.538 62.2164 220.398 62.2164C217.038 62.2164 214.998 60.5964 214.998 57.5964C214.998 54.0564 218.238 52.4964 221.538 52.0764C225.078 51.6564 228.798 51.1164 229.818 50.0364V53.8164Z" fill="#452E66"/>
<path d="M265.559 42.9564C264.719 38.1564 259.499 33.9564 252.599 33.9564C245.219 33.9564 240.059 37.8564 240.059 43.2564C240.059 49.8564 245.219 51.5364 250.139 52.3764L253.319 52.9164C257.159 53.5764 259.979 54.4764 259.979 57.3564C259.979 60.5364 257.039 62.4564 252.959 62.4564C248.459 62.4564 245.279 60.4764 244.259 55.9764L238.679 57.1764C239.699 62.9364 244.739 67.0164 252.839 67.0164C260.399 67.0164 266.219 63.7164 266.219 57.1764C266.219 50.3964 261.059 48.7164 255.599 47.7564L252.479 47.2764C249.119 46.6764 246.359 46.0164 246.359 43.1964C246.359 40.2564 248.819 38.6364 252.539 38.6364C255.899 38.6364 259.079 40.3764 259.979 44.0964L265.559 42.9564Z" fill="#452E66"/>
<path d="M295.032 42.9564C294.192 38.1564 288.972 33.9564 282.072 33.9564C274.692 33.9564 269.532 37.8564 269.532 43.2564C269.532 49.8564 274.692 51.5364 279.612 52.3764L282.792 52.9164C286.632 53.5764 289.452 54.4764 289.452 57.3564C289.452 60.5364 286.512 62.4564 282.432 62.4564C277.932 62.4564 274.752 60.4764 273.732 55.9764L268.152 57.1764C269.172 62.9364 274.212 67.0164 282.312 67.0164C289.872 67.0164 295.692 63.7164 295.692 57.1764C295.692 50.3964 290.532 48.7164 285.072 47.7564L281.952 47.2764C278.592 46.6764 275.832 46.0164 275.832 43.1964C275.832 40.2564 278.292 38.6364 282.012 38.6364C285.372 38.6364 288.552 40.3764 289.452 44.0964L295.032 42.9564Z" fill="#452E66"/>
<path d="M299.725 22.8564V29.5164H305.905V22.8564H299.725ZM299.785 34.6764V66.2964H305.905V34.6764H299.785Z" fill="#452E66"/>
<path d="M339.771 34.6764H333.951V38.3364H333.711C332.031 35.5764 328.551 33.9564 324.171 33.9564C315.951 33.9564 310.131 40.0764 310.131 49.3164C310.131 58.5564 315.951 64.6164 324.171 64.6164C328.431 64.6164 331.731 63.0564 333.411 60.6564H333.651V63.8364C333.651 70.3764 330.471 73.0764 325.011 73.0764C320.691 73.0764 317.691 71.4564 316.491 66.8364L310.611 68.0364C312.591 75.1764 318.231 78.0564 325.011 78.0564C333.231 78.0564 339.771 74.2164 339.771 64.1364V34.6764ZM325.251 59.8164C319.791 59.8164 316.371 55.4964 316.371 49.3164C316.371 43.1364 319.791 38.8764 325.251 38.8764C330.591 38.8764 334.071 43.1364 334.071 49.3164C334.071 55.4964 330.591 59.8164 325.251 59.8164Z" fill="#452E66"/>
<path d="M350.426 38.8164V34.6764H344.606V66.2964H350.726V48.8964C350.726 42.4164 354.566 39.0564 358.586 39.0564C363.146 39.0564 365.606 41.2164 365.606 47.1564V66.2964H371.726V45.2964C371.726 37.3164 366.266 33.9564 360.506 33.9564C356.606 33.9564 353.066 35.3364 350.666 38.8164H350.426Z" fill="#452E66"/>
<path d="M398.86 56.3364C398.08 58.6164 395.92 62.0964 390.46 62.0964C385.18 62.0964 381.94 57.7164 381.76 51.9564H405.22C406.06 40.6164 399.58 33.9564 390.4 33.9564C381.34 33.9564 375.52 40.5564 375.52 50.5764C375.52 60.4164 381.52 67.0764 390.46 67.0764C399.76 67.0764 403.6 61.6764 405.04 57.1164L398.86 56.3364ZM390.4 38.8764C395.8 38.8764 398.56 42.8964 399.04 47.2764H381.88C382.36 42.8964 385.06 38.8764 390.4 38.8764Z" fill="#452E66"/>
<path d="M422.791 33.9564C414.391 33.9564 408.451 40.4964 408.451 50.5164C408.451 60.4764 414.391 67.0164 422.791 67.0164C427.291 67.0164 430.951 65.1564 432.631 62.2164H432.871V66.2964H438.691V22.8564H432.571V38.3364H432.331C430.651 35.6964 427.171 33.9564 422.791 33.9564ZM423.871 62.0964C418.231 62.0964 414.691 57.6564 414.691 50.5164C414.691 43.3164 418.231 38.8764 423.871 38.8764C429.391 38.8764 432.991 43.3164 432.991 50.5164C432.991 57.6564 429.391 62.0964 423.871 62.0964Z" fill="#452E66"/>
<path d="M481.817 66.2964C481.037 64.8564 480.977 63.0564 480.977 59.5164V43.6164C480.977 38.2764 477.617 33.9564 468.437 33.9564C461.657 33.9564 456.377 37.3164 454.997 43.0164L460.577 44.2764C461.717 40.5564 464.957 38.9364 468.197 38.9364C472.997 38.9364 474.857 40.9164 474.857 43.7364C474.857 45.7164 473.297 46.7964 467.237 47.3964C458.777 48.2364 453.737 50.7564 453.737 57.5964C453.737 63.4164 458.537 67.0164 464.237 67.0164C468.017 67.0164 472.757 65.6364 474.917 62.0964C474.917 64.1964 475.397 65.8164 475.877 66.2964H481.817ZM474.857 53.8164C474.857 59.8764 469.577 62.2164 465.437 62.2164C462.077 62.2164 460.037 60.5964 460.037 57.5964C460.037 54.0564 463.277 52.4964 466.577 52.0764C470.117 51.6564 473.837 51.1164 474.857 50.0364V53.8164Z" fill="#452E66"/>
<path d="M497.424 23.4564V66.2964H513.684C525.864 66.2964 534.024 59.0964 534.024 44.8764C534.024 30.7164 525.864 23.4564 513.684 23.4564H497.424ZM504.024 60.7764V29.0364H512.844C522.084 29.0364 527.304 34.4964 527.304 44.9364C527.304 55.3164 522.084 60.7764 512.844 60.7764H504.024Z" fill="#452E66"/>
<path d="M538.612 22.8564V29.5164H544.792V22.8564H538.612ZM538.672 34.6764V66.2964H544.792V34.6764H538.672Z" fill="#452E66"/>
<path d="M578.657 34.6764H572.837V38.3364H572.597C570.917 35.5764 567.437 33.9564 563.057 33.9564C554.837 33.9564 549.017 40.0764 549.017 49.3164C549.017 58.5564 554.837 64.6164 563.057 64.6164C567.317 64.6164 570.617 63.0564 572.297 60.6564H572.537V63.8364C572.537 70.3764 569.357 73.0764 563.897 73.0764C559.577 73.0764 556.577 71.4564 555.377 66.8364L549.497 68.0364C551.477 75.1764 557.117 78.0564 563.897 78.0564C572.117 78.0564 578.657 74.2164 578.657 64.1364V34.6764ZM564.137 59.8164C558.677 59.8164 555.257 55.4964 555.257 49.3164C555.257 43.1364 558.677 38.8764 564.137 38.8764C569.477 38.8764 572.957 43.1364 572.957 49.3164C572.957 55.4964 569.477 59.8164 564.137 59.8164Z" fill="#452E66"/>
<path d="M583.553 22.8564V29.5164H589.733V22.8564H583.553ZM583.613 34.6764V66.2964H589.733V34.6764H583.613Z" fill="#452E66"/>
<path d="M607.759 61.1364C605.359 61.1364 604.219 60.7764 604.219 57.8364V39.2364H611.119V34.6764H604.219V25.6764H598.099V34.6764H592.879V39.2364H598.099V59.4564C598.099 65.0964 600.679 66.4165 606.259 66.4165C607.819 66.4165 610.099 66.3564 610.759 66.2964V61.0764C609.919 61.1364 608.479 61.1364 607.759 61.1364Z" fill="#452E66"/>
<path d="M641.485 66.2964C640.705 64.8564 640.645 63.0564 640.645 59.5164V43.6164C640.645 38.2764 637.285 33.9564 628.105 33.9564C621.325 33.9564 616.045 37.3164 614.665 43.0164L620.245 44.2764C621.385 40.5564 624.625 38.9364 627.865 38.9364C632.665 38.9364 634.525 40.9164 634.525 43.7364C634.525 45.7164 632.965 46.7964 626.905 47.3964C618.445 48.2364 613.405 50.7564 613.405 57.5964C613.405 63.4164 618.205 67.0164 623.905 67.0164C627.685 67.0164 632.425 65.6364 634.585 62.0964C634.585 64.1964 635.065 65.8164 635.545 66.2964H641.485ZM634.525 53.8164C634.525 59.8764 629.245 62.2164 625.105 62.2164C621.745 62.2164 619.705 60.5964 619.705 57.5964C619.705 54.0564 622.945 52.4964 626.245 52.0764C629.785 51.6564 633.505 51.1164 634.525 50.0364V53.8164Z" fill="#452E66"/>
<path d="M645.547 22.8564V66.2964H651.667V22.8564H645.547Z" fill="#452E66"/>
<path d="M668.638 66.2964H675.238V23.4564H668.638V66.2964Z" fill="#452E66"/>
<path d="M694.021 33.9564C685.621 33.9564 679.681 40.4964 679.681 50.5164C679.681 60.4764 685.621 67.0164 694.021 67.0164C698.521 67.0164 702.181 65.1564 703.861 62.2164H704.101V66.2964H709.921V22.8564H703.801V38.3364H703.561C701.881 35.6964 698.401 33.9564 694.021 33.9564ZM695.101 62.0964C689.461 62.0964 685.921 57.6564 685.921 50.5164C685.921 43.3164 689.461 38.8764 695.101 38.8764C700.621 38.8764 704.221 43.3164 704.221 50.5164C704.221 57.6564 700.621 62.0964 695.101 62.0964Z" fill="#452E66"/>
<path d="M737.122 56.3364C736.342 58.6164 734.181 62.0964 728.721 62.0964C723.441 62.0964 720.201 57.7164 720.021 51.9564H743.482C744.322 40.6164 737.842 33.9564 728.661 33.9564C719.601 33.9564 713.781 40.5564 713.781 50.5764C713.781 60.4164 719.781 67.0764 728.721 67.0764C738.021 67.0764 741.862 61.6764 743.302 57.1164L737.122 56.3364ZM728.661 38.8764C734.061 38.8764 736.822 42.8964 737.302 47.2764H720.141C720.621 42.8964 723.321 38.8764 728.661 38.8764Z" fill="#452E66"/>
<path d="M753.493 38.8164V34.6764H747.673V66.2964H753.793V48.8964C753.793 42.4164 757.633 39.0564 761.653 39.0564C766.213 39.0564 768.673 41.2164 768.673 47.1564V66.2964H774.793V45.2964C774.793 37.3164 769.333 33.9564 763.573 33.9564C759.673 33.9564 756.133 35.3364 753.733 38.8164H753.493Z" fill="#452E66"/>
<path d="M792.212 61.1364C789.812 61.1364 788.672 60.7764 788.672 57.8364V39.2364H795.572V34.6764H788.672V25.6764H782.552V34.6764H777.332V39.2364H782.552V59.4564C782.552 65.0964 785.132 66.4165 790.712 66.4165C792.272 66.4165 794.552 66.3564 795.212 66.2964V61.0764C794.372 61.1364 792.932 61.1364 792.212 61.1364Z" fill="#452E66"/>
<path d="M799.178 22.8564V29.5164H805.358V22.8564H799.178ZM799.238 34.6764V66.2964H805.358V34.6764H799.238Z" fill="#452E66"/>
<path d="M823.384 61.1364C820.984 61.1364 819.844 60.7764 819.844 57.8364V39.2364H826.744V34.6764H819.844V25.6764H813.724V34.6764H808.504V39.2364H813.724V59.4564C813.724 65.0964 816.304 66.4165 821.884 66.4165C823.444 66.4165 825.724 66.3564 826.384 66.2964V61.0764C825.544 61.1364 824.104 61.1364 823.384 61.1364Z" fill="#452E66"/>
<path d="M858.49 34.6764H851.95L843.55 58.6764H843.31L834.37 34.6764H827.77L840.49 65.9364L839.95 67.0764C838.21 71.3364 837.01 72.7765 833.77 72.7765C831.97 72.7765 831.31 72.5964 830.83 72.5364V77.8764C831.67 77.9964 832.87 78.0564 834.61 78.0564C839.35 78.0564 842.65 76.6164 846.55 66.2964L858.49 34.6764Z" fill="#452E66"/>
<path d="M139.455 118.956C130.095 118.956 124.095 125.496 124.095 135.516C124.095 145.476 130.095 152.016 139.455 152.016C148.695 152.016 154.755 145.476 154.755 135.516C154.755 125.496 148.695 118.956 139.455 118.956ZM139.455 147.096C133.815 147.096 130.335 142.656 130.335 135.516C130.335 128.316 133.815 123.876 139.455 123.876C144.975 123.876 148.515 128.316 148.515 135.516C148.515 142.656 144.975 147.096 139.455 147.096Z" fill="#452E66"/>
<path d="M164.743 123.816V119.676H158.923V151.296H165.043V133.896C165.043 127.416 168.883 124.056 172.903 124.056C177.463 124.056 179.923 126.216 179.923 132.156V151.296H186.043V130.296C186.043 122.316 180.583 118.956 174.823 118.956C170.923 118.956 167.383 120.336 164.983 123.816H164.743Z" fill="#452E66"/>
<path d="M215.122 146.136C212.722 146.136 211.582 145.776 211.582 142.836V124.236H218.482V119.676H211.582V110.676H205.462V119.676H200.242V124.236H205.462V144.456C205.462 150.096 208.042 151.416 213.622 151.416C215.182 151.416 217.462 151.356 218.122 151.296V146.076C217.282 146.136 215.842 146.136 215.122 146.136Z" fill="#452E66"/>
<path d="M228.148 123.816V107.856H222.028V151.296H228.148V134.496C228.148 128.016 232.108 124.056 236.008 124.056C240.568 124.056 243.028 126.216 243.028 132.156V151.296H249.148V130.296C249.148 122.316 243.688 118.956 238.108 118.956C234.328 118.956 230.848 120.336 228.388 123.816H228.148Z" fill="#452E66"/>
<path d="M276.282 141.336C275.502 143.616 273.342 147.096 267.882 147.096C262.602 147.096 259.362 142.716 259.182 136.956H282.642C283.482 125.616 277.002 118.956 267.822 118.956C258.762 118.956 252.942 125.556 252.942 135.576C252.942 145.416 258.942 152.076 267.882 152.076C277.182 152.076 281.022 146.676 282.462 142.116L276.282 141.336ZM267.822 123.876C273.222 123.876 275.982 127.896 276.462 132.276H259.302C259.782 127.896 262.482 123.876 267.822 123.876Z" fill="#452E66"/>
<path d="M305.099 126.516V114.036H328.259V108.456H298.499V151.296H328.259V145.596H305.099V131.976H327.299V126.516H305.099Z" fill="#452E66"/>
<path d="M338.473 123.816V119.676H332.653V151.296H338.773V133.896C338.773 127.416 342.613 124.056 346.633 124.056C351.193 124.056 353.653 126.216 353.653 132.156V151.296H359.773V130.296C359.773 122.316 354.313 118.956 348.553 118.956C344.653 118.956 341.113 120.336 338.713 123.816H338.473Z" fill="#452E66"/>
<path d="M386.907 141.336C386.127 143.616 383.967 147.096 378.507 147.096C373.227 147.096 369.987 142.716 369.807 136.956H393.267C394.107 125.616 387.627 118.956 378.447 118.956C369.387 118.956 363.567 125.556 363.567 135.576C363.567 145.416 369.567 152.076 378.507 152.076C387.807 152.076 391.647 146.676 393.087 142.116L386.907 141.336ZM378.447 123.876C383.847 123.876 386.607 127.896 387.087 132.276H369.927C370.407 127.896 373.107 123.876 378.447 123.876Z" fill="#452E66"/>
<path d="M403.278 119.676H397.458V151.296H403.578V134.496C403.578 127.416 407.418 124.896 412.638 124.896C413.778 124.896 414.918 125.016 415.698 125.136V119.256C414.978 119.076 413.898 118.956 412.938 118.956C408.378 118.956 405.078 121.416 403.518 124.476H403.278V119.676Z" fill="#452E66"/>
<path d="M447.407 119.676H441.587V123.336H441.347C439.667 120.576 436.187 118.956 431.807 118.956C423.587 118.956 417.767 125.076 417.767 134.316C417.767 143.556 423.587 149.616 431.807 149.616C436.067 149.616 439.367 148.056 441.047 145.656H441.287V148.836C441.287 155.376 438.107 158.076 432.647 158.076C428.327 158.076 425.327 156.456 424.127 151.836L418.247 153.036C420.227 160.176 425.867 163.056 432.647 163.056C440.867 163.056 447.407 159.216 447.407 149.136V119.676ZM432.887 144.816C427.427 144.816 424.007 140.496 424.007 134.316C424.007 128.136 427.427 123.876 432.887 123.876C438.227 123.876 441.707 128.136 441.707 134.316C441.707 140.496 438.227 144.816 432.887 144.816Z" fill="#452E66"/>
<path d="M480.443 119.676H473.903L465.503 143.676H465.263L456.323 119.676H449.723L462.443 150.936L461.903 152.076C460.163 156.336 458.963 157.776 455.723 157.776C453.923 157.776 453.263 157.596 452.783 157.536V162.876C453.623 162.996 454.823 163.056 456.563 163.056C461.303 163.056 464.603 161.616 468.503 151.296L480.443 119.676Z" fill="#452E66"/>
<path d="M527.25 151.296H534.63L545.67 108.456H538.83L530.91 142.656H530.67L522.51 108.456H515.25L507.15 142.656H506.91L499.05 108.456H492.21L503.19 151.296H510.75L518.85 117.996H519.09L527.25 151.296Z" fill="#452E66"/>
<path d="M568.372 141.336C567.592 143.616 565.431 147.096 559.971 147.096C554.691 147.096 551.451 142.716 551.271 136.956H574.732C575.572 125.616 569.092 118.956 559.911 118.956C550.851 118.956 545.031 125.556 545.031 135.576C545.031 145.416 551.031 152.076 559.971 152.076C569.271 152.076 573.112 146.676 574.552 142.116L568.372 141.336ZM559.911 123.876C565.311 123.876 568.072 127.896 568.552 132.276H551.391C551.871 127.896 554.571 123.876 559.911 123.876Z" fill="#452E66"/>
<path d="M594.823 118.956C590.383 118.956 586.963 120.696 585.283 123.336H585.043V107.856H578.923V151.296H584.743V147.216H584.983C586.663 150.156 590.263 152.076 594.823 152.076C603.163 152.076 609.163 145.476 609.163 135.516C609.163 125.556 603.163 118.956 594.823 118.956ZM593.743 147.096C588.223 147.096 584.623 142.656 584.623 135.516C584.623 128.316 588.223 123.876 593.743 123.876C599.383 123.876 602.923 128.316 602.923 135.516C602.923 142.656 599.383 147.096 593.743 147.096Z" fill="#452E66"/>
<path d="M656.363 136.416C655.103 141.756 651.443 146.736 644.303 146.736C636.023 146.736 630.863 140.496 630.863 129.816C630.863 119.316 636.023 113.076 644.303 113.076C650.243 113.076 654.143 116.676 655.763 120.876L662.183 119.436C660.203 114.036 654.263 107.556 644.303 107.556C632.363 107.556 624.143 116.076 624.143 129.816C624.143 143.736 632.363 152.256 644.303 152.256C655.463 152.256 661.463 144.396 662.963 137.436L656.363 136.416Z" fill="#452E66"/>
<path d="M673.05 123.816V107.856H666.93V151.296H673.05V134.496C673.05 128.016 677.01 124.056 680.91 124.056C685.47 124.056 687.93 126.216 687.93 132.156V151.296H694.05V130.296C694.05 122.316 688.59 118.956 683.01 118.956C679.23 118.956 675.75 120.336 673.29 123.816H673.05Z" fill="#452E66"/>
<path d="M725.684 151.296C724.904 149.856 724.844 148.056 724.844 144.516V128.616C724.844 123.276 721.484 118.956 712.304 118.956C705.524 118.956 700.244 122.316 698.864 128.016L704.444 129.276C705.584 125.556 708.824 123.936 712.064 123.936C716.864 123.936 718.724 125.916 718.724 128.736C718.724 130.716 717.164 131.796 711.104 132.396C702.644 133.236 697.604 135.756 697.604 142.596C697.604 148.416 702.404 152.016 708.104 152.016C711.884 152.016 716.624 150.636 718.784 147.096C718.784 149.196 719.264 150.816 719.744 151.296H725.684ZM718.724 138.816C718.724 144.876 713.444 147.216 709.304 147.216C705.944 147.216 703.904 145.596 703.904 142.596C703.904 139.056 707.144 137.496 710.444 137.076C713.984 136.656 717.704 136.116 718.724 135.036V138.816Z" fill="#452E66"/>
<path d="M729.686 107.856V114.516H735.866V107.856H729.686ZM729.746 119.676V151.296H735.866V119.676H729.746Z" fill="#452E66"/>
<path d="M746.872 123.816V119.676H741.052V151.296H747.172V133.896C747.172 127.416 751.011 124.056 755.031 124.056C759.591 124.056 762.052 126.216 762.052 132.156V151.296H768.172V130.296C768.172 122.316 762.711 118.956 756.951 118.956C753.051 118.956 749.512 120.336 747.112 123.816H746.872Z" fill="#452E66"/>
<defs>
<radialGradient id="paint0_angular_772:1650" cx="0" cy="0" r="1" gradientUnits="userSpaceOnUse" gradientTransform="translate(373.359 -62.4597) scale(677.625 1563.71)">
<stop stop-color="#EBB9F2"/>
<stop offset="0.541667" stop-color="#F6AAAA"/>
<stop offset="1" stop-color="#A566FF"/>
</radialGradient>
</defs>
</svg>
