<svg width="138" height="77" viewBox="0 0 138 77" fill="none" xmlns="http://www.w3.org/2000/svg">
<rect width="84" height="25" rx="12.5" fill="#F3D882"/>
<path d="M20.776 12.6082V13.5282H17.952V15.0162H20.912V16.0002H16.752V10.2882H20.912V11.2402H17.952V12.6082H20.776Z" fill="#452E66"/>
<path d="M22.3123 13.2402H24.7843V14.2082H22.3123V13.2402Z" fill="#452E66"/>
<path d="M32.3134 16.0002H31.1854V11.7762H31.1534L29.7614 16.0002H28.8654L27.4734 11.7762H27.4414V16.0002H26.3454V10.2882H28.0974L29.3134 14.2242H29.3454L30.5614 10.2882H32.3134V16.0002Z" fill="#452E66"/>
<path d="M36.3468 10.1602C36.9015 10.1602 37.3895 10.2802 37.8108 10.5202C38.2375 10.7548 38.5682 11.0988 38.8028 11.5522C39.0375 12.0002 39.1548 12.5308 39.1548 13.1442C39.1548 13.7575 39.0375 14.2908 38.8028 14.7442C38.5682 15.1922 38.2375 15.5362 37.8108 15.7762C37.3895 16.0108 36.9015 16.1282 36.3468 16.1282C35.7975 16.1282 35.3095 16.0108 34.8828 15.7762C34.4615 15.5362 34.1308 15.1922 33.8908 14.7442C33.6562 14.2908 33.5388 13.7575 33.5388 13.1442C33.5388 12.5308 33.6562 12.0002 33.8908 11.5522C34.1308 11.0988 34.4615 10.7548 34.8828 10.5202C35.3095 10.2802 35.7975 10.1602 36.3468 10.1602ZM36.3468 15.1602C36.8268 15.1602 37.2108 14.9895 37.4988 14.6482C37.7868 14.3015 37.9308 13.8002 37.9308 13.1442C37.9308 12.4882 37.7868 11.9895 37.4988 11.6482C37.2108 11.3015 36.8268 11.1282 36.3468 11.1282C35.8668 11.1282 35.4828 11.3015 35.1948 11.6482C34.9068 11.9895 34.7628 12.4882 34.7628 13.1442C34.7628 13.8002 34.9068 14.3015 35.1948 14.6482C35.4828 14.9895 35.8668 15.1602 36.3468 15.1602Z" fill="#452E66"/>
<path d="M43.1361 10.2882C43.7015 10.2882 44.1415 10.4295 44.4561 10.7122C44.7761 10.9895 44.9361 11.3628 44.9361 11.8322C44.9361 12.0935 44.8748 12.3202 44.7521 12.5122C44.6295 12.6988 44.4508 12.8455 44.2161 12.9522V12.9842C44.5041 13.0962 44.7281 13.2642 44.8881 13.4882C45.0481 13.7122 45.1281 13.9895 45.1281 14.3202C45.1281 14.8428 44.9628 15.2535 44.6321 15.5522C44.3015 15.8508 43.8401 16.0002 43.2481 16.0002H40.3841V10.2882H43.1361ZM42.9041 12.6482C43.1761 12.6482 43.3815 12.5868 43.5201 12.4642C43.6641 12.3362 43.7361 12.1602 43.7361 11.9362C43.7361 11.7068 43.6641 11.5308 43.5201 11.4082C43.3761 11.2802 43.1708 11.2162 42.9041 11.2162H41.5841V12.6482H42.9041ZM43.0081 15.0482C43.3015 15.0482 43.5228 14.9815 43.6721 14.8482C43.8268 14.7095 43.9041 14.5175 43.9041 14.2722C43.9041 14.0268 43.8268 13.8375 43.6721 13.7042C43.5228 13.5655 43.3015 13.4962 43.0081 13.4962H41.5841V15.0482H43.0081Z" fill="#452E66"/>
<path d="M46.3176 10.2882H47.5176V16.0002H46.3176V10.2882Z" fill="#452E66"/>
<path d="M48.9854 10.2882H50.1854V14.9922H53.1934V16.0002H48.9854V10.2882Z" fill="#452E66"/>
<path d="M54.3798 10.2882H55.5798V16.0002H54.3798V10.2882Z" fill="#452E66"/>
<path d="M59.7516 11.2962V16.0002H58.5516V11.2962H56.7036V10.2882H61.5996V11.2962H59.7516Z" fill="#452E66"/>
<path d="M65.587 13.8162V16.0002H64.387V13.8162L62.331 10.2882H63.643L64.995 12.7842L66.355 10.2882H67.643L65.587 13.8162Z" fill="#452E66"/>
<g opacity="0.8">
<path d="M2.91 41.16C3.63667 41.16 4.2 41.3433 4.6 41.71C5 42.0767 5.2 42.5967 5.2 43.27C5.2 43.9433 5 44.4633 4.6 44.83C4.2 45.1967 3.63667 45.38 2.91 45.38H0.7V48.3H0V41.16H2.91ZM2.8 44.78C3.34667 44.78 3.76333 44.6567 4.05 44.41C4.33667 44.1567 4.48 43.7767 4.48 43.27C4.48 42.7633 4.33667 42.3867 4.05 42.14C3.76333 41.8867 3.34667 41.76 2.8 41.76H0.7V44.78H2.8Z" fill="white"/>
<path d="M6.72211 44.06H6.75211C6.88544 43.7067 7.10544 43.4333 7.41211 43.24C7.72544 43.04 8.08544 42.94 8.49211 42.94C8.65211 42.94 8.79211 42.9533 8.91211 42.98V43.61C8.77211 43.59 8.61878 43.58 8.45211 43.58C7.94544 43.58 7.53544 43.7567 7.22211 44.11C6.91544 44.4567 6.76211 44.9667 6.76211 45.64V48.3H6.10211V43.06H6.72211V44.06Z" fill="white"/>
<path d="M11.7196 42.94C12.1996 42.94 12.6229 43.0533 12.9896 43.28C13.3563 43.5 13.6396 43.8167 13.8396 44.23C14.0463 44.6433 14.1496 45.1267 14.1496 45.68C14.1496 46.2333 14.0463 46.7167 13.8396 47.13C13.6396 47.5433 13.3563 47.8633 12.9896 48.09C12.6229 48.31 12.1996 48.42 11.7196 48.42C11.2463 48.42 10.8263 48.31 10.4596 48.09C10.0929 47.8633 9.80628 47.5433 9.59961 47.13C9.39961 46.7167 9.29961 46.2333 9.29961 45.68C9.29961 45.1267 9.39961 44.6433 9.59961 44.23C9.80628 43.8167 10.0929 43.5 10.4596 43.28C10.8263 43.0533 11.2463 42.94 11.7196 42.94ZM11.7196 47.86C12.2396 47.86 12.6596 47.6667 12.9796 47.28C13.3063 46.8867 13.4696 46.3533 13.4696 45.68C13.4696 45.0067 13.3063 44.4733 12.9796 44.08C12.6596 43.6867 12.2396 43.49 11.7196 43.49C11.1996 43.49 10.7796 43.6867 10.4596 44.08C10.1396 44.4733 9.97961 45.0067 9.97961 45.68C9.97961 46.3533 10.1396 46.8867 10.4596 47.28C10.7796 47.6667 11.1996 47.86 11.7196 47.86Z" fill="white"/>
<path d="M14.726 49.68C14.926 49.68 15.0627 49.63 15.136 49.53C15.216 49.4367 15.256 49.26 15.256 49V43.06H15.906V49.1C15.906 49.54 15.8193 49.8433 15.646 50.01C15.4793 50.1767 15.1927 50.26 14.786 50.26C14.6193 50.26 14.4293 50.2533 14.216 50.24V49.66C14.3627 49.6733 14.5327 49.68 14.726 49.68ZM15.936 41.06V41.87H15.226V41.06H15.936Z" fill="white"/>
<path d="M21.528 46.84C21.3746 47.2867 21.1113 47.6633 20.738 47.97C20.3646 48.27 19.858 48.42 19.218 48.42C18.758 48.42 18.3513 48.31 17.998 48.09C17.6446 47.8633 17.368 47.5433 17.168 47.13C16.968 46.71 16.868 46.2233 16.868 45.67C16.868 45.1233 16.968 44.6433 17.168 44.23C17.368 43.8167 17.6446 43.5 17.998 43.28C18.3513 43.0533 18.758 42.94 19.218 42.94C19.6846 42.94 20.098 43.0567 20.458 43.29C20.8246 43.5167 21.1046 43.85 21.298 44.29C21.498 44.7233 21.588 45.24 21.568 45.84H17.548C17.5613 46.44 17.7213 46.9267 18.028 47.3C18.3346 47.6733 18.7313 47.86 19.218 47.86C19.6713 47.86 20.0313 47.7533 20.298 47.54C20.5646 47.32 20.7513 47.0567 20.858 46.75L21.528 46.84ZM19.218 43.49C18.7446 43.49 18.358 43.6633 18.058 44.01C17.758 44.35 17.5913 44.7767 17.558 45.29H20.888C20.8546 44.7767 20.6846 44.35 20.378 44.01C20.078 43.6633 19.6913 43.49 19.218 43.49Z" fill="white"/>
<path d="M24.6777 47.86C25.451 47.86 25.9877 47.44 26.2877 46.6L26.9677 46.7C26.821 47.16 26.561 47.5633 26.1877 47.91C25.821 48.25 25.3177 48.42 24.6777 48.42C24.211 48.42 23.7977 48.31 23.4377 48.09C23.0777 47.8633 22.7977 47.5433 22.5977 47.13C22.3977 46.7167 22.2977 46.2333 22.2977 45.68C22.2977 45.1267 22.3977 44.6433 22.5977 44.23C22.8043 43.8167 23.0877 43.5 23.4477 43.28C23.8143 43.0533 24.231 42.94 24.6977 42.94C25.3043 42.94 25.7743 43.09 26.1077 43.39C26.4477 43.69 26.691 44.0033 26.8377 44.33L26.2077 44.54C26.0677 44.2667 25.8877 44.0233 25.6677 43.81C25.4543 43.5967 25.131 43.49 24.6977 43.49C24.1777 43.49 23.761 43.6867 23.4477 44.08C23.1343 44.4733 22.9777 45.0067 22.9777 45.68C22.9777 46.3533 23.131 46.8867 23.4377 47.28C23.751 47.6667 24.1643 47.86 24.6777 47.86Z" fill="white"/>
<path d="M29.5916 47.74C29.8182 47.74 30.0049 47.7333 30.1516 47.72V48.3C29.9516 48.3133 29.7449 48.32 29.5316 48.32C29.2049 48.32 28.9516 48.2867 28.7716 48.22C28.5916 48.1467 28.4616 48.0267 28.3816 47.86C28.3016 47.6933 28.2616 47.46 28.2616 47.16V43.58H27.3716V43.06H28.2616V41.53H28.9116V43.06H30.1816V43.58H28.9116V47.02C28.9116 47.3 28.9582 47.49 29.0516 47.59C29.1449 47.69 29.3249 47.74 29.5916 47.74Z" fill="white"/>
<path d="M32.0935 43.45V44.37H31.2035V43.45H32.0935ZM32.0935 47.39V48.3H31.2035V47.39H32.0935Z" fill="white"/>
<path d="M49.7014 44.06V45.21H46.1714V47.07H49.8814V48.3H44.6714V41.16H49.8814V42.35H46.1714V44.06H49.7014Z" fill="white"/>
<path d="M50.7008 44.85H53.7908V46.06H50.7008V44.85Z" fill="white"/>
<path d="M62.2 48.3H60.78V43.02H60.74L59 48.3H57.89L56.15 43.02H56.11V48.3H54.73V41.16H56.93L58.45 46.08H58.49L60.01 41.16H62.2V48.3Z" fill="white"/>
<path d="M65.5219 42.88C66.0686 42.88 66.5453 42.9933 66.952 43.22C67.3586 43.4467 67.672 43.77 67.892 44.19C68.112 44.61 68.2219 45.1 68.2219 45.66C68.2219 46.22 68.112 46.71 67.892 47.13C67.672 47.5433 67.3586 47.8633 66.952 48.09C66.5453 48.31 66.0686 48.42 65.5219 48.42C64.9686 48.42 64.4853 48.31 64.072 48.09C63.6653 47.8633 63.352 47.5433 63.132 47.13C62.9186 46.71 62.812 46.22 62.812 45.66C62.812 45.0933 62.9186 44.6033 63.132 44.19C63.352 43.77 63.6653 43.4467 64.072 43.22C64.4853 42.9933 64.9686 42.88 65.5219 42.88ZM65.5219 47.37C65.9153 47.37 66.2253 47.2233 66.452 46.93C66.6786 46.6367 66.7919 46.2133 66.7919 45.66C66.7919 45.1 66.6786 44.6733 66.452 44.38C66.2253 44.08 65.9153 43.93 65.5219 43.93C65.1219 43.93 64.8053 44.08 64.572 44.38C64.3453 44.6733 64.2319 45.1 64.2319 45.66C64.2319 46.2133 64.3453 46.6367 64.572 46.93C64.8053 47.2233 65.1219 47.37 65.5219 47.37Z" fill="white"/>
<path d="M71.8118 42.88C72.2518 42.88 72.6451 42.9933 72.9918 43.22C73.3451 43.4467 73.6218 43.7733 73.8218 44.2C74.0218 44.62 74.1218 45.1067 74.1218 45.66C74.1218 46.2133 74.0218 46.7 73.8218 47.12C73.6218 47.5333 73.3451 47.8533 72.9918 48.08C72.6385 48.3067 72.2385 48.42 71.7918 48.42C71.4251 48.42 71.0985 48.3533 70.8118 48.22C70.5318 48.0867 70.3185 47.8833 70.1718 47.61H70.1318V48.3H68.7918V41.06H70.1918V43.62H70.2318C70.3785 43.3867 70.5885 43.2067 70.8618 43.08C71.1351 42.9467 71.4518 42.88 71.8118 42.88ZM71.4018 47.35C71.8018 47.35 72.1151 47.2067 72.3418 46.92C72.5751 46.6267 72.6918 46.2067 72.6918 45.66C72.6918 45.1067 72.5751 44.6833 72.3418 44.39C72.1151 44.0967 71.8018 43.95 71.4018 43.95C71.0018 43.95 70.6851 44.1 70.4518 44.4C70.2251 44.6933 70.1118 45.1133 70.1118 45.66C70.1118 46.2067 70.2251 46.6267 70.4518 46.92C70.6851 47.2067 71.0018 47.35 71.4018 47.35Z" fill="white"/>
<path d="M76.11 43.01V48.3H74.71V43.01H76.11ZM76.11 41.06V42.26H74.71V41.06H76.11Z" fill="white"/>
<path d="M78.2291 41.06V48.3H76.8291V41.06H78.2291Z" fill="white"/>
<path d="M80.3483 43.01V48.3H78.9483V43.01H80.3483ZM80.3483 41.06V42.26H78.9483V41.06H80.3483Z" fill="white"/>
<path d="M84.0774 47.21V48.3C83.8907 48.3133 83.5841 48.32 83.1574 48.32C82.7774 48.32 82.4774 48.2867 82.2574 48.22C82.0374 48.1467 81.8741 48.02 81.7674 47.84C81.6608 47.6533 81.6074 47.3867 81.6074 47.04V43.95H80.7674V43.01H81.6074V41.53H83.0074V43.01H84.1174V43.95H83.0074V46.69C83.0074 46.91 83.0508 47.0533 83.1374 47.12C83.2308 47.18 83.3941 47.21 83.6274 47.21H84.0774Z" fill="white"/>
<path d="M87.8021 48.3C87.6021 48.8533 87.3921 49.2733 87.1721 49.56C86.9588 49.8467 86.7288 50.0333 86.4821 50.12C86.2421 50.2133 85.9521 50.26 85.6121 50.26C85.2521 50.26 84.9721 50.25 84.7721 50.23V49.07C84.9588 49.0967 85.1654 49.11 85.3921 49.11C85.6321 49.11 85.8121 49.06 85.9321 48.96C86.0588 48.86 86.1754 48.68 86.2821 48.42L86.3421 48.25L84.2221 43.01H85.7421L87.0321 46.63H87.0721L88.2421 43.01H89.7321L87.8021 48.3Z" fill="white"/>
<path d="M97.5954 48.3V47.46C97.0821 48.1267 96.3487 48.46 95.3954 48.46C94.7087 48.46 94.0987 48.3067 93.5654 48C93.0387 47.6933 92.6254 47.26 92.3254 46.7C92.0254 46.1333 91.8754 45.4733 91.8754 44.72C91.8754 43.9667 92.0221 43.31 92.3154 42.75C92.6154 42.19 93.0321 41.76 93.5654 41.46C94.0987 41.1533 94.7087 41 95.3954 41C96.1887 41 96.8687 41.2 97.4354 41.6C98.0087 42 98.4087 42.54 98.6354 43.22L97.1254 43.4C96.9721 43.02 96.7487 42.7267 96.4554 42.52C96.1621 42.3133 95.8087 42.21 95.3954 42.21C94.7954 42.21 94.3121 42.4267 93.9454 42.86C93.5854 43.2933 93.4054 43.9133 93.4054 44.72C93.4054 45.54 93.5854 46.1667 93.9454 46.6C94.3054 47.0333 94.7887 47.25 95.3954 47.25C95.8954 47.25 96.3121 47.1033 96.6454 46.81C96.9854 46.5167 97.1954 46.14 97.2754 45.68H95.5154V44.55H98.6654V48.3H97.5954Z" fill="white"/>
<path d="M100.727 43.82H100.767C100.914 43.5333 101.121 43.3067 101.387 43.14C101.661 42.9667 101.984 42.88 102.357 42.88C102.491 42.88 102.614 42.8967 102.727 42.93V44.23C102.687 44.23 102.607 44.2233 102.487 44.21C102.374 44.1967 102.271 44.19 102.177 44.19C101.251 44.19 100.787 44.67 100.787 45.63V48.3H99.3875V43.01H100.727V43.82Z" fill="white"/>
<path d="M105.707 42.88C106.254 42.88 106.731 42.9933 107.137 43.22C107.544 43.4467 107.857 43.77 108.077 44.19C108.297 44.61 108.407 45.1 108.407 45.66C108.407 46.22 108.297 46.71 108.077 47.13C107.857 47.5433 107.544 47.8633 107.137 48.09C106.731 48.31 106.254 48.42 105.707 48.42C105.154 48.42 104.671 48.31 104.257 48.09C103.851 47.8633 103.537 47.5433 103.317 47.13C103.104 46.71 102.997 46.22 102.997 45.66C102.997 45.0933 103.104 44.6033 103.317 44.19C103.537 43.77 103.851 43.4467 104.257 43.22C104.671 42.9933 105.154 42.88 105.707 42.88ZM105.707 47.37C106.101 47.37 106.411 47.2233 106.637 46.93C106.864 46.6367 106.977 46.2133 106.977 45.66C106.977 45.1 106.864 44.6733 106.637 44.38C106.411 44.08 106.101 43.93 105.707 43.93C105.307 43.93 104.991 44.08 104.757 44.38C104.531 44.6733 104.417 45.1 104.417 45.66C104.417 46.2133 104.531 46.6367 104.757 46.93C104.991 47.2233 105.307 47.37 105.707 47.37Z" fill="white"/>
<path d="M112.507 47.6C112.121 48.1467 111.564 48.42 110.837 48.42C110.297 48.42 109.851 48.26 109.497 47.94C109.151 47.6133 108.977 47.13 108.977 46.49V43.01H110.377V46.13C110.377 46.5433 110.457 46.84 110.617 47.02C110.784 47.2 111.034 47.29 111.367 47.29C111.681 47.29 111.944 47.17 112.157 46.93C112.377 46.6833 112.487 46.3367 112.487 45.89V43.01H113.887V48.3H112.547V47.6H112.507Z" fill="white"/>
<path d="M117.583 48.42C117.217 48.42 116.9 48.3567 116.633 48.23C116.367 48.1033 116.157 47.92 116.003 47.68H115.963V50.14H114.563V43.01H115.893V43.7H115.933C116.093 43.42 116.313 43.2133 116.593 43.08C116.873 42.9467 117.197 42.88 117.563 42.88C118.01 42.88 118.41 42.9933 118.763 43.22C119.117 43.4467 119.393 43.77 119.593 44.19C119.793 44.61 119.893 45.0967 119.893 45.65C119.893 46.2033 119.793 46.69 119.593 47.11C119.393 47.53 119.117 47.8533 118.763 48.08C118.417 48.3067 118.023 48.42 117.583 48.42ZM117.173 43.95C116.773 43.95 116.457 44.0967 116.223 44.39C115.997 44.6833 115.883 45.1033 115.883 45.65C115.883 46.1967 115.997 46.6167 116.223 46.91C116.457 47.2033 116.773 47.35 117.173 47.35C117.573 47.35 117.887 47.2067 118.113 46.92C118.347 46.6267 118.463 46.2033 118.463 45.65C118.463 45.1033 118.347 44.6833 118.113 44.39C117.887 44.0967 117.573 43.95 117.173 43.95Z" fill="white"/>
<path d="M2.91 54.4198C3.63667 54.4198 4.2 54.6031 4.6 54.9698C5 55.3364 5.2 55.8564 5.2 56.5298C5.2 57.2031 5 57.7231 4.6 58.0898C4.2 58.4564 3.63667 58.6398 2.91 58.6398H0.7V61.5598H0V54.4198H2.91ZM2.8 58.0398C3.34667 58.0398 3.76333 57.9164 4.05 57.6698C4.33667 57.4164 4.48 57.0364 4.48 56.5298C4.48 56.0231 4.33667 55.6464 4.05 55.3998C3.76333 55.1464 3.34667 55.0198 2.8 55.0198H0.7V58.0398H2.8Z" fill="white"/>
<path d="M9.39492 61.5598C9.32826 61.4731 9.28492 61.2098 9.26492 60.7698C9.05826 61.0964 8.77492 61.3298 8.41492 61.4698C8.05492 61.6098 7.68492 61.6798 7.30492 61.6798C7.00492 61.6798 6.73159 61.6164 6.48492 61.4898C6.23826 61.3631 6.04159 61.1831 5.89492 60.9498C5.75492 60.7164 5.68492 60.4498 5.68492 60.1498C5.68492 59.6098 5.87492 59.2231 6.25492 58.9898C6.64159 58.7564 7.18492 58.5931 7.88492 58.4998C8.27826 58.4464 8.56826 58.3964 8.75492 58.3498C8.94159 58.2964 9.06826 58.2331 9.13492 58.1598C9.20826 58.0864 9.24492 57.9798 9.24492 57.8398C9.24492 57.4998 9.13826 57.2331 8.92492 57.0398C8.71159 56.8464 8.38492 56.7498 7.94492 56.7498C7.60492 56.7498 7.30492 56.8331 7.04492 56.9998C6.79159 57.1598 6.60826 57.4364 6.49492 57.8298L5.88492 57.6798C6.01159 57.1798 6.26159 56.8098 6.63492 56.5698C7.01492 56.3231 7.46159 56.1998 7.97492 56.1998C8.62826 56.1998 9.11159 56.3464 9.42492 56.6398C9.74492 56.9264 9.90492 57.3198 9.90492 57.8198V60.2698C9.90492 60.6164 9.91159 60.8831 9.92492 61.0698C9.94492 61.2498 9.98492 61.4131 10.0449 61.5598H9.39492ZM9.24492 58.6498C9.17159 58.7364 9.03159 58.8031 8.82492 58.8498C8.61826 58.8898 8.28492 58.9464 7.82492 59.0198C7.43826 59.0731 7.09826 59.1864 6.80492 59.3598C6.51159 59.5331 6.36492 59.7964 6.36492 60.1498C6.36492 60.4498 6.46159 60.6864 6.65492 60.8598C6.84826 61.0331 7.10826 61.1198 7.43492 61.1198C7.89492 61.1198 8.31159 60.9931 8.68492 60.7398C9.05826 60.4798 9.24492 60.0464 9.24492 59.4398V58.6498Z" fill="white"/>
<path d="M11.683 57.3198H11.713C11.8464 56.9664 12.0664 56.6931 12.373 56.4998C12.6864 56.2998 13.0464 56.1998 13.453 56.1998C13.613 56.1998 13.753 56.2131 13.873 56.2398V56.8698C13.733 56.8498 13.5797 56.8398 13.413 56.8398C12.9064 56.8398 12.4964 57.0164 12.183 57.3698C11.8764 57.7164 11.723 58.2264 11.723 58.8998V61.5598H11.063V56.3198H11.683V57.3198Z" fill="white"/>
<path d="M16.5349 60.9998C16.7616 60.9998 16.9483 60.9931 17.0949 60.9798V61.5598C16.8949 61.5731 16.6883 61.5798 16.4749 61.5798C16.1483 61.5798 15.8949 61.5464 15.7149 61.4798C15.5349 61.4064 15.4049 61.2864 15.3249 61.1198C15.2449 60.9531 15.2049 60.7198 15.2049 60.4198V56.8398H14.3149V56.3198H15.2049V54.7898H15.8549V56.3198H17.1249V56.8398H15.8549V60.2798C15.8549 60.5598 15.9016 60.7498 15.9949 60.8498C16.0883 60.9498 16.2683 60.9998 16.5349 60.9998Z" fill="white"/>
<path d="M18.6369 57.1198C18.7702 56.8598 18.9902 56.6431 19.2969 56.4698C19.6035 56.2898 19.9469 56.1998 20.3269 56.1998C20.8869 56.1998 21.3369 56.3598 21.6769 56.6798C22.0169 56.9998 22.1869 57.4531 22.1869 58.0398V61.5598H21.5369V58.3198C21.5369 57.7798 21.4302 57.3864 21.2169 57.1398C21.0102 56.8864 20.6735 56.7598 20.2069 56.7598C19.7669 56.7598 19.3969 56.9131 19.0969 57.2198C18.7969 57.5198 18.6469 57.9831 18.6469 58.6098V61.5598H17.9869V56.3198H18.6069V57.1198H18.6369Z" fill="white"/>
<path d="M27.7682 60.0998C27.6149 60.5464 27.3515 60.9231 26.9782 61.2298C26.6049 61.5298 26.0982 61.6798 25.4582 61.6798C24.9982 61.6798 24.5915 61.5698 24.2382 61.3498C23.8849 61.1231 23.6082 60.8031 23.4082 60.3898C23.2082 59.9698 23.1082 59.4831 23.1082 58.9298C23.1082 58.3831 23.2082 57.9031 23.4082 57.4898C23.6082 57.0764 23.8849 56.7598 24.2382 56.5398C24.5915 56.3131 24.9982 56.1998 25.4582 56.1998C25.9249 56.1998 26.3382 56.3164 26.6982 56.5498C27.0649 56.7764 27.3449 57.1098 27.5382 57.5498C27.7382 57.9831 27.8282 58.4998 27.8082 59.0998H23.7882C23.8015 59.6998 23.9615 60.1864 24.2682 60.5598C24.5749 60.9331 24.9715 61.1198 25.4582 61.1198C25.9115 61.1198 26.2715 61.0131 26.5382 60.7998C26.8049 60.5798 26.9915 60.3164 27.0982 60.0098L27.7682 60.0998ZM25.4582 56.7498C24.9849 56.7498 24.5982 56.9231 24.2982 57.2698C23.9982 57.6098 23.8315 58.0364 23.7982 58.5498H27.1282C27.0949 58.0364 26.9249 57.6098 26.6182 57.2698C26.3182 56.9231 25.9315 56.7498 25.4582 56.7498Z" fill="white"/>
<path d="M29.3979 57.3198H29.4279C29.5612 56.9664 29.7812 56.6931 30.0879 56.4998C30.4012 56.2998 30.7612 56.1998 31.1679 56.1998C31.3279 56.1998 31.4679 56.2131 31.5879 56.2398V56.8698C31.4479 56.8498 31.2946 56.8398 31.1279 56.8398C30.6212 56.8398 30.2112 57.0164 29.8979 57.3698C29.5912 57.7164 29.4379 58.2264 29.4379 58.8998V61.5598H28.7779V56.3198H29.3979V57.3198Z" fill="white"/>
<path d="M33.4998 56.7098V57.6298H32.6098V56.7098H33.4998ZM33.4998 60.6498V61.5598H32.6098V60.6498H33.4998Z" fill="white"/>
<path d="M49.2034 57.3198V58.4698H45.6734V60.3298H49.3834V61.5598H44.1734V54.4198H49.3834V55.6098H45.6734V57.3198H49.2034Z" fill="white"/>
<path d="M51.4127 54.3198V61.5598H50.0127V54.3198H51.4127Z" fill="white"/>
<path d="M53.5319 56.2698V61.5598H52.1319V56.2698H53.5319ZM53.5319 54.3198V55.5198H52.1319V54.3198H53.5319Z" fill="white"/>
<path d="M57.731 61.5598C57.6843 61.5064 57.6477 61.4164 57.621 61.2898C57.5944 61.1564 57.581 60.9998 57.581 60.8198C57.4343 61.0931 57.1977 61.3064 56.871 61.4598C56.551 61.6064 56.2043 61.6798 55.831 61.6798C55.5177 61.6798 55.2243 61.6164 54.951 61.4898C54.6843 61.3631 54.4677 61.1831 54.301 60.9498C54.141 60.7098 54.061 60.4298 54.061 60.1098C54.061 59.5698 54.2443 59.1698 54.611 58.9098C54.9777 58.6498 55.5277 58.4764 56.261 58.3898C56.7677 58.3231 57.111 58.2498 57.291 58.1698C57.4777 58.0831 57.571 57.9564 57.571 57.7898C57.571 57.5898 57.4943 57.4331 57.341 57.3198C57.1877 57.1998 56.9577 57.1398 56.651 57.1398C56.3977 57.1398 56.171 57.2064 55.971 57.3398C55.7777 57.4731 55.641 57.6698 55.561 57.9298L54.271 57.7298C54.3843 57.2364 54.6577 56.8498 55.091 56.5698C55.5243 56.2831 56.0543 56.1398 56.681 56.1398C57.4477 56.1398 58.021 56.2931 58.401 56.5998C58.781 56.9064 58.971 57.3231 58.971 57.8498V60.4998C58.971 60.8064 58.9777 61.0364 58.991 61.1898C59.011 61.3364 59.051 61.4598 59.111 61.5598H57.731ZM57.571 58.9498C57.491 59.0164 57.3543 59.0731 57.161 59.1198C56.9743 59.1598 56.7277 59.1998 56.421 59.2398C56.141 59.2864 55.9143 59.3764 55.741 59.5098C55.5743 59.6364 55.491 59.8164 55.491 60.0498C55.491 60.2631 55.5577 60.4298 55.691 60.5498C55.831 60.6631 56.021 60.7198 56.261 60.7198C56.4677 60.7198 56.671 60.6764 56.871 60.5898C57.071 60.5031 57.2377 60.3698 57.371 60.1898C57.5044 60.0031 57.571 59.7731 57.571 59.4998V58.9498Z" fill="white"/>
<path d="M67.1755 61.5598V60.7198C66.6621 61.3864 65.9288 61.7198 64.9755 61.7198C64.2888 61.7198 63.6788 61.5664 63.1455 61.2598C62.6188 60.9531 62.2055 60.5198 61.9055 59.9598C61.6055 59.3931 61.4555 58.7331 61.4555 57.9798C61.4555 57.2264 61.6021 56.5698 61.8955 56.0098C62.1955 55.4498 62.6121 55.0198 63.1455 54.7198C63.6788 54.4131 64.2888 54.2598 64.9755 54.2598C65.7688 54.2598 66.4488 54.4598 67.0155 54.8598C67.5888 55.2598 67.9888 55.7998 68.2155 56.4798L66.7055 56.6598C66.5521 56.2798 66.3288 55.9864 66.0355 55.7798C65.7421 55.5731 65.3888 55.4698 64.9755 55.4698C64.3755 55.4698 63.8921 55.6864 63.5255 56.1198C63.1655 56.5531 62.9855 57.1731 62.9855 57.9798C62.9855 58.7998 63.1655 59.4264 63.5255 59.8598C63.8855 60.2931 64.3688 60.5098 64.9755 60.5098C65.4755 60.5098 65.8921 60.3631 66.2255 60.0698C66.5655 59.7764 66.7755 59.3998 66.8555 58.9398H65.0955V57.8098H68.2455V61.5598H67.1755Z" fill="white"/>
<path d="M70.3076 57.0798H70.3476C70.4942 56.7931 70.7009 56.5664 70.9676 56.3998C71.2409 56.2264 71.5642 56.1398 71.9376 56.1398C72.0709 56.1398 72.1942 56.1564 72.3076 56.1898V57.4898C72.2676 57.4898 72.1876 57.4831 72.0676 57.4698C71.9542 57.4564 71.8509 57.4498 71.7576 57.4498C70.8309 57.4498 70.3676 57.9298 70.3676 58.8898V61.5598H68.9676V56.2698H70.3076V57.0798Z" fill="white"/>
<path d="M75.2876 56.1398C75.8342 56.1398 76.3109 56.2531 76.7176 56.4798C77.1242 56.7064 77.4376 57.0298 77.6576 57.4498C77.8776 57.8698 77.9876 58.3598 77.9876 58.9198C77.9876 59.4798 77.8776 59.9698 77.6576 60.3898C77.4376 60.8031 77.1242 61.1231 76.7176 61.3498C76.3109 61.5698 75.8342 61.6798 75.2876 61.6798C74.7342 61.6798 74.2509 61.5698 73.8376 61.3498C73.4309 61.1231 73.1176 60.8031 72.8976 60.3898C72.6842 59.9698 72.5776 59.4798 72.5776 58.9198C72.5776 58.3531 72.6842 57.8631 72.8976 57.4498C73.1176 57.0298 73.4309 56.7064 73.8376 56.4798C74.2509 56.2531 74.7342 56.1398 75.2876 56.1398ZM75.2876 60.6298C75.6809 60.6298 75.9909 60.4831 76.2176 60.1898C76.4442 59.8964 76.5576 59.4731 76.5576 58.9198C76.5576 58.3598 76.4442 57.9331 76.2176 57.6398C75.9909 57.3398 75.6809 57.1898 75.2876 57.1898C74.8876 57.1898 74.5709 57.3398 74.3376 57.6398C74.1109 57.9331 73.9976 58.3598 73.9976 58.9198C73.9976 59.4731 74.1109 59.8964 74.3376 60.1898C74.5709 60.4831 74.8876 60.6298 75.2876 60.6298Z" fill="white"/>
<path d="M82.0874 60.8598C81.7008 61.4064 81.1441 61.6798 80.4174 61.6798C79.8774 61.6798 79.4307 61.5198 79.0774 61.1998C78.7307 60.8731 78.5574 60.3898 78.5574 59.7498V56.2698H79.9574V59.3898C79.9574 59.8031 80.0374 60.0998 80.1974 60.2798C80.3641 60.4598 80.6141 60.5498 80.9474 60.5498C81.2608 60.5498 81.5241 60.4298 81.7374 60.1898C81.9574 59.9431 82.0674 59.5964 82.0674 59.1498V56.2698H83.4674V61.5598H82.1274V60.8598H82.0874Z" fill="white"/>
<path d="M87.1634 61.6798C86.7967 61.6798 86.48 61.6164 86.2134 61.4898C85.9467 61.3631 85.7367 61.1798 85.5834 60.9398H85.5434V63.3998H84.1434V56.2698H85.4734V56.9598H85.5134C85.6734 56.6798 85.8934 56.4731 86.1734 56.3398C86.4534 56.2064 86.7767 56.1398 87.1434 56.1398C87.59 56.1398 87.99 56.2531 88.3434 56.4798C88.6967 56.7064 88.9734 57.0298 89.1734 57.4498C89.3734 57.8698 89.4734 58.3564 89.4734 58.9098C89.4734 59.4631 89.3734 59.9498 89.1734 60.3698C88.9734 60.7898 88.6967 61.1131 88.3434 61.3398C87.9967 61.5664 87.6034 61.6798 87.1634 61.6798ZM86.7534 57.2098C86.3534 57.2098 86.0367 57.3564 85.8034 57.6498C85.5767 57.9431 85.4634 58.3631 85.4634 58.9098C85.4634 59.4564 85.5767 59.8764 85.8034 60.1698C86.0367 60.4631 86.3534 60.6098 86.7534 60.6098C87.1534 60.6098 87.4667 60.4664 87.6934 60.1798C87.9267 59.8864 88.0434 59.4631 88.0434 58.9098C88.0434 58.3631 87.9267 57.9431 87.6934 57.6498C87.4667 57.3564 87.1534 57.2098 86.7534 57.2098Z" fill="white"/>
<path d="M6.15 72.5004C6.05 72.9071 5.87333 73.2904 5.62 73.6504C5.36667 74.0037 5.03333 74.2904 4.62 74.5104C4.21333 74.7304 3.74333 74.8404 3.21 74.8404C2.59 74.8404 2.03667 74.6904 1.55 74.3904C1.06333 74.0904 0.683333 73.6604 0.41 73.1004C0.136667 72.5404 0 71.8804 0 71.1204C0 70.3671 0.136667 69.7104 0.41 69.1504C0.683333 68.5904 1.06333 68.1637 1.55 67.8704C2.03667 67.5704 2.59 67.4204 3.21 67.4204C3.75 67.4204 4.21333 67.5271 4.6 67.7404C4.99333 67.9471 5.3 68.1904 5.52 68.4704C5.74667 68.7504 5.91333 69.0204 6.02 69.2804L5.32 69.4404C5.15333 69.0471 4.89 68.7137 4.53 68.4404C4.17 68.1604 3.73 68.0204 3.21 68.0204C2.71667 68.0204 2.28333 68.1437 1.91 68.3904C1.53667 68.6371 1.24333 68.9937 1.03 69.4604C0.823333 69.9271 0.72 70.4804 0.72 71.1204C0.72 71.7671 0.823333 72.3271 1.03 72.8004C1.24333 73.2671 1.53667 73.6237 1.91 73.8704C2.28333 74.1171 2.71667 74.2404 3.21 74.2404C3.78333 74.2404 4.26333 74.0671 4.65 73.7204C5.03667 73.3671 5.3 72.9237 5.44 72.3904L6.15 72.5004Z" fill="white"/>
<path d="M9.31219 69.3404C9.79219 69.3404 10.2155 69.4537 10.5822 69.6804C10.9489 69.9004 11.2322 70.2171 11.4322 70.6304C11.6389 71.0437 11.7422 71.5271 11.7422 72.0804C11.7422 72.6337 11.6389 73.1171 11.4322 73.5304C11.2322 73.9437 10.9489 74.2637 10.5822 74.4904C10.2155 74.7104 9.79219 74.8204 9.31219 74.8204C8.83885 74.8204 8.41885 74.7104 8.05219 74.4904C7.68552 74.2637 7.39885 73.9437 7.19219 73.5304C6.99219 73.1171 6.89219 72.6337 6.89219 72.0804C6.89219 71.5271 6.99219 71.0437 7.19219 70.6304C7.39885 70.2171 7.68552 69.9004 8.05219 69.6804C8.41885 69.4537 8.83885 69.3404 9.31219 69.3404ZM9.31219 74.2604C9.83219 74.2604 10.2522 74.0671 10.5722 73.6804C10.8989 73.2871 11.0622 72.7537 11.0622 72.0804C11.0622 71.4071 10.8989 70.8737 10.5722 70.4804C10.2522 70.0871 9.83219 69.8904 9.31219 69.8904C8.79219 69.8904 8.37219 70.0871 8.05219 70.4804C7.73219 70.8737 7.57219 71.4071 7.57219 72.0804C7.57219 72.7537 7.73219 73.2871 8.05219 73.6804C8.37219 74.0671 8.79219 74.2604 9.31219 74.2604Z" fill="white"/>
<path d="M16.2586 73.9004C16.1186 74.1604 15.8953 74.3804 15.5886 74.5604C15.2886 74.7337 14.9453 74.8204 14.5586 74.8204C13.9986 74.8204 13.5486 74.6604 13.2086 74.3404C12.8686 74.0204 12.6986 73.5637 12.6986 72.9704V69.4604H13.3586V72.7004C13.3586 73.2404 13.4619 73.6371 13.6686 73.8904C13.8819 74.1371 14.2186 74.2604 14.6786 74.2604C15.1186 74.2604 15.4886 74.1071 15.7886 73.8004C16.0953 73.4937 16.2486 73.0271 16.2486 72.4004V69.4604H16.8986V74.7004H16.2786V73.9004H16.2586Z" fill="white"/>
<path d="M18.7099 70.2604C18.8433 70.0004 19.0633 69.7837 19.3699 69.6104C19.6766 69.4304 20.0199 69.3404 20.3999 69.3404C20.9599 69.3404 21.4099 69.5004 21.7499 69.8204C22.0899 70.1404 22.2599 70.5937 22.2599 71.1804V74.7004H21.6099V71.4604C21.6099 70.9204 21.5033 70.5271 21.2899 70.2804C21.0833 70.0271 20.7466 69.9004 20.2799 69.9004C19.8399 69.9004 19.4699 70.0537 19.1699 70.3604C18.8699 70.6604 18.7199 71.1237 18.7199 71.7504V74.7004H18.0599V69.4604H18.6799V70.2604H18.7099Z" fill="white"/>
<path d="M25.1431 74.1404C25.3698 74.1404 25.5565 74.1337 25.7031 74.1204V74.7004C25.5031 74.7137 25.2965 74.7204 25.0831 74.7204C24.7565 74.7204 24.5031 74.6871 24.3231 74.6204C24.1431 74.5471 24.0131 74.4271 23.9331 74.2604C23.8531 74.0937 23.8131 73.8604 23.8131 73.5604V69.9804H22.9231V69.4604H23.8131V67.9304H24.4631V69.4604H25.7331V69.9804H24.4631V73.4204C24.4631 73.7004 24.5098 73.8904 24.6031 73.9904C24.6965 74.0904 24.8765 74.1404 25.1431 74.1404Z" fill="white"/>
<path d="M27.2151 70.4604H27.2451C27.3784 70.1071 27.5984 69.8337 27.9051 69.6404C28.2184 69.4404 28.5784 69.3404 28.9851 69.3404C29.1451 69.3404 29.2851 69.3537 29.4051 69.3804V70.0104C29.2651 69.9904 29.1117 69.9804 28.9451 69.9804C28.4384 69.9804 28.0284 70.1571 27.7151 70.5104C27.4084 70.8571 27.2551 71.3671 27.2551 72.0404V74.7004H26.5951V69.4604H27.2151V70.4604Z" fill="white"/>
<path d="M32.4858 74.7004C32.2591 75.2671 32.0491 75.6904 31.8558 75.9704C31.6691 76.2571 31.4858 76.4437 31.3058 76.5304C31.1324 76.6171 30.9291 76.6604 30.6958 76.6604C30.5424 76.6604 30.4224 76.6504 30.3358 76.6304C30.2491 76.6171 30.1991 76.6104 30.1858 76.6104V76.0304C30.1991 76.0304 30.2424 76.0371 30.3158 76.0504C30.3891 76.0704 30.4824 76.0804 30.5958 76.0804C30.7624 76.0804 30.9024 76.0537 31.0158 76.0004C31.1358 75.9471 31.2524 75.8404 31.3658 75.6804C31.4791 75.5204 31.5991 75.2804 31.7258 74.9604L31.8458 74.6604L29.7158 69.4604H30.4558L32.1558 73.8704H32.1858L33.8458 69.4604H34.5658L32.4858 74.7004Z" fill="white"/>
<path d="M36.2974 69.8504V70.7704H35.4074V69.8504H36.2974ZM36.2974 73.7904V74.7004H35.4074V73.7904H36.2974Z" fill="white"/>
<path d="M46.3824 67.5604C47.0691 67.5604 47.6024 67.7371 47.9824 68.0904C48.3624 68.4437 48.5524 68.9171 48.5524 69.5104C48.5524 69.8371 48.4791 70.1204 48.3324 70.3604C48.1858 70.5937 47.9624 70.7704 47.6624 70.8904V70.9304C48.4158 71.2037 48.7924 71.7737 48.7924 72.6404C48.7924 73.2737 48.5924 73.7771 48.1924 74.1504C47.7924 74.5171 47.2291 74.7004 46.5024 74.7004H43.2324V67.5604H46.3824ZM46.2224 70.5904C46.6158 70.5904 46.9158 70.5004 47.1224 70.3204C47.3291 70.1404 47.4324 69.8804 47.4324 69.5404C47.4324 69.2004 47.3291 68.9404 47.1224 68.7604C46.9158 68.5737 46.6158 68.4804 46.2224 68.4804H44.3324V70.5904H46.2224ZM46.3424 73.7604C46.7758 73.7604 47.1058 73.6604 47.3324 73.4604C47.5591 73.2604 47.6724 72.9737 47.6724 72.6004C47.6724 72.2337 47.5591 71.9504 47.3324 71.7504C47.1058 71.5504 46.7758 71.4504 46.3424 71.4504H44.3324V73.7604H46.3424Z" fill="white"/>
<path d="M54.2317 73.1604C54.0851 73.6204 53.8184 74.0137 53.4317 74.3404C53.0451 74.6604 52.4984 74.8204 51.7917 74.8204C51.3051 74.8204 50.8717 74.7071 50.4917 74.4804C50.1184 74.2471 49.8284 73.9237 49.6217 73.5104C49.4151 73.0904 49.3117 72.6104 49.3117 72.0704C49.3117 71.5237 49.4117 71.0404 49.6117 70.6204C49.8184 70.2004 50.1051 69.8771 50.4717 69.6504C50.8451 69.4171 51.2817 69.3004 51.7817 69.3004C52.2684 69.3004 52.6984 69.4104 53.0717 69.6304C53.4517 69.8437 53.7451 70.1537 53.9517 70.5604C54.1651 70.9604 54.2717 71.4371 54.2717 71.9904C54.2717 72.1304 54.2684 72.2371 54.2617 72.3104H50.3417C50.3551 72.8037 50.4917 73.2071 50.7517 73.5204C51.0184 73.8337 51.3651 73.9904 51.7917 73.9904C52.1984 73.9904 52.5117 73.8971 52.7317 73.7104C52.9517 73.5171 53.1084 73.2937 53.2017 73.0404L54.2317 73.1604ZM51.7817 70.1304C51.3684 70.1304 51.0384 70.2671 50.7917 70.5404C50.5517 70.8071 50.4084 71.1371 50.3617 71.5304H53.2317C53.1851 71.1304 53.0384 70.7971 52.7917 70.5304C52.5451 70.2637 52.2084 70.1304 51.7817 70.1304Z" fill="white"/>
<path d="M55.9902 67.4604V74.7004H54.9702V67.4604H55.9902Z" fill="white"/>
<path d="M61.6445 74.3304C61.6445 75.1304 61.4179 75.7171 60.9645 76.0904C60.5112 76.4704 59.9145 76.6604 59.1745 76.6604C58.5812 76.6604 58.0712 76.5237 57.6445 76.2504C57.2245 75.9771 56.9345 75.5571 56.7745 74.9904L57.7545 74.7804C57.8545 75.1537 58.0212 75.4204 58.2545 75.5804C58.4945 75.7404 58.8012 75.8204 59.1745 75.8204C60.1412 75.8204 60.6245 75.3071 60.6245 74.2804V73.7504H60.5845C60.4379 73.9571 60.2312 74.1204 59.9645 74.2404C59.6979 74.3604 59.3912 74.4204 59.0445 74.4204C58.5912 74.4204 58.1845 74.3137 57.8245 74.1004C57.4712 73.8871 57.1945 73.5871 56.9945 73.2004C56.7945 72.8137 56.6945 72.3671 56.6945 71.8604C56.6945 71.3604 56.7945 70.9171 56.9945 70.5304C57.1945 70.1371 57.4712 69.8337 57.8245 69.6204C58.1845 69.4071 58.5912 69.3004 59.0445 69.3004C59.4045 69.3004 59.7245 69.3671 60.0045 69.5004C60.2845 69.6271 60.4945 69.8037 60.6345 70.0304H60.6745V69.4204H61.6445V74.3304ZM59.2145 73.6104C59.6612 73.6104 60.0179 73.4504 60.2845 73.1304C60.5512 72.8104 60.6845 72.3871 60.6845 71.8604C60.6845 71.3404 60.5512 70.9237 60.2845 70.6104C60.0179 70.2904 59.6612 70.1304 59.2145 70.1304C58.7679 70.1304 58.4079 70.2904 58.1345 70.6104C57.8679 70.9237 57.7345 71.3404 57.7345 71.8604C57.7345 72.3804 57.8679 72.8037 58.1345 73.1304C58.4079 73.4504 58.7679 73.6104 59.2145 73.6104Z" fill="white"/>
<path d="M63.4805 69.4204V74.7004H62.4605V69.4204H63.4805ZM63.4805 67.4604V68.5704H62.4605V67.4604H63.4805Z" fill="white"/>
<path d="M67.8548 74.0004C67.4814 74.5471 66.9348 74.8204 66.2148 74.8204C65.6881 74.8204 65.2448 74.6604 64.8848 74.3404C64.5248 74.0204 64.3448 73.5471 64.3448 72.9204V69.4204H65.3648V72.6104C65.3648 73.0971 65.4614 73.4437 65.6548 73.6504C65.8481 73.8571 66.1414 73.9604 66.5348 73.9604C66.7681 73.9604 66.9814 73.8971 67.1748 73.7704C67.3748 73.6437 67.5348 73.4571 67.6548 73.2104C67.7814 72.9637 67.8448 72.6671 67.8448 72.3204V69.4204H68.8648V74.7004H67.8948V74.0004H67.8548Z" fill="white"/>
<path d="M75.517 69.3004C75.8237 69.3004 76.1104 69.3704 76.377 69.5104C76.6504 69.6437 76.8704 69.8537 77.037 70.1404C77.2037 70.4271 77.287 70.7804 77.287 71.2004V74.7004H76.267V71.5104C76.267 71.0304 76.177 70.6871 75.997 70.4804C75.817 70.2671 75.547 70.1604 75.187 70.1604C74.9737 70.1604 74.777 70.2237 74.597 70.3504C74.417 70.4771 74.2704 70.6637 74.157 70.9104C74.0437 71.1504 73.987 71.4437 73.987 71.7904V74.7004H72.967V71.5104C72.967 71.0304 72.877 70.6871 72.697 70.4804C72.517 70.2671 72.247 70.1604 71.887 70.1604C71.6737 70.1604 71.477 70.2237 71.297 70.3504C71.117 70.4771 70.9704 70.6637 70.857 70.9104C70.7437 71.1571 70.687 71.4537 70.687 71.8004V74.7004H69.667V69.4204H70.637V70.1304H70.677C70.8704 69.8437 71.097 69.6337 71.357 69.5004C71.6237 69.3671 71.9104 69.3004 72.217 69.3004C72.5437 69.3004 72.8437 69.3737 73.117 69.5204C73.3904 69.6604 73.6004 69.8771 73.747 70.1704C73.987 69.8771 74.247 69.6604 74.527 69.5204C74.8137 69.3737 75.1437 69.3004 75.517 69.3004Z" fill="white"/>
<path d="M83.4693 74.7004C83.4226 74.6537 83.3826 74.5671 83.3493 74.4404C83.3226 74.3137 83.3093 74.1671 83.3093 74.0004C83.1493 74.2737 82.8993 74.4804 82.5593 74.6204C82.226 74.7537 81.8826 74.8204 81.5293 74.8204C81.216 74.8204 80.926 74.7571 80.6593 74.6304C80.3926 74.4971 80.1793 74.3137 80.0193 74.0804C79.866 73.8404 79.7893 73.5604 79.7893 73.2404C79.7893 72.7004 79.976 72.3037 80.3493 72.0504C80.7226 71.7904 81.286 71.6204 82.0393 71.5404C82.526 71.4937 82.856 71.4237 83.0293 71.3304C83.2093 71.2371 83.2993 71.1037 83.2993 70.9304C83.2993 70.4037 82.9293 70.1404 82.1893 70.1404C81.9026 70.1404 81.6426 70.2171 81.4093 70.3704C81.176 70.5171 81.0126 70.7371 80.9193 71.0304L79.9893 70.8104C80.1026 70.3437 80.3626 69.9771 80.7693 69.7104C81.176 69.4371 81.6626 69.3004 82.2293 69.3004C82.9493 69.3004 83.476 69.4504 83.8093 69.7504C84.1493 70.0437 84.3193 70.4304 84.3193 70.9104V73.5604C84.3193 73.8937 84.326 74.1404 84.3393 74.3004C84.3593 74.4537 84.3993 74.5871 84.4593 74.7004H83.4693ZM83.2993 71.9804C83.226 72.0604 83.0693 72.1271 82.8293 72.1804C82.596 72.2271 82.296 72.2737 81.9293 72.3204C81.616 72.3604 81.3526 72.4571 81.1393 72.6104C80.9326 72.7571 80.8293 72.9671 80.8293 73.2404C80.8293 73.4937 80.9093 73.6871 81.0693 73.8204C81.2293 73.9471 81.4493 74.0104 81.7293 74.0104C81.9826 74.0104 82.2293 73.9637 82.4693 73.8704C82.7093 73.7704 82.906 73.6171 83.0593 73.4104C83.2193 73.1971 83.2993 72.9337 83.2993 72.6204V71.9804Z" fill="white"/>
<path d="M86.1263 70.1204C86.3196 69.8404 86.5563 69.6337 86.8363 69.5004C87.1163 69.3671 87.4263 69.3004 87.7663 69.3004C88.0996 69.3004 88.4062 69.3704 88.6862 69.5104C88.9729 69.6437 89.2029 69.8537 89.3763 70.1404C89.5496 70.4204 89.6363 70.7737 89.6363 71.2004V74.7004H88.6162V71.5104C88.6162 71.0237 88.5196 70.6771 88.3262 70.4704C88.1329 70.2637 87.8396 70.1604 87.4463 70.1604C87.2196 70.1604 87.0063 70.2237 86.8063 70.3504C86.6063 70.4771 86.4429 70.6637 86.3163 70.9104C86.1963 71.1571 86.1363 71.4537 86.1363 71.8004V74.7004H85.1162V69.4204H86.0863V70.1204H86.1263Z" fill="white"/>
<path d="M92.6785 69.3004C93.0385 69.3004 93.3552 69.3671 93.6285 69.5004C93.9085 69.6337 94.1218 69.8137 94.2685 70.0404H94.3085V67.4604H95.3285V74.7004H94.3585V74.0204H94.3185C94.1785 74.2671 93.9619 74.4637 93.6685 74.6104C93.3819 74.7504 93.0519 74.8204 92.6785 74.8204C92.2119 74.8204 91.7952 74.7071 91.4285 74.4804C91.0685 74.2471 90.7852 73.9237 90.5785 73.5104C90.3785 73.0904 90.2785 72.6071 90.2785 72.0604C90.2785 71.5137 90.3785 71.0337 90.5785 70.6204C90.7852 70.2004 91.0685 69.8771 91.4285 69.6504C91.7952 69.4171 92.2119 69.3004 92.6785 69.3004ZM92.8485 73.9904C93.3152 73.9904 93.6852 73.8204 93.9585 73.4804C94.2319 73.1337 94.3685 72.6604 94.3685 72.0604C94.3685 71.4604 94.2319 70.9904 93.9585 70.6504C93.6852 70.3037 93.3152 70.1304 92.8485 70.1304C92.3819 70.1304 92.0085 70.3037 91.7285 70.6504C91.4552 70.9904 91.3185 71.4604 91.3185 72.0604C91.3185 72.6604 91.4552 73.1337 91.7285 73.4804C92.0085 73.8204 92.3819 73.9904 92.8485 73.9904Z" fill="white"/>
<path d="M103.536 74.7004V73.8304C103.07 74.5171 102.336 74.8604 101.336 74.8604C100.676 74.8604 100.086 74.7037 99.5662 74.3904C99.0528 74.0771 98.6528 73.6371 98.3662 73.0704C98.0795 72.5037 97.9362 71.8537 97.9362 71.1204C97.9362 70.3871 98.0795 69.7404 98.3662 69.1804C98.6528 68.6137 99.0528 68.1771 99.5662 67.8704C100.08 67.5571 100.67 67.4004 101.336 67.4004C102.07 67.4004 102.71 67.5904 103.256 67.9704C103.81 68.3504 104.203 68.8737 104.436 69.5404L103.336 69.6704C103.156 69.2304 102.896 68.8971 102.556 68.6704C102.216 68.4371 101.81 68.3204 101.336 68.3204C100.876 68.3204 100.473 68.4371 100.126 68.6704C99.7862 68.8971 99.5228 69.2204 99.3362 69.6404C99.1495 70.0604 99.0562 70.5537 99.0562 71.1204C99.0562 71.6937 99.1495 72.1937 99.3362 72.6204C99.5228 73.0404 99.7862 73.3671 100.126 73.6004C100.473 73.8271 100.876 73.9404 101.336 73.9404C101.756 73.9404 102.123 73.8504 102.436 73.6704C102.756 73.4837 103 73.2437 103.166 72.9504C103.34 72.6504 103.426 72.3337 103.426 72.0004H101.466V71.0704H104.426V74.7004H103.536Z" fill="white"/>
<path d="M110.042 73.1604C109.896 73.6204 109.629 74.0137 109.242 74.3404C108.856 74.6604 108.309 74.8204 107.602 74.8204C107.116 74.8204 106.682 74.7071 106.302 74.4804C105.929 74.2471 105.639 73.9237 105.432 73.5104C105.226 73.0904 105.122 72.6104 105.122 72.0704C105.122 71.5237 105.222 71.0404 105.422 70.6204C105.629 70.2004 105.916 69.8771 106.282 69.6504C106.656 69.4171 107.092 69.3004 107.592 69.3004C108.079 69.3004 108.509 69.4104 108.882 69.6304C109.262 69.8437 109.556 70.1537 109.762 70.5604C109.976 70.9604 110.082 71.4371 110.082 71.9904C110.082 72.1304 110.079 72.2371 110.072 72.3104H106.152C106.166 72.8037 106.302 73.2071 106.562 73.5204C106.829 73.8337 107.176 73.9904 107.602 73.9904C108.009 73.9904 108.322 73.8971 108.542 73.7104C108.762 73.5171 108.919 73.2937 109.012 73.0404L110.042 73.1604ZM107.592 70.1304C107.179 70.1304 106.849 70.2671 106.602 70.5404C106.362 70.8071 106.219 71.1371 106.172 71.5304H109.042C108.996 71.1304 108.849 70.7971 108.602 70.5304C108.356 70.2637 108.019 70.1304 107.592 70.1304Z" fill="white"/>
<path d="M111.731 70.2204H111.771C111.911 69.9537 112.117 69.7337 112.391 69.5604C112.664 69.3871 112.981 69.3004 113.341 69.3004C113.507 69.3004 113.664 69.3171 113.811 69.3504V70.3304C113.624 70.3037 113.451 70.2904 113.291 70.2904C112.831 70.2904 112.464 70.4204 112.191 70.6804C111.917 70.9337 111.781 71.3404 111.781 71.9004V74.7004H110.761V69.4204H111.731V70.2204Z" fill="white"/>
<path d="M120.185 69.3004C120.492 69.3004 120.778 69.3704 121.045 69.5104C121.318 69.6437 121.538 69.8537 121.705 70.1404C121.872 70.4271 121.955 70.7804 121.955 71.2004V74.7004H120.935V71.5104C120.935 71.0304 120.845 70.6871 120.665 70.4804C120.485 70.2671 120.215 70.1604 119.855 70.1604C119.642 70.1604 119.445 70.2237 119.265 70.3504C119.085 70.4771 118.938 70.6637 118.825 70.9104C118.712 71.1504 118.655 71.4437 118.655 71.7904V74.7004H117.635V71.5104C117.635 71.0304 117.545 70.6871 117.365 70.4804C117.185 70.2671 116.915 70.1604 116.555 70.1604C116.342 70.1604 116.145 70.2237 115.965 70.3504C115.785 70.4771 115.638 70.6637 115.525 70.9104C115.412 71.1571 115.355 71.4537 115.355 71.8004V74.7004H114.335V69.4204H115.305V70.1304H115.345C115.538 69.8437 115.765 69.6337 116.025 69.5004C116.292 69.3671 116.578 69.3004 116.885 69.3004C117.212 69.3004 117.512 69.3737 117.785 69.5204C118.058 69.6604 118.268 69.8771 118.415 70.1704C118.655 69.8771 118.915 69.6604 119.195 69.5204C119.482 69.3737 119.812 69.3004 120.185 69.3004Z" fill="white"/>
<path d="M126.233 74.7004C126.186 74.6537 126.146 74.5671 126.113 74.4404C126.086 74.3137 126.073 74.1671 126.073 74.0004C125.913 74.2737 125.663 74.4804 125.323 74.6204C124.99 74.7537 124.646 74.8204 124.293 74.8204C123.98 74.8204 123.69 74.7571 123.423 74.6304C123.156 74.4971 122.943 74.3137 122.783 74.0804C122.63 73.8404 122.553 73.5604 122.553 73.2404C122.553 72.7004 122.74 72.3037 123.113 72.0504C123.486 71.7904 124.05 71.6204 124.803 71.5404C125.29 71.4937 125.62 71.4237 125.793 71.3304C125.973 71.2371 126.063 71.1037 126.063 70.9304C126.063 70.4037 125.693 70.1404 124.953 70.1404C124.666 70.1404 124.406 70.2171 124.173 70.3704C123.94 70.5171 123.776 70.7371 123.683 71.0304L122.753 70.8104C122.866 70.3437 123.126 69.9771 123.533 69.7104C123.94 69.4371 124.426 69.3004 124.993 69.3004C125.713 69.3004 126.24 69.4504 126.573 69.7504C126.913 70.0437 127.083 70.4304 127.083 70.9104V73.5604C127.083 73.8937 127.09 74.1404 127.103 74.3004C127.123 74.4537 127.163 74.5871 127.223 74.7004H126.233ZM126.063 71.9804C125.99 72.0604 125.833 72.1271 125.593 72.1804C125.36 72.2271 125.06 72.2737 124.693 72.3204C124.38 72.3604 124.116 72.4571 123.903 72.6104C123.696 72.7571 123.593 72.9671 123.593 73.2404C123.593 73.4937 123.673 73.6871 123.833 73.8204C123.993 73.9471 124.213 74.0104 124.493 74.0104C124.746 74.0104 124.993 73.9637 125.233 73.8704C125.473 73.7704 125.67 73.6171 125.823 73.4104C125.983 73.1971 126.063 72.9337 126.063 72.6204V71.9804Z" fill="white"/>
<path d="M128.89 70.1204C129.083 69.8404 129.32 69.6337 129.6 69.5004C129.88 69.3671 130.19 69.3004 130.53 69.3004C130.863 69.3004 131.17 69.3704 131.45 69.5104C131.737 69.6437 131.967 69.8537 132.14 70.1404C132.313 70.4204 132.4 70.7737 132.4 71.2004V74.7004H131.38V71.5104C131.38 71.0237 131.283 70.6771 131.09 70.4704C130.897 70.2637 130.603 70.1604 130.21 70.1604C129.983 70.1604 129.77 70.2237 129.57 70.3504C129.37 70.4771 129.207 70.6637 129.08 70.9104C128.96 71.1571 128.9 71.4537 128.9 71.8004V74.7004H127.88V69.4204H128.85V70.1204H128.89Z" fill="white"/>
<path d="M135.697 74.7004C135.491 75.2471 135.287 75.6604 135.087 75.9404C134.887 76.2271 134.681 76.4171 134.467 76.5104C134.254 76.6104 134.001 76.6604 133.707 76.6604C133.427 76.6604 133.221 76.6504 133.087 76.6304V75.7304C133.107 75.7304 133.154 75.7371 133.227 75.7504C133.307 75.7704 133.421 75.7804 133.567 75.7804C133.834 75.7804 134.034 75.7137 134.167 75.5804C134.301 75.4471 134.447 75.1971 134.607 74.8304L134.687 74.6304L132.567 69.4204H133.667L135.157 73.4204H135.197L136.597 69.4204H137.697L135.697 74.7004Z" fill="white"/>
</g>
</svg>
