<svg width="144" height="92" viewBox="0 0 144 92" fill="none" xmlns="http://www.w3.org/2000/svg">
<path d="M0.5 13.0781C0.5 6.17457 6.09644 0.578125 13 0.578125H72C78.9036 0.578125 84.5 6.17457 84.5 13.0781C84.5 19.9817 78.9036 25.5781 72 25.5781H13C6.09644 25.5781 0.5 19.9817 0.5 13.0781Z" fill="#F3D882"/>
<path d="M21.2764 13.1861V14.1061H18.4524V15.5941H21.4124V16.5781H17.2524V10.8661H21.4124V11.8181H18.4524V13.1861H21.2764ZM22.8127 13.8181H25.2847V14.7861H22.8127V13.8181ZM32.8138 16.5781H31.6858V12.3541H31.6538L30.2618 16.5781H29.3658L27.9738 12.3541H27.9418V16.5781H26.8458V10.8661H28.5978L29.8138 14.8021H29.8458L31.0618 10.8661H32.8138V16.5781ZM36.8473 10.7381C37.4019 10.7381 37.8899 10.8581 38.3113 11.0981C38.7379 11.3328 39.0686 11.6768 39.3033 12.1301C39.5379 12.5781 39.6553 13.1088 39.6553 13.7221C39.6553 14.3355 39.5379 14.8688 39.3033 15.3221C39.0686 15.7701 38.7379 16.1141 38.3113 16.3541C37.8899 16.5888 37.4019 16.7061 36.8473 16.7061C36.2979 16.7061 35.8099 16.5888 35.3833 16.3541C34.9619 16.1141 34.6313 15.7701 34.3913 15.3221C34.1566 14.8688 34.0393 14.3355 34.0393 13.7221C34.0393 13.1088 34.1566 12.5781 34.3913 12.1301C34.6313 11.6768 34.9619 11.3328 35.3833 11.0981C35.8099 10.8581 36.2979 10.7381 36.8473 10.7381ZM36.8473 15.7381C37.3273 15.7381 37.7113 15.5675 37.9993 15.2261C38.2873 14.8795 38.4313 14.3781 38.4313 13.7221C38.4313 13.0661 38.2873 12.5675 37.9993 12.2261C37.7113 11.8795 37.3273 11.7061 36.8473 11.7061C36.3673 11.7061 35.9833 11.8795 35.6953 12.2261C35.4073 12.5675 35.2633 13.0661 35.2633 13.7221C35.2633 14.3781 35.4073 14.8795 35.6953 15.2261C35.9833 15.5675 36.3673 15.7381 36.8473 15.7381ZM43.6366 10.8661C44.2019 10.8661 44.6419 11.0075 44.9566 11.2901C45.2766 11.5675 45.4366 11.9408 45.4366 12.4101C45.4366 12.6715 45.3753 12.8981 45.2526 13.0901C45.1299 13.2768 44.9513 13.4235 44.7166 13.5301V13.5621C45.0046 13.6741 45.2286 13.8421 45.3886 14.0661C45.5486 14.2901 45.6286 14.5675 45.6286 14.8981C45.6286 15.4208 45.4633 15.8315 45.1326 16.1301C44.8019 16.4288 44.3406 16.5781 43.7486 16.5781H40.8846V10.8661H43.6366ZM43.4046 13.2261C43.6766 13.2261 43.8819 13.1648 44.0206 13.0421C44.1646 12.9141 44.2366 12.7381 44.2366 12.5141C44.2366 12.2848 44.1646 12.1088 44.0206 11.9861C43.8766 11.8581 43.6713 11.7941 43.4046 11.7941H42.0846V13.2261H43.4046ZM43.5086 15.6261C43.8019 15.6261 44.0233 15.5595 44.1726 15.4261C44.3273 15.2875 44.4046 15.0955 44.4046 14.8501C44.4046 14.6048 44.3273 14.4155 44.1726 14.2821C44.0233 14.1435 43.8019 14.0741 43.5086 14.0741H42.0846V15.6261H43.5086ZM46.818 10.8661H48.018V16.5781H46.818V10.8661ZM49.4858 10.8661H50.6858V15.5701H53.6938V16.5781H49.4858V10.8661ZM54.8802 10.8661H56.0802V16.5781H54.8802V10.8661ZM60.252 11.8741V16.5781H59.052V11.8741H57.204V10.8661H62.1V11.8741H60.252ZM66.0875 14.3941V16.5781H64.8875V14.3941L62.8315 10.8661H64.1435L65.4955 13.3621L66.8555 10.8661H68.1435L66.0875 14.3941Z" fill="#452E66"/>
<g opacity="0.8">
<path d="M4.07 45.4381C4.79667 45.4381 5.36 45.6215 5.76 45.9881C6.16 46.3548 6.36 46.8748 6.36 47.5481C6.36 48.2215 6.16 48.7415 5.76 49.1081C5.36 49.4748 4.79667 49.6581 4.07 49.6581H1.86V52.5781H1.16V45.4381H4.07ZM3.96 49.0581C4.50667 49.0581 4.92333 48.9348 5.21 48.6881C5.49667 48.4348 5.64 48.0548 5.64 47.5481C5.64 47.0415 5.49667 46.6648 5.21 46.4181C4.92333 46.1648 4.50667 46.0381 3.96 46.0381H1.86V49.0581H3.96ZM7.88211 48.3381H7.91211C8.04544 47.9848 8.26544 47.7115 8.57211 47.5181C8.88544 47.3181 9.24544 47.2181 9.65211 47.2181C9.81211 47.2181 9.95211 47.2315 10.0721 47.2581V47.8881C9.93211 47.8681 9.77878 47.8581 9.61211 47.8581C9.10544 47.8581 8.69544 48.0348 8.38211 48.3881C8.07544 48.7348 7.92211 49.2448 7.92211 49.9181V52.5781H7.26211V47.3381H7.88211V48.3381ZM12.8796 47.2181C13.3596 47.2181 13.7829 47.3315 14.1496 47.5581C14.5163 47.7781 14.7996 48.0948 14.9996 48.5081C15.2063 48.9215 15.3096 49.4048 15.3096 49.9581C15.3096 50.5115 15.2063 50.9948 14.9996 51.4081C14.7996 51.8215 14.5163 52.1415 14.1496 52.3681C13.7829 52.5881 13.3596 52.6981 12.8796 52.6981C12.4063 52.6981 11.9863 52.5881 11.6196 52.3681C11.2529 52.1415 10.9663 51.8215 10.7596 51.4081C10.5596 50.9948 10.4596 50.5115 10.4596 49.9581C10.4596 49.4048 10.5596 48.9215 10.7596 48.5081C10.9663 48.0948 11.2529 47.7781 11.6196 47.5581C11.9863 47.3315 12.4063 47.2181 12.8796 47.2181ZM12.8796 52.1381C13.3996 52.1381 13.8196 51.9448 14.1396 51.5581C14.4663 51.1648 14.6296 50.6315 14.6296 49.9581C14.6296 49.2848 14.4663 48.7515 14.1396 48.3581C13.8196 47.9648 13.3996 47.7681 12.8796 47.7681C12.3596 47.7681 11.9396 47.9648 11.6196 48.3581C11.2996 48.7515 11.1396 49.2848 11.1396 49.9581C11.1396 50.6315 11.2996 51.1648 11.6196 51.5581C11.9396 51.9448 12.3596 52.1381 12.8796 52.1381ZM15.886 53.9581C16.086 53.9581 16.2227 53.9081 16.296 53.8081C16.376 53.7148 16.416 53.5381 16.416 53.2781V47.3381H17.066V53.3781C17.066 53.8181 16.9793 54.1215 16.806 54.2881C16.6393 54.4548 16.3527 54.5381 15.946 54.5381C15.7793 54.5381 15.5893 54.5315 15.376 54.5181V53.9381C15.5227 53.9515 15.6927 53.9581 15.886 53.9581ZM17.096 45.3381V46.1481H16.386V45.3381H17.096ZM22.688 51.1181C22.5346 51.5648 22.2713 51.9415 21.898 52.2481C21.5246 52.5481 21.018 52.6981 20.378 52.6981C19.918 52.6981 19.5113 52.5881 19.158 52.3681C18.8046 52.1415 18.528 51.8215 18.328 51.4081C18.128 50.9881 18.028 50.5015 18.028 49.9481C18.028 49.4015 18.128 48.9215 18.328 48.5081C18.528 48.0948 18.8046 47.7781 19.158 47.5581C19.5113 47.3315 19.918 47.2181 20.378 47.2181C20.8446 47.2181 21.258 47.3348 21.618 47.5681C21.9846 47.7948 22.2646 48.1281 22.458 48.5681C22.658 49.0015 22.748 49.5181 22.728 50.1181H18.708C18.7213 50.7181 18.8813 51.2048 19.188 51.5781C19.4946 51.9515 19.8913 52.1381 20.378 52.1381C20.8313 52.1381 21.1913 52.0315 21.458 51.8181C21.7246 51.5981 21.9113 51.3348 22.018 51.0281L22.688 51.1181ZM20.378 47.7681C19.9046 47.7681 19.518 47.9415 19.218 48.2881C18.918 48.6281 18.7513 49.0548 18.718 49.5681H22.048C22.0146 49.0548 21.8446 48.6281 21.538 48.2881C21.238 47.9415 20.8513 47.7681 20.378 47.7681ZM25.8377 52.1381C26.611 52.1381 27.1477 51.7181 27.4477 50.8781L28.1277 50.9781C27.981 51.4381 27.721 51.8415 27.3477 52.1881C26.981 52.5281 26.4777 52.6981 25.8377 52.6981C25.371 52.6981 24.9577 52.5881 24.5977 52.3681C24.2377 52.1415 23.9577 51.8215 23.7577 51.4081C23.5577 50.9948 23.4577 50.5115 23.4577 49.9581C23.4577 49.4048 23.5577 48.9215 23.7577 48.5081C23.9643 48.0948 24.2477 47.7781 24.6077 47.5581C24.9743 47.3315 25.391 47.2181 25.8577 47.2181C26.4643 47.2181 26.9343 47.3681 27.2677 47.6681C27.6077 47.9681 27.851 48.2815 27.9977 48.6081L27.3677 48.8181C27.2277 48.5448 27.0477 48.3015 26.8277 48.0881C26.6143 47.8748 26.291 47.7681 25.8577 47.7681C25.3377 47.7681 24.921 47.9648 24.6077 48.3581C24.2943 48.7515 24.1377 49.2848 24.1377 49.9581C24.1377 50.6315 24.291 51.1648 24.5977 51.5581C24.911 51.9448 25.3243 52.1381 25.8377 52.1381ZM30.7516 52.0181C30.9782 52.0181 31.1649 52.0115 31.3116 51.9981V52.5781C31.1116 52.5915 30.9049 52.5981 30.6916 52.5981C30.3649 52.5981 30.1116 52.5648 29.9316 52.4981C29.7516 52.4248 29.6216 52.3048 29.5416 52.1381C29.4616 51.9715 29.4216 51.7381 29.4216 51.4381V47.8581H28.5316V47.3381H29.4216V45.8081H30.0716V47.3381H31.3416V47.8581H30.0716V51.2981C30.0716 51.5781 30.1182 51.7681 30.2116 51.8681C30.3049 51.9681 30.4849 52.0181 30.7516 52.0181ZM33.2535 47.7281V48.6481H32.3635V47.7281H33.2535ZM33.2535 51.6681V52.5781H32.3635V51.6681H33.2535ZM50.8614 48.3381V49.4881H47.3314V51.3481H51.0414V52.5781H45.8314V45.4381H51.0414V46.6281H47.3314V48.3381H50.8614ZM51.8608 49.1281H54.9508V50.3381H51.8608V49.1281ZM63.36 52.5781H61.94V47.2981H61.9L60.16 52.5781H59.05L57.31 47.2981H57.27V52.5781H55.89V45.4381H58.09L59.61 50.3581H59.65L61.17 45.4381H63.36V52.5781ZM66.682 47.1581C67.2286 47.1581 67.7053 47.2715 68.112 47.4981C68.5186 47.7248 68.832 48.0481 69.052 48.4681C69.272 48.8881 69.382 49.3781 69.382 49.9381C69.382 50.4981 69.272 50.9881 69.052 51.4081C68.832 51.8215 68.5186 52.1415 68.112 52.3681C67.7053 52.5881 67.2286 52.6981 66.682 52.6981C66.1286 52.6981 65.6453 52.5881 65.232 52.3681C64.8253 52.1415 64.512 51.8215 64.292 51.4081C64.0786 50.9881 63.972 50.4981 63.972 49.9381C63.972 49.3715 64.0786 48.8815 64.292 48.4681C64.512 48.0481 64.8253 47.7248 65.232 47.4981C65.6453 47.2715 66.1286 47.1581 66.682 47.1581ZM66.682 51.6481C67.0753 51.6481 67.3853 51.5015 67.612 51.2081C67.8386 50.9148 67.952 50.4915 67.952 49.9381C67.952 49.3781 67.8386 48.9515 67.612 48.6581C67.3853 48.3581 67.0753 48.2081 66.682 48.2081C66.282 48.2081 65.9653 48.3581 65.732 48.6581C65.5053 48.9515 65.392 49.3781 65.392 49.9381C65.392 50.4915 65.5053 50.9148 65.732 51.2081C65.9653 51.5015 66.282 51.6481 66.682 51.6481ZM72.9718 47.1581C73.4118 47.1581 73.8051 47.2715 74.1518 47.4981C74.5051 47.7248 74.7818 48.0515 74.9818 48.4781C75.1818 48.8981 75.2818 49.3848 75.2818 49.9381C75.2818 50.4915 75.1818 50.9781 74.9818 51.3981C74.7818 51.8115 74.5051 52.1315 74.1518 52.3581C73.7985 52.5848 73.3985 52.6981 72.9518 52.6981C72.5851 52.6981 72.2585 52.6315 71.9718 52.4981C71.6918 52.3648 71.4785 52.1615 71.3318 51.8881H71.2918V52.5781H69.9518V45.3381H71.3518V47.8981H71.3918C71.5385 47.6648 71.7485 47.4848 72.0218 47.3581C72.2951 47.2248 72.6118 47.1581 72.9718 47.1581ZM72.5618 51.6281C72.9618 51.6281 73.2751 51.4848 73.5018 51.1981C73.7351 50.9048 73.8518 50.4848 73.8518 49.9381C73.8518 49.3848 73.7351 48.9615 73.5018 48.6681C73.2751 48.3748 72.9618 48.2281 72.5618 48.2281C72.1618 48.2281 71.8451 48.3781 71.6118 48.6781C71.3851 48.9715 71.2718 49.3915 71.2718 49.9381C71.2718 50.4848 71.3851 50.9048 71.6118 51.1981C71.8451 51.4848 72.1618 51.6281 72.5618 51.6281ZM77.27 47.2881V52.5781H75.87V47.2881H77.27ZM77.27 45.3381V46.5381H75.87V45.3381H77.27ZM79.3891 45.3381V52.5781H77.9891V45.3381H79.3891ZM81.5083 47.2881V52.5781H80.1083V47.2881H81.5083ZM81.5083 45.3381V46.5381H80.1083V45.3381H81.5083ZM85.2374 51.4881V52.5781C85.0508 52.5915 84.7441 52.5981 84.3174 52.5981C83.9374 52.5981 83.6374 52.5648 83.4174 52.4981C83.1974 52.4248 83.0341 52.2981 82.9274 52.1181C82.8208 51.9315 82.7674 51.6648 82.7674 51.3181V48.2281H81.9274V47.2881H82.7674V45.8081H84.1674V47.2881H85.2774V48.2281H84.1674V50.9681C84.1674 51.1881 84.2108 51.3315 84.2974 51.3981C84.3908 51.4581 84.5541 51.4881 84.7874 51.4881H85.2374ZM88.9621 52.5781C88.7621 53.1315 88.5521 53.5515 88.3321 53.8381C88.1188 54.1248 87.8888 54.3115 87.6421 54.3981C87.4021 54.4915 87.1121 54.5381 86.7721 54.5381C86.4121 54.5381 86.1321 54.5281 85.9321 54.5081V53.3481C86.1188 53.3748 86.3254 53.3881 86.5521 53.3881C86.7921 53.3881 86.9721 53.3381 87.0921 53.2381C87.2188 53.1381 87.3354 52.9581 87.4421 52.6981L87.5021 52.5281L85.3821 47.2881H86.9021L88.1921 50.9081H88.2321L89.4021 47.2881H90.8921L88.9621 52.5781ZM95.9954 45.4381C97.0954 45.4381 97.9654 45.7381 98.6054 46.3381C99.2454 46.9381 99.5654 47.8281 99.5654 49.0081C99.5654 50.1881 99.2454 51.0781 98.6054 51.6781C97.9654 52.2781 97.0954 52.5781 95.9954 52.5781H93.1654V45.4381H95.9954ZM95.7754 51.3881C96.5087 51.3881 97.0687 51.1981 97.4554 50.8181C97.8421 50.4315 98.0354 49.8281 98.0354 49.0081C98.0354 48.1881 97.8421 47.5881 97.4554 47.2081C97.0687 46.8215 96.5087 46.6281 95.7754 46.6281H94.6654V51.3881H95.7754ZM103.559 52.5781C103.512 52.5248 103.476 52.4348 103.449 52.3081C103.422 52.1748 103.409 52.0181 103.409 51.8381C103.262 52.1115 103.026 52.3248 102.699 52.4781C102.379 52.6248 102.032 52.6981 101.659 52.6981C101.346 52.6981 101.052 52.6348 100.779 52.5081C100.512 52.3815 100.296 52.2015 100.129 51.9681C99.969 51.7281 99.889 51.4481 99.889 51.1281C99.889 50.5881 100.072 50.1881 100.439 49.9281C100.806 49.6681 101.356 49.4948 102.089 49.4081C102.596 49.3415 102.939 49.2681 103.119 49.1881C103.306 49.1015 103.399 48.9748 103.399 48.8081C103.399 48.6081 103.322 48.4515 103.169 48.3381C103.016 48.2181 102.786 48.1581 102.479 48.1581C102.226 48.1581 101.999 48.2248 101.799 48.3581C101.606 48.4915 101.469 48.6881 101.389 48.9481L100.099 48.7481C100.212 48.2548 100.486 47.8681 100.919 47.5881C101.352 47.3015 101.882 47.1581 102.509 47.1581C103.276 47.1581 103.849 47.3115 104.229 47.6181C104.609 47.9248 104.799 48.3415 104.799 48.8681V51.5181C104.799 51.8248 104.806 52.0548 104.819 52.2081C104.839 52.3548 104.879 52.4781 104.939 52.5781H103.559ZM103.399 49.9681C103.319 50.0348 103.182 50.0915 102.989 50.1381C102.802 50.1781 102.556 50.2181 102.249 50.2581C101.969 50.3048 101.742 50.3948 101.569 50.5281C101.402 50.6548 101.319 50.8348 101.319 51.0681C101.319 51.2815 101.386 51.4481 101.519 51.5681C101.659 51.6815 101.849 51.7381 102.089 51.7381C102.296 51.7381 102.499 51.6948 102.699 51.6081C102.899 51.5215 103.066 51.3881 103.199 51.2081C103.332 51.0215 103.399 50.7915 103.399 50.5181V49.9681ZM108.679 48.8881C108.626 48.6348 108.502 48.4381 108.309 48.2981C108.122 48.1581 107.899 48.0881 107.639 48.0881C107.379 48.0881 107.169 48.1448 107.009 48.2581C106.849 48.3648 106.769 48.5181 106.769 48.7181C106.769 48.8915 106.846 49.0181 106.999 49.0981C107.152 49.1781 107.386 49.2448 107.699 49.2981L108.239 49.3781C108.826 49.4781 109.282 49.6415 109.609 49.8681C109.942 50.0948 110.109 50.4748 110.109 51.0081C110.109 51.5681 109.886 51.9915 109.439 52.2781C108.992 52.5581 108.406 52.6981 107.679 52.6981C106.986 52.6981 106.412 52.5515 105.959 52.2581C105.512 51.9581 105.246 51.5515 105.159 51.0381L106.469 50.8481C106.536 51.1615 106.672 51.3948 106.879 51.5481C107.092 51.7015 107.366 51.7781 107.699 51.7781C107.999 51.7781 108.239 51.7148 108.419 51.5881C108.599 51.4615 108.689 51.2881 108.689 51.0681C108.689 50.8881 108.606 50.7515 108.439 50.6581C108.272 50.5648 108.022 50.4915 107.689 50.4381L107.109 50.3481C106.582 50.2615 106.159 50.1048 105.839 49.8781C105.526 49.6515 105.369 49.2848 105.369 48.7781C105.369 48.4515 105.469 48.1648 105.669 47.9181C105.876 47.6715 106.152 47.4848 106.499 47.3581C106.846 47.2248 107.226 47.1581 107.639 47.1581C108.252 47.1581 108.772 47.3015 109.199 47.5881C109.632 47.8748 109.889 48.2481 109.969 48.7081L108.679 48.8881ZM112.095 47.9881C112.495 47.4348 113.042 47.1581 113.735 47.1581C114.262 47.1581 114.698 47.3215 115.045 47.6481C115.392 47.9748 115.565 48.4548 115.565 49.0881V52.5781H114.165V49.4481C114.165 49.0348 114.082 48.7381 113.915 48.5581C113.755 48.3781 113.508 48.2881 113.175 48.2881C112.982 48.2881 112.798 48.3481 112.625 48.4681C112.452 48.5815 112.312 48.7515 112.205 48.9781C112.105 49.1981 112.055 49.4581 112.055 49.7581V52.5781H110.655V45.3381H112.055V47.9881H112.095ZM119.261 47.1581C119.701 47.1581 120.094 47.2715 120.441 47.4981C120.794 47.7248 121.071 48.0515 121.271 48.4781C121.471 48.8981 121.571 49.3848 121.571 49.9381C121.571 50.4915 121.471 50.9781 121.271 51.3981C121.071 51.8115 120.794 52.1315 120.441 52.3581C120.088 52.5848 119.688 52.6981 119.241 52.6981C118.874 52.6981 118.548 52.6315 118.261 52.4981C117.981 52.3648 117.768 52.1615 117.621 51.8881H117.581V52.5781H116.241V45.3381H117.641V47.8981H117.681C117.828 47.6648 118.038 47.4848 118.311 47.3581C118.584 47.2248 118.901 47.1581 119.261 47.1581ZM118.851 51.6281C119.251 51.6281 119.564 51.4848 119.791 51.1981C120.024 50.9048 120.141 50.4848 120.141 49.9381C120.141 49.3848 120.024 48.9615 119.791 48.6681C119.564 48.3748 119.251 48.2281 118.851 48.2281C118.451 48.2281 118.134 48.3781 117.901 48.6781C117.674 48.9715 117.561 49.3915 117.561 49.9381C117.561 50.4848 117.674 50.9048 117.901 51.1981C118.134 51.4848 118.451 51.6281 118.851 51.6281ZM124.719 47.1581C125.266 47.1581 125.742 47.2715 126.149 47.4981C126.556 47.7248 126.869 48.0481 127.089 48.4681C127.309 48.8881 127.419 49.3781 127.419 49.9381C127.419 50.4981 127.309 50.9881 127.089 51.4081C126.869 51.8215 126.556 52.1415 126.149 52.3681C125.742 52.5881 125.266 52.6981 124.719 52.6981C124.166 52.6981 123.682 52.5881 123.269 52.3681C122.862 52.1415 122.549 51.8215 122.329 51.4081C122.116 50.9881 122.009 50.4981 122.009 49.9381C122.009 49.3715 122.116 48.8815 122.329 48.4681C122.549 48.0481 122.862 47.7248 123.269 47.4981C123.682 47.2715 124.166 47.1581 124.719 47.1581ZM124.719 51.6481C125.112 51.6481 125.422 51.5015 125.649 51.2081C125.876 50.9148 125.989 50.4915 125.989 49.9381C125.989 49.3781 125.876 48.9515 125.649 48.6581C125.422 48.3581 125.112 48.2081 124.719 48.2081C124.319 48.2081 124.002 48.3581 123.769 48.6581C123.542 48.9515 123.429 49.3781 123.429 49.9381C123.429 50.4915 123.542 50.9148 123.769 51.2081C124.002 51.5015 124.319 51.6481 124.719 51.6481ZM131.479 52.5781C131.432 52.5248 131.396 52.4348 131.369 52.3081C131.342 52.1748 131.329 52.0181 131.329 51.8381C131.182 52.1115 130.946 52.3248 130.619 52.4781C130.299 52.6248 129.952 52.6981 129.579 52.6981C129.266 52.6981 128.972 52.6348 128.699 52.5081C128.432 52.3815 128.216 52.2015 128.049 51.9681C127.889 51.7281 127.809 51.4481 127.809 51.1281C127.809 50.5881 127.992 50.1881 128.359 49.9281C128.726 49.6681 129.276 49.4948 130.009 49.4081C130.516 49.3415 130.859 49.2681 131.039 49.1881C131.226 49.1015 131.319 48.9748 131.319 48.8081C131.319 48.6081 131.242 48.4515 131.089 48.3381C130.936 48.2181 130.706 48.1581 130.399 48.1581C130.146 48.1581 129.919 48.2248 129.719 48.3581C129.526 48.4915 129.389 48.6881 129.309 48.9481L128.019 48.7481C128.132 48.2548 128.406 47.8681 128.839 47.5881C129.272 47.3015 129.802 47.1581 130.429 47.1581C131.196 47.1581 131.769 47.3115 132.149 47.6181C132.529 47.9248 132.719 48.3415 132.719 48.8681V51.5181C132.719 51.8248 132.726 52.0548 132.739 52.2081C132.759 52.3548 132.799 52.4781 132.859 52.5781H131.479ZM131.319 49.9681C131.239 50.0348 131.102 50.0915 130.909 50.1381C130.722 50.1781 130.476 50.2181 130.169 50.2581C129.889 50.3048 129.662 50.3948 129.489 50.5281C129.322 50.6548 129.239 50.8348 129.239 51.0681C129.239 51.2815 129.306 51.4481 129.439 51.5681C129.579 51.6815 129.769 51.7381 130.009 51.7381C130.216 51.7381 130.419 51.6948 130.619 51.6081C130.819 51.5215 130.986 51.3881 131.119 51.2081C131.252 51.0215 131.319 50.7915 131.319 50.5181V49.9681ZM134.739 48.0981H134.779C134.926 47.8115 135.132 47.5848 135.399 47.4181C135.672 47.2448 135.996 47.1581 136.369 47.1581C136.502 47.1581 136.626 47.1748 136.739 47.2081V48.5081C136.699 48.5081 136.619 48.5015 136.499 48.4881C136.386 48.4748 136.282 48.4681 136.189 48.4681C135.262 48.4681 134.799 48.9481 134.799 49.9081V52.5781H133.399V47.2881H134.739V48.0981ZM139.309 47.1581C139.676 47.1581 139.992 47.2248 140.259 47.3581C140.532 47.4848 140.746 47.6648 140.899 47.8981H140.939V45.3381H142.339V52.5781H140.999V51.8881H140.959C140.806 52.1615 140.586 52.3648 140.299 52.4981C140.019 52.6315 139.699 52.6981 139.339 52.6981C138.892 52.6981 138.492 52.5848 138.139 52.3581C137.786 52.1315 137.509 51.8115 137.309 51.3981C137.109 50.9781 137.009 50.4915 137.009 49.9381C137.009 49.3848 137.106 48.8981 137.299 48.4781C137.499 48.0515 137.772 47.7248 138.119 47.4981C138.472 47.2715 138.869 47.1581 139.309 47.1581ZM139.729 51.6281C140.129 51.6281 140.442 51.4848 140.669 51.1981C140.902 50.9048 141.019 50.4848 141.019 49.9381C141.019 49.3915 140.902 48.9715 140.669 48.6781C140.442 48.3781 140.129 48.2281 139.729 48.2281C139.329 48.2281 139.012 48.3748 138.779 48.6681C138.546 48.9615 138.429 49.3848 138.429 49.9381C138.429 50.4848 138.546 50.9048 138.779 51.1981C139.012 51.4848 139.329 51.6281 139.729 51.6281Z" fill="white"/>
<path d="M4.07 63.4381C4.79667 63.4381 5.36 63.6215 5.76 63.9881C6.16 64.3548 6.36 64.8748 6.36 65.5481C6.36 66.2215 6.16 66.7415 5.76 67.1081C5.36 67.4748 4.79667 67.6581 4.07 67.6581H1.86V70.5781H1.16V63.4381H4.07ZM3.96 67.0581C4.50667 67.0581 4.92333 66.9348 5.21 66.6881C5.49667 66.4348 5.64 66.0548 5.64 65.5481C5.64 65.0415 5.49667 64.6648 5.21 64.4181C4.92333 64.1648 4.50667 64.0381 3.96 64.0381H1.86V67.0581H3.96ZM10.5549 70.5781C10.4883 70.4915 10.4449 70.2281 10.4249 69.7881C10.2183 70.1148 9.93492 70.3481 9.57492 70.4881C9.21492 70.6281 8.84492 70.6981 8.46492 70.6981C8.16492 70.6981 7.89159 70.6348 7.64492 70.5081C7.39826 70.3815 7.20159 70.2015 7.05492 69.9681C6.91492 69.7348 6.84492 69.4681 6.84492 69.1681C6.84492 68.6281 7.03492 68.2415 7.41492 68.0081C7.80159 67.7748 8.34492 67.6115 9.04492 67.5181C9.43826 67.4648 9.72826 67.4148 9.91492 67.3681C10.1016 67.3148 10.2283 67.2515 10.2949 67.1781C10.3683 67.1048 10.4049 66.9981 10.4049 66.8581C10.4049 66.5181 10.2983 66.2515 10.0849 66.0581C9.87159 65.8648 9.54492 65.7681 9.10492 65.7681C8.76492 65.7681 8.46492 65.8515 8.20492 66.0181C7.95159 66.1781 7.76826 66.4548 7.65492 66.8481L7.04492 66.6981C7.17159 66.1981 7.42159 65.8281 7.79492 65.5881C8.17492 65.3415 8.62159 65.2181 9.13492 65.2181C9.78826 65.2181 10.2716 65.3648 10.5849 65.6581C10.9049 65.9448 11.0649 66.3381 11.0649 66.8381V69.2881C11.0649 69.6348 11.0716 69.9015 11.0849 70.0881C11.1049 70.2681 11.1449 70.4315 11.2049 70.5781H10.5549ZM10.4049 67.6681C10.3316 67.7548 10.1916 67.8215 9.98492 67.8681C9.77826 67.9081 9.44492 67.9648 8.98492 68.0381C8.59826 68.0915 8.25826 68.2048 7.96492 68.3781C7.67159 68.5515 7.52492 68.8148 7.52492 69.1681C7.52492 69.4681 7.62159 69.7048 7.81492 69.8781C8.00826 70.0515 8.26826 70.1381 8.59492 70.1381C9.05492 70.1381 9.47159 70.0115 9.84492 69.7581C10.2183 69.4981 10.4049 69.0648 10.4049 68.4581V67.6681ZM12.843 66.3381H12.873C13.0064 65.9848 13.2264 65.7115 13.533 65.5181C13.8464 65.3181 14.2064 65.2181 14.613 65.2181C14.773 65.2181 14.913 65.2315 15.033 65.2581V65.8881C14.893 65.8681 14.7397 65.8581 14.573 65.8581C14.0664 65.8581 13.6564 66.0348 13.343 66.3881C13.0364 66.7348 12.883 67.2448 12.883 67.9181V70.5781H12.223V65.3381H12.843V66.3381ZM17.6949 70.0181C17.9216 70.0181 18.1083 70.0115 18.2549 69.9981V70.5781C18.0549 70.5915 17.8483 70.5981 17.6349 70.5981C17.3083 70.5981 17.0549 70.5648 16.8749 70.4981C16.6949 70.4248 16.5649 70.3048 16.4849 70.1381C16.4049 69.9715 16.3649 69.7381 16.3649 69.4381V65.8581H15.4749V65.3381H16.3649V63.8081H17.0149V65.3381H18.2849V65.8581H17.0149V69.2981C17.0149 69.5781 17.0616 69.7681 17.1549 69.8681C17.2483 69.9681 17.4283 70.0181 17.6949 70.0181ZM19.7969 66.1381C19.9302 65.8781 20.1502 65.6615 20.4569 65.4881C20.7635 65.3081 21.1069 65.2181 21.4869 65.2181C22.0469 65.2181 22.4969 65.3781 22.8369 65.6981C23.1769 66.0181 23.3469 66.4715 23.3469 67.0581V70.5781H22.6969V67.3381C22.6969 66.7981 22.5902 66.4048 22.3769 66.1581C22.1702 65.9048 21.8335 65.7781 21.3669 65.7781C20.9269 65.7781 20.5569 65.9315 20.2569 66.2381C19.9569 66.5381 19.8069 67.0015 19.8069 67.6281V70.5781H19.1469V65.3381H19.7669V66.1381H19.7969ZM28.9282 69.1181C28.7749 69.5648 28.5115 69.9415 28.1382 70.2481C27.7649 70.5481 27.2582 70.6981 26.6182 70.6981C26.1582 70.6981 25.7515 70.5881 25.3982 70.3681C25.0449 70.1415 24.7682 69.8215 24.5682 69.4081C24.3682 68.9881 24.2682 68.5015 24.2682 67.9481C24.2682 67.4015 24.3682 66.9215 24.5682 66.5081C24.7682 66.0948 25.0449 65.7781 25.3982 65.5581C25.7515 65.3315 26.1582 65.2181 26.6182 65.2181C27.0849 65.2181 27.4982 65.3348 27.8582 65.5681C28.2249 65.7948 28.5049 66.1281 28.6982 66.5681C28.8982 67.0015 28.9882 67.5181 28.9682 68.1181H24.9482C24.9615 68.7181 25.1215 69.2048 25.4282 69.5781C25.7349 69.9515 26.1315 70.1381 26.6182 70.1381C27.0715 70.1381 27.4315 70.0315 27.6982 69.8181C27.9649 69.5981 28.1515 69.3348 28.2582 69.0281L28.9282 69.1181ZM26.6182 65.7681C26.1449 65.7681 25.7582 65.9415 25.4582 66.2881C25.1582 66.6281 24.9915 67.0548 24.9582 67.5681H28.2882C28.2549 67.0548 28.0849 66.6281 27.7782 66.2881C27.4782 65.9415 27.0915 65.7681 26.6182 65.7681ZM30.5579 66.3381H30.5879C30.7212 65.9848 30.9412 65.7115 31.2479 65.5181C31.5612 65.3181 31.9212 65.2181 32.3279 65.2181C32.4879 65.2181 32.6279 65.2315 32.7479 65.2581V65.8881C32.6079 65.8681 32.4546 65.8581 32.2879 65.8581C31.7812 65.8581 31.3712 66.0348 31.0579 66.3881C30.7512 66.7348 30.5979 67.2448 30.5979 67.9181V70.5781H29.9379V65.3381H30.5579V66.3381ZM34.6598 65.7281V66.6481H33.7698V65.7281H34.6598ZM34.6598 69.6681V70.5781H33.7698V69.6681H34.6598ZM50.3634 66.3381V67.4881H46.8334V69.3481H50.5434V70.5781H45.3334V63.4381H50.5434V64.6281H46.8334V66.3381H50.3634ZM52.5727 63.3381V70.5781H51.1727V63.3381H52.5727ZM54.6919 65.2881V70.5781H53.2919V65.2881H54.6919ZM54.6919 63.3381V64.5381H53.2919V63.3381H54.6919ZM58.891 70.5781C58.8443 70.5248 58.8077 70.4348 58.781 70.3081C58.7543 70.1748 58.741 70.0181 58.741 69.8381C58.5943 70.1115 58.3577 70.3248 58.031 70.4781C57.711 70.6248 57.3643 70.6981 56.991 70.6981C56.6777 70.6981 56.3843 70.6348 56.111 70.5081C55.8443 70.3815 55.6277 70.2015 55.461 69.9681C55.301 69.7281 55.221 69.4481 55.221 69.1281C55.221 68.5881 55.4043 68.1881 55.771 67.9281C56.1377 67.6681 56.6877 67.4948 57.421 67.4081C57.9277 67.3415 58.271 67.2681 58.451 67.1881C58.6377 67.1015 58.731 66.9748 58.731 66.8081C58.731 66.6081 58.6543 66.4515 58.501 66.3381C58.3477 66.2181 58.1177 66.1581 57.811 66.1581C57.5577 66.1581 57.331 66.2248 57.131 66.3581C56.9377 66.4915 56.801 66.6881 56.721 66.9481L55.431 66.7481C55.5443 66.2548 55.8177 65.8681 56.251 65.5881C56.6843 65.3015 57.2143 65.1581 57.841 65.1581C58.6077 65.1581 59.181 65.3115 59.561 65.6181C59.941 65.9248 60.131 66.3415 60.131 66.8681V69.5181C60.131 69.8248 60.1377 70.0548 60.151 70.2081C60.171 70.3548 60.211 70.4781 60.271 70.5781H58.891ZM58.731 67.9681C58.651 68.0348 58.5143 68.0915 58.321 68.1381C58.1343 68.1781 57.8877 68.2181 57.581 68.2581C57.301 68.3048 57.0743 68.3948 56.901 68.5281C56.7343 68.6548 56.651 68.8348 56.651 69.0681C56.651 69.2815 56.7177 69.4481 56.851 69.5681C56.991 69.6815 57.181 69.7381 57.421 69.7381C57.6277 69.7381 57.831 69.6948 58.031 69.6081C58.231 69.5215 58.3977 69.3881 58.531 69.2081C58.6643 69.0215 58.731 68.7915 58.731 68.5181V67.9681ZM68.3355 70.5781V69.7381C67.8221 70.4048 67.0888 70.7381 66.1355 70.7381C65.4488 70.7381 64.8388 70.5848 64.3055 70.2781C63.7788 69.9715 63.3655 69.5381 63.0655 68.9781C62.7655 68.4115 62.6155 67.7515 62.6155 66.9981C62.6155 66.2448 62.7621 65.5881 63.0555 65.0281C63.3555 64.4681 63.7721 64.0381 64.3055 63.7381C64.8388 63.4315 65.4488 63.2781 66.1355 63.2781C66.9288 63.2781 67.6088 63.4781 68.1755 63.8781C68.7488 64.2781 69.1488 64.8181 69.3755 65.4981L67.8655 65.6781C67.7121 65.2981 67.4888 65.0048 67.1955 64.7981C66.9021 64.5915 66.5488 64.4881 66.1355 64.4881C65.5355 64.4881 65.0521 64.7048 64.6855 65.1381C64.3255 65.5715 64.1455 66.1915 64.1455 66.9981C64.1455 67.8181 64.3255 68.4448 64.6855 68.8781C65.0455 69.3115 65.5288 69.5281 66.1355 69.5281C66.6355 69.5281 67.0521 69.3815 67.3855 69.0881C67.7255 68.7948 67.9355 68.4181 68.0155 67.9581H66.2555V66.8281H69.4055V70.5781H68.3355ZM71.4676 66.0981H71.5076C71.6542 65.8115 71.8609 65.5848 72.1276 65.4181C72.4009 65.2448 72.7242 65.1581 73.0976 65.1581C73.2309 65.1581 73.3542 65.1748 73.4676 65.2081V66.5081C73.4276 66.5081 73.3476 66.5015 73.2276 66.4881C73.1142 66.4748 73.0109 66.4681 72.9176 66.4681C71.9909 66.4681 71.5276 66.9481 71.5276 67.9081V70.5781H70.1276V65.2881H71.4676V66.0981ZM76.4476 65.1581C76.9942 65.1581 77.4709 65.2715 77.8776 65.4981C78.2842 65.7248 78.5976 66.0481 78.8176 66.4681C79.0376 66.8881 79.1476 67.3781 79.1476 67.9381C79.1476 68.4981 79.0376 68.9881 78.8176 69.4081C78.5976 69.8215 78.2842 70.1415 77.8776 70.3681C77.4709 70.5881 76.9942 70.6981 76.4476 70.6981C75.8942 70.6981 75.4109 70.5881 74.9976 70.3681C74.5909 70.1415 74.2776 69.8215 74.0576 69.4081C73.8442 68.9881 73.7376 68.4981 73.7376 67.9381C73.7376 67.3715 73.8442 66.8815 74.0576 66.4681C74.2776 66.0481 74.5909 65.7248 74.9976 65.4981C75.4109 65.2715 75.8942 65.1581 76.4476 65.1581ZM76.4476 69.6481C76.8409 69.6481 77.1509 69.5015 77.3776 69.2081C77.6042 68.9148 77.7176 68.4915 77.7176 67.9381C77.7176 67.3781 77.6042 66.9515 77.3776 66.6581C77.1509 66.3581 76.8409 66.2081 76.4476 66.2081C76.0476 66.2081 75.7309 66.3581 75.4976 66.6581C75.2709 66.9515 75.1576 67.3781 75.1576 67.9381C75.1576 68.4915 75.2709 68.9148 75.4976 69.2081C75.7309 69.5015 76.0476 69.6481 76.4476 69.6481ZM83.2474 69.8781C82.8608 70.4248 82.3041 70.6981 81.5774 70.6981C81.0374 70.6981 80.5908 70.5381 80.2374 70.2181C79.8908 69.8915 79.7174 69.4081 79.7174 68.7681V65.2881H81.1174V68.4081C81.1174 68.8215 81.1974 69.1181 81.3574 69.2981C81.5241 69.4781 81.7741 69.5681 82.1074 69.5681C82.4208 69.5681 82.6841 69.4481 82.8974 69.2081C83.1174 68.9615 83.2274 68.6148 83.2274 68.1681V65.2881H84.6274V70.5781H83.2874V69.8781H83.2474ZM88.3234 70.6981C87.9567 70.6981 87.64 70.6348 87.3734 70.5081C87.1067 70.3815 86.8967 70.1981 86.7434 69.9581H86.7034V72.4181H85.3034V65.2881H86.6334V65.9781H86.6734C86.8334 65.6981 87.0534 65.4915 87.3334 65.3581C87.6134 65.2248 87.9367 65.1581 88.3034 65.1581C88.75 65.1581 89.15 65.2715 89.5034 65.4981C89.8567 65.7248 90.1334 66.0481 90.3334 66.4681C90.5334 66.8881 90.6334 67.3748 90.6334 67.9281C90.6334 68.4815 90.5334 68.9681 90.3334 69.3881C90.1334 69.8081 89.8567 70.1315 89.5034 70.3581C89.1567 70.5848 88.7634 70.6981 88.3234 70.6981ZM87.9134 66.2281C87.5134 66.2281 87.1967 66.3748 86.9634 66.6681C86.7367 66.9615 86.6234 67.3815 86.6234 67.9281C86.6234 68.4748 86.7367 68.8948 86.9634 69.1881C87.1967 69.4815 87.5134 69.6281 87.9134 69.6281C88.3134 69.6281 88.6267 69.4848 88.8534 69.1981C89.0867 68.9048 89.2034 68.4815 89.2034 67.9281C89.2034 67.3815 89.0867 66.9615 88.8534 66.6681C88.6267 66.3748 88.3134 66.2281 87.9134 66.2281Z" fill="white"/>
<path d="M7.11 86.3781C7.01 86.7848 6.83333 87.1681 6.58 87.5281C6.32667 87.8815 5.99333 88.1681 5.58 88.3881C5.17333 88.6081 4.70333 88.7181 4.17 88.7181C3.55 88.7181 2.99667 88.5681 2.51 88.2681C2.02333 87.9681 1.64333 87.5381 1.37 86.9781C1.09667 86.4181 0.96 85.7581 0.96 84.9981C0.96 84.2448 1.09667 83.5881 1.37 83.0281C1.64333 82.4681 2.02333 82.0415 2.51 81.7481C2.99667 81.4481 3.55 81.2981 4.17 81.2981C4.71 81.2981 5.17333 81.4048 5.56 81.6181C5.95333 81.8248 6.26 82.0681 6.48 82.3481C6.70667 82.6281 6.87333 82.8981 6.98 83.1581L6.28 83.3181C6.11333 82.9248 5.85 82.5915 5.49 82.3181C5.13 82.0381 4.69 81.8981 4.17 81.8981C3.67667 81.8981 3.24333 82.0215 2.87 82.2681C2.49667 82.5148 2.20333 82.8715 1.99 83.3381C1.78333 83.8048 1.68 84.3581 1.68 84.9981C1.68 85.6448 1.78333 86.2048 1.99 86.6781C2.20333 87.1448 2.49667 87.5015 2.87 87.7481C3.24333 87.9948 3.67667 88.1181 4.17 88.1181C4.74333 88.1181 5.22333 87.9448 5.61 87.5981C5.99667 87.2448 6.26 86.8015 6.4 86.2681L7.11 86.3781ZM10.2722 83.2181C10.7522 83.2181 11.1755 83.3315 11.5422 83.5581C11.9089 83.7781 12.1922 84.0948 12.3922 84.5081C12.5989 84.9215 12.7022 85.4048 12.7022 85.9581C12.7022 86.5115 12.5989 86.9948 12.3922 87.4081C12.1922 87.8215 11.9089 88.1415 11.5422 88.3681C11.1755 88.5881 10.7522 88.6981 10.2722 88.6981C9.79885 88.6981 9.37885 88.5881 9.01219 88.3681C8.64552 88.1415 8.35885 87.8215 8.15219 87.4081C7.95219 86.9948 7.85219 86.5115 7.85219 85.9581C7.85219 85.4048 7.95219 84.9215 8.15219 84.5081C8.35885 84.0948 8.64552 83.7781 9.01219 83.5581C9.37885 83.3315 9.79885 83.2181 10.2722 83.2181ZM10.2722 88.1381C10.7922 88.1381 11.2122 87.9448 11.5322 87.5581C11.8589 87.1648 12.0222 86.6315 12.0222 85.9581C12.0222 85.2848 11.8589 84.7515 11.5322 84.3581C11.2122 83.9648 10.7922 83.7681 10.2722 83.7681C9.75219 83.7681 9.33219 83.9648 9.01219 84.3581C8.69219 84.7515 8.53219 85.2848 8.53219 85.9581C8.53219 86.6315 8.69219 87.1648 9.01219 87.5581C9.33219 87.9448 9.75219 88.1381 10.2722 88.1381ZM17.2186 87.7781C17.0786 88.0381 16.8553 88.2581 16.5486 88.4381C16.2486 88.6115 15.9053 88.6981 15.5186 88.6981C14.9586 88.6981 14.5086 88.5381 14.1686 88.2181C13.8286 87.8981 13.6586 87.4415 13.6586 86.8481V83.3381H14.3186V86.5781C14.3186 87.1181 14.4219 87.5148 14.6286 87.7681C14.8419 88.0148 15.1786 88.1381 15.6386 88.1381C16.0786 88.1381 16.4486 87.9848 16.7486 87.6781C17.0553 87.3715 17.2086 86.9048 17.2086 86.2781V83.3381H17.8586V88.5781H17.2386V87.7781H17.2186ZM19.6699 84.1381C19.8033 83.8781 20.0233 83.6615 20.3299 83.4881C20.6366 83.3081 20.9799 83.2181 21.3599 83.2181C21.9199 83.2181 22.3699 83.3781 22.7099 83.6981C23.0499 84.0181 23.2199 84.4715 23.2199 85.0581V88.5781H22.5699V85.3381C22.5699 84.7981 22.4633 84.4048 22.2499 84.1581C22.0433 83.9048 21.7066 83.7781 21.2399 83.7781C20.7999 83.7781 20.4299 83.9315 20.1299 84.2381C19.8299 84.5381 19.6799 85.0015 19.6799 85.6281V88.5781H19.0199V83.3381H19.6399V84.1381H19.6699ZM26.1031 88.0181C26.3298 88.0181 26.5165 88.0115 26.6631 87.9981V88.5781C26.4631 88.5915 26.2565 88.5981 26.0431 88.5981C25.7165 88.5981 25.4631 88.5648 25.2831 88.4981C25.1031 88.4248 24.9731 88.3048 24.8931 88.1381C24.8131 87.9715 24.7731 87.7381 24.7731 87.4381V83.8581H23.8831V83.3381H24.7731V81.8081H25.4231V83.3381H26.6931V83.8581H25.4231V87.2981C25.4231 87.5781 25.4698 87.7681 25.5631 87.8681C25.6565 87.9681 25.8365 88.0181 26.1031 88.0181ZM28.1751 84.3381H28.2051C28.3384 83.9848 28.5584 83.7115 28.8651 83.5181C29.1784 83.3181 29.5384 83.2181 29.9451 83.2181C30.1051 83.2181 30.2451 83.2315 30.3651 83.2581V83.8881C30.2251 83.8681 30.0717 83.8581 29.9051 83.8581C29.3984 83.8581 28.9884 84.0348 28.6751 84.3881C28.3684 84.7348 28.2151 85.2448 28.2151 85.9181V88.5781H27.5551V83.3381H28.1751V84.3381ZM33.4458 88.5781C33.2191 89.1448 33.0091 89.5681 32.8158 89.8481C32.6291 90.1348 32.4458 90.3215 32.2658 90.4081C32.0924 90.4948 31.8891 90.5381 31.6558 90.5381C31.5024 90.5381 31.3824 90.5281 31.2958 90.5081C31.2091 90.4948 31.1591 90.4881 31.1458 90.4881V89.9081C31.1591 89.9081 31.2024 89.9148 31.2758 89.9281C31.3491 89.9481 31.4424 89.9581 31.5558 89.9581C31.7224 89.9581 31.8624 89.9315 31.9758 89.8781C32.0958 89.8248 32.2124 89.7181 32.3258 89.5581C32.4391 89.3981 32.5591 89.1581 32.6858 88.8381L32.8058 88.5381L30.6758 83.3381H31.4158L33.1158 87.7481H33.1458L34.8058 83.3381H35.5258L33.4458 88.5781ZM37.2574 83.7281V84.6481H36.3674V83.7281H37.2574ZM37.2574 87.6681V88.5781H36.3674V87.6681H37.2574ZM47.3424 81.4381C48.0291 81.4381 48.5624 81.6148 48.9424 81.9681C49.3224 82.3215 49.5124 82.7948 49.5124 83.3881C49.5124 83.7148 49.4391 83.9981 49.2924 84.2381C49.1458 84.4715 48.9224 84.6481 48.6224 84.7681V84.8081C49.3758 85.0815 49.7524 85.6515 49.7524 86.5181C49.7524 87.1515 49.5524 87.6548 49.1524 88.0281C48.7524 88.3948 48.1891 88.5781 47.4624 88.5781H44.1924V81.4381H47.3424ZM47.1824 84.4681C47.5758 84.4681 47.8758 84.3781 48.0824 84.1981C48.2891 84.0181 48.3924 83.7581 48.3924 83.4181C48.3924 83.0781 48.2891 82.8181 48.0824 82.6381C47.8758 82.4515 47.5758 82.3581 47.1824 82.3581H45.2924V84.4681H47.1824ZM47.3024 87.6381C47.7358 87.6381 48.0658 87.5381 48.2924 87.3381C48.5191 87.1381 48.6324 86.8515 48.6324 86.4781C48.6324 86.1115 48.5191 85.8281 48.2924 85.6281C48.0658 85.4281 47.7358 85.3281 47.3024 85.3281H45.2924V87.6381H47.3024ZM55.1917 87.0381C55.0451 87.4981 54.7784 87.8915 54.3917 88.2181C54.0051 88.5381 53.4584 88.6981 52.7517 88.6981C52.2651 88.6981 51.8317 88.5848 51.4517 88.3581C51.0784 88.1248 50.7884 87.8015 50.5817 87.3881C50.3751 86.9681 50.2717 86.4881 50.2717 85.9481C50.2717 85.4015 50.3717 84.9181 50.5717 84.4981C50.7784 84.0781 51.0651 83.7548 51.4317 83.5281C51.8051 83.2948 52.2417 83.1781 52.7417 83.1781C53.2284 83.1781 53.6584 83.2881 54.0317 83.5081C54.4117 83.7215 54.7051 84.0315 54.9117 84.4381C55.1251 84.8381 55.2317 85.3148 55.2317 85.8681C55.2317 86.0081 55.2284 86.1148 55.2217 86.1881H51.3017C51.3151 86.6815 51.4517 87.0848 51.7117 87.3981C51.9784 87.7115 52.3251 87.8681 52.7517 87.8681C53.1584 87.8681 53.4717 87.7748 53.6917 87.5881C53.9117 87.3948 54.0684 87.1715 54.1617 86.9181L55.1917 87.0381ZM52.7417 84.0081C52.3284 84.0081 51.9984 84.1448 51.7517 84.4181C51.5117 84.6848 51.3684 85.0148 51.3217 85.4081H54.1917C54.1451 85.0081 53.9984 84.6748 53.7517 84.4081C53.5051 84.1415 53.1684 84.0081 52.7417 84.0081ZM56.9502 81.3381V88.5781H55.9302V81.3381H56.9502ZM62.6045 88.2081C62.6045 89.0081 62.3779 89.5948 61.9245 89.9681C61.4712 90.3481 60.8745 90.5381 60.1345 90.5381C59.5412 90.5381 59.0312 90.4015 58.6045 90.1281C58.1845 89.8548 57.8945 89.4348 57.7345 88.8681L58.7145 88.6581C58.8145 89.0315 58.9812 89.2981 59.2145 89.4581C59.4545 89.6181 59.7612 89.6981 60.1345 89.6981C61.1012 89.6981 61.5845 89.1848 61.5845 88.1581V87.6281H61.5445C61.3979 87.8348 61.1912 87.9981 60.9245 88.1181C60.6579 88.2381 60.3512 88.2981 60.0045 88.2981C59.5512 88.2981 59.1445 88.1915 58.7845 87.9781C58.4312 87.7648 58.1545 87.4648 57.9545 87.0781C57.7545 86.6915 57.6545 86.2448 57.6545 85.7381C57.6545 85.2381 57.7545 84.7948 57.9545 84.4081C58.1545 84.0148 58.4312 83.7115 58.7845 83.4981C59.1445 83.2848 59.5512 83.1781 60.0045 83.1781C60.3645 83.1781 60.6845 83.2448 60.9645 83.3781C61.2445 83.5048 61.4545 83.6815 61.5945 83.9081H61.6345V83.2981H62.6045V88.2081ZM60.1745 87.4881C60.6212 87.4881 60.9779 87.3281 61.2445 87.0081C61.5112 86.6881 61.6445 86.2648 61.6445 85.7381C61.6445 85.2181 61.5112 84.8015 61.2445 84.4881C60.9779 84.1681 60.6212 84.0081 60.1745 84.0081C59.7279 84.0081 59.3679 84.1681 59.0945 84.4881C58.8279 84.8015 58.6945 85.2181 58.6945 85.7381C58.6945 86.2581 58.8279 86.6815 59.0945 87.0081C59.3679 87.3281 59.7279 87.4881 60.1745 87.4881ZM64.4405 83.2981V88.5781H63.4205V83.2981H64.4405ZM64.4405 81.3381V82.4481H63.4205V81.3381H64.4405ZM68.8148 87.8781C68.4414 88.4248 67.8948 88.6981 67.1748 88.6981C66.6481 88.6981 66.2048 88.5381 65.8448 88.2181C65.4848 87.8981 65.3048 87.4248 65.3048 86.7981V83.2981H66.3248V86.4881C66.3248 86.9748 66.4214 87.3215 66.6148 87.5281C66.8081 87.7348 67.1014 87.8381 67.4948 87.8381C67.7281 87.8381 67.9414 87.7748 68.1348 87.6481C68.3348 87.5215 68.4948 87.3348 68.6148 87.0881C68.7414 86.8415 68.8048 86.5448 68.8048 86.1981V83.2981H69.8248V88.5781H68.8548V87.8781H68.8148ZM76.477 83.1781C76.7837 83.1781 77.0704 83.2481 77.337 83.3881C77.6104 83.5215 77.8304 83.7315 77.997 84.0181C78.1637 84.3048 78.247 84.6581 78.247 85.0781V88.5781H77.227V85.3881C77.227 84.9081 77.137 84.5648 76.957 84.3581C76.777 84.1448 76.507 84.0381 76.147 84.0381C75.9337 84.0381 75.737 84.1015 75.557 84.2281C75.377 84.3548 75.2304 84.5415 75.117 84.7881C75.0037 85.0281 74.947 85.3215 74.947 85.6681V88.5781H73.927V85.3881C73.927 84.9081 73.837 84.5648 73.657 84.3581C73.477 84.1448 73.207 84.0381 72.847 84.0381C72.6337 84.0381 72.437 84.1015 72.257 84.2281C72.077 84.3548 71.9304 84.5415 71.817 84.7881C71.7037 85.0348 71.647 85.3315 71.647 85.6781V88.5781H70.627V83.2981H71.597V84.0081H71.637C71.8304 83.7215 72.057 83.5115 72.317 83.3781C72.5837 83.2448 72.8704 83.1781 73.177 83.1781C73.5037 83.1781 73.8037 83.2515 74.077 83.3981C74.3504 83.5381 74.5604 83.7548 74.707 84.0481C74.947 83.7548 75.207 83.5381 75.487 83.3981C75.7737 83.2515 76.1037 83.1781 76.477 83.1781ZM84.4293 88.5781C84.3826 88.5315 84.3426 88.4448 84.3093 88.3181C84.2826 88.1915 84.2693 88.0448 84.2693 87.8781C84.1093 88.1515 83.8593 88.3581 83.5193 88.4981C83.186 88.6315 82.8426 88.6981 82.4893 88.6981C82.176 88.6981 81.886 88.6348 81.6193 88.5081C81.3526 88.3748 81.1393 88.1915 80.9793 87.9581C80.826 87.7181 80.7493 87.4381 80.7493 87.1181C80.7493 86.5781 80.936 86.1815 81.3093 85.9281C81.6826 85.6681 82.246 85.4981 82.9993 85.4181C83.486 85.3715 83.816 85.3015 83.9893 85.2081C84.1693 85.1148 84.2593 84.9815 84.2593 84.8081C84.2593 84.2815 83.8893 84.0181 83.1493 84.0181C82.8626 84.0181 82.6026 84.0948 82.3693 84.2481C82.136 84.3948 81.9726 84.6148 81.8793 84.9081L80.9493 84.6881C81.0626 84.2215 81.3226 83.8548 81.7293 83.5881C82.136 83.3148 82.6226 83.1781 83.1893 83.1781C83.9093 83.1781 84.436 83.3281 84.7693 83.6281C85.1093 83.9215 85.2793 84.3081 85.2793 84.7881V87.4381C85.2793 87.7715 85.286 88.0181 85.2993 88.1781C85.3193 88.3315 85.3593 88.4648 85.4193 88.5781H84.4293ZM84.2593 85.8581C84.186 85.9381 84.0293 86.0048 83.7893 86.0581C83.556 86.1048 83.256 86.1515 82.8893 86.1981C82.576 86.2381 82.3126 86.3348 82.0993 86.4881C81.8926 86.6348 81.7893 86.8448 81.7893 87.1181C81.7893 87.3715 81.8693 87.5648 82.0293 87.6981C82.1893 87.8248 82.4093 87.8881 82.6893 87.8881C82.9426 87.8881 83.1893 87.8415 83.4293 87.7481C83.6693 87.6481 83.866 87.4948 84.0193 87.2881C84.1793 87.0748 84.2593 86.8115 84.2593 86.4981V85.8581ZM87.0863 83.9981C87.2796 83.7181 87.5163 83.5115 87.7963 83.3781C88.0763 83.2448 88.3863 83.1781 88.7263 83.1781C89.0596 83.1781 89.3663 83.2481 89.6463 83.3881C89.9329 83.5215 90.1629 83.7315 90.3363 84.0181C90.5096 84.2981 90.5963 84.6515 90.5963 85.0781V88.5781H89.5763V85.3881C89.5763 84.9015 89.4796 84.5548 89.2863 84.3481C89.0929 84.1415 88.7996 84.0381 88.4063 84.0381C88.1796 84.0381 87.9663 84.1015 87.7663 84.2281C87.5663 84.3548 87.4029 84.5415 87.2763 84.7881C87.1563 85.0348 87.0963 85.3315 87.0963 85.6781V88.5781H86.0763V83.2981H87.0463V83.9981H87.0863ZM93.6385 83.1781C93.9985 83.1781 94.3152 83.2448 94.5885 83.3781C94.8685 83.5115 95.0818 83.6915 95.2285 83.9181H95.2685V81.3381H96.2885V88.5781H95.3185V87.8981H95.2785C95.1385 88.1448 94.9218 88.3415 94.6285 88.4881C94.3418 88.6281 94.0118 88.6981 93.6385 88.6981C93.1718 88.6981 92.7552 88.5848 92.3885 88.3581C92.0285 88.1248 91.7452 87.8015 91.5385 87.3881C91.3385 86.9681 91.2385 86.4848 91.2385 85.9381C91.2385 85.3915 91.3385 84.9115 91.5385 84.4981C91.7452 84.0781 92.0285 83.7548 92.3885 83.5281C92.7552 83.2948 93.1718 83.1781 93.6385 83.1781ZM93.8085 87.8681C94.2752 87.8681 94.6452 87.6981 94.9185 87.3581C95.1918 87.0115 95.3285 86.5381 95.3285 85.9381C95.3285 85.3381 95.1918 84.8681 94.9185 84.5281C94.6452 84.1815 94.2752 84.0081 93.8085 84.0081C93.3418 84.0081 92.9685 84.1815 92.6885 84.5281C92.4152 84.8681 92.2785 85.3381 92.2785 85.9381C92.2785 86.5381 92.4152 87.0115 92.6885 87.3581C92.9685 87.6981 93.3418 87.8681 93.8085 87.8681ZM104.496 88.5781V87.7081C104.03 88.3948 103.296 88.7381 102.296 88.7381C101.636 88.7381 101.046 88.5815 100.526 88.2681C100.013 87.9548 99.6128 87.5148 99.3262 86.9481C99.0395 86.3815 98.8962 85.7315 98.8962 84.9981C98.8962 84.2648 99.0395 83.6181 99.3262 83.0581C99.6128 82.4915 100.013 82.0548 100.526 81.7481C101.04 81.4348 101.63 81.2781 102.296 81.2781C103.03 81.2781 103.67 81.4681 104.216 81.8481C104.77 82.2281 105.163 82.7515 105.396 83.4181L104.296 83.5481C104.116 83.1081 103.856 82.7748 103.516 82.5481C103.176 82.3148 102.77 82.1981 102.296 82.1981C101.836 82.1981 101.433 82.3148 101.086 82.5481C100.746 82.7748 100.483 83.0981 100.296 83.5181C100.11 83.9381 100.016 84.4315 100.016 84.9981C100.016 85.5715 100.11 86.0715 100.296 86.4981C100.483 86.9181 100.746 87.2448 101.086 87.4781C101.433 87.7048 101.836 87.8181 102.296 87.8181C102.716 87.8181 103.083 87.7281 103.396 87.5481C103.716 87.3615 103.96 87.1215 104.126 86.8281C104.3 86.5281 104.386 86.2115 104.386 85.8781H102.426V84.9481H105.386V88.5781H104.496ZM111.002 87.0381C110.856 87.4981 110.589 87.8915 110.202 88.2181C109.816 88.5381 109.269 88.6981 108.562 88.6981C108.076 88.6981 107.642 88.5848 107.262 88.3581C106.889 88.1248 106.599 87.8015 106.392 87.3881C106.186 86.9681 106.082 86.4881 106.082 85.9481C106.082 85.4015 106.182 84.9181 106.382 84.4981C106.589 84.0781 106.876 83.7548 107.242 83.5281C107.616 83.2948 108.052 83.1781 108.552 83.1781C109.039 83.1781 109.469 83.2881 109.842 83.5081C110.222 83.7215 110.516 84.0315 110.722 84.4381C110.936 84.8381 111.042 85.3148 111.042 85.8681C111.042 86.0081 111.039 86.1148 111.032 86.1881H107.112C107.126 86.6815 107.262 87.0848 107.522 87.3981C107.789 87.7115 108.136 87.8681 108.562 87.8681C108.969 87.8681 109.282 87.7748 109.502 87.5881C109.722 87.3948 109.879 87.1715 109.972 86.9181L111.002 87.0381ZM108.552 84.0081C108.139 84.0081 107.809 84.1448 107.562 84.4181C107.322 84.6848 107.179 85.0148 107.132 85.4081H110.002C109.956 85.0081 109.809 84.6748 109.562 84.4081C109.316 84.1415 108.979 84.0081 108.552 84.0081ZM112.691 84.0981H112.731C112.871 83.8315 113.077 83.6115 113.351 83.4381C113.624 83.2648 113.941 83.1781 114.301 83.1781C114.467 83.1781 114.624 83.1948 114.771 83.2281V84.2081C114.584 84.1815 114.411 84.1681 114.251 84.1681C113.791 84.1681 113.424 84.2981 113.151 84.5581C112.877 84.8115 112.741 85.2181 112.741 85.7781V88.5781H111.721V83.2981H112.691V84.0981ZM121.145 83.1781C121.452 83.1781 121.738 83.2481 122.005 83.3881C122.278 83.5215 122.498 83.7315 122.665 84.0181C122.832 84.3048 122.915 84.6581 122.915 85.0781V88.5781H121.895V85.3881C121.895 84.9081 121.805 84.5648 121.625 84.3581C121.445 84.1448 121.175 84.0381 120.815 84.0381C120.602 84.0381 120.405 84.1015 120.225 84.2281C120.045 84.3548 119.898 84.5415 119.785 84.7881C119.672 85.0281 119.615 85.3215 119.615 85.6681V88.5781H118.595V85.3881C118.595 84.9081 118.505 84.5648 118.325 84.3581C118.145 84.1448 117.875 84.0381 117.515 84.0381C117.302 84.0381 117.105 84.1015 116.925 84.2281C116.745 84.3548 116.598 84.5415 116.485 84.7881C116.372 85.0348 116.315 85.3315 116.315 85.6781V88.5781H115.295V83.2981H116.265V84.0081H116.305C116.498 83.7215 116.725 83.5115 116.985 83.3781C117.252 83.2448 117.538 83.1781 117.845 83.1781C118.172 83.1781 118.472 83.2515 118.745 83.3981C119.018 83.5381 119.228 83.7548 119.375 84.0481C119.615 83.7548 119.875 83.5381 120.155 83.3981C120.442 83.2515 120.772 83.1781 121.145 83.1781ZM127.193 88.5781C127.146 88.5315 127.106 88.4448 127.073 88.3181C127.046 88.1915 127.033 88.0448 127.033 87.8781C126.873 88.1515 126.623 88.3581 126.283 88.4981C125.95 88.6315 125.606 88.6981 125.253 88.6981C124.94 88.6981 124.65 88.6348 124.383 88.5081C124.116 88.3748 123.903 88.1915 123.743 87.9581C123.59 87.7181 123.513 87.4381 123.513 87.1181C123.513 86.5781 123.7 86.1815 124.073 85.9281C124.446 85.6681 125.01 85.4981 125.763 85.4181C126.25 85.3715 126.58 85.3015 126.753 85.2081C126.933 85.1148 127.023 84.9815 127.023 84.8081C127.023 84.2815 126.653 84.0181 125.913 84.0181C125.626 84.0181 125.366 84.0948 125.133 84.2481C124.9 84.3948 124.736 84.6148 124.643 84.9081L123.713 84.6881C123.826 84.2215 124.086 83.8548 124.493 83.5881C124.9 83.3148 125.386 83.1781 125.953 83.1781C126.673 83.1781 127.2 83.3281 127.533 83.6281C127.873 83.9215 128.043 84.3081 128.043 84.7881V87.4381C128.043 87.7715 128.05 88.0181 128.063 88.1781C128.083 88.3315 128.123 88.4648 128.183 88.5781H127.193ZM127.023 85.8581C126.95 85.9381 126.793 86.0048 126.553 86.0581C126.32 86.1048 126.02 86.1515 125.653 86.1981C125.34 86.2381 125.076 86.3348 124.863 86.4881C124.656 86.6348 124.553 86.8448 124.553 87.1181C124.553 87.3715 124.633 87.5648 124.793 87.6981C124.953 87.8248 125.173 87.8881 125.453 87.8881C125.706 87.8881 125.953 87.8415 126.193 87.7481C126.433 87.6481 126.63 87.4948 126.783 87.2881C126.943 87.0748 127.023 86.8115 127.023 86.4981V85.8581ZM129.85 83.9981C130.043 83.7181 130.28 83.5115 130.56 83.3781C130.84 83.2448 131.15 83.1781 131.49 83.1781C131.823 83.1781 132.13 83.2481 132.41 83.3881C132.697 83.5215 132.927 83.7315 133.1 84.0181C133.273 84.2981 133.36 84.6515 133.36 85.0781V88.5781H132.34V85.3881C132.34 84.9015 132.243 84.5548 132.05 84.3481C131.857 84.1415 131.563 84.0381 131.17 84.0381C130.943 84.0381 130.73 84.1015 130.53 84.2281C130.33 84.3548 130.167 84.5415 130.04 84.7881C129.92 85.0348 129.86 85.3315 129.86 85.6781V88.5781H128.84V83.2981H129.81V83.9981H129.85ZM136.657 88.5781C136.451 89.1248 136.247 89.5381 136.047 89.8181C135.847 90.1048 135.641 90.2948 135.427 90.3881C135.214 90.4881 134.961 90.5381 134.667 90.5381C134.387 90.5381 134.181 90.5281 134.047 90.5081V89.6081C134.067 89.6081 134.114 89.6148 134.187 89.6281C134.267 89.6481 134.381 89.6581 134.527 89.6581C134.794 89.6581 134.994 89.5915 135.127 89.4581C135.261 89.3248 135.407 89.0748 135.567 88.7081L135.647 88.5081L133.527 83.2981H134.627L136.117 87.2981H136.157L137.557 83.2981H138.657L136.657 88.5781Z" fill="white"/>
</g>
</svg>
