<svg width="893" height="178" fill="none" xmlns="http://www.w3.org/2000/svg">
  <mask id="a" style="mask-type:alpha" maskUnits="userSpaceOnUse" x="0" y="0" width="893" height="178">
    <path fill-rule="evenodd" clip-rule="evenodd" d="M893 12c0-6.627-5.373-12-12-12H12C5.373 0 0 5.373 0 12v67c0 6.627 5.373 12 12 12h65c6.627 0 12 5.373 12 12v63c0 6.627 5.373 12 12 12h691c6.627 0 12-5.373 12-12v-63c0-6.627 5.373-12 12-12h65c6.627 0 12-5.373 12-12V12z" fill="#C4C4C4"/>
  </mask>
  <g mask="url(#a)">
    <path d="M396.5 670C62.644 670-208 399.356-208 65.5S62.644-539 396.5-539h50C780.356-539 1051-268.356 1051 65.5S780.356 670 446.5 670h-50z" fill="url(#Group_35981__paint0_angular_188:658)"/>
  </g>
  <path d="M65.129 54.54L69.389 66h7.2l-16.8-42.84h-8.34L34.709 66h7.08l4.26-11.46h19.08zm-2.1-5.58h-14.94l7.38-19.8h.24l7.32 19.8zm16.443-26.4V66h6.12V22.56h-6.12zm11.426 0V66h6.12V22.56h-6.12zM140.45 66c-.78-1.44-.84-3.24-.84-6.78v-15.9c0-5.34-3.36-9.66-12.54-9.66-6.78 0-12.06 3.36-13.44 9.06l5.58 1.26c1.14-3.72 4.38-5.34 7.62-5.34 4.8 0 6.66 1.98 6.66 4.8 0 1.98-1.56 3.06-7.62 3.66-8.46.84-13.5 3.36-13.5 10.2 0 5.82 4.8 9.42 10.5 9.42 3.78 0 8.52-1.38 10.68-4.92 0 2.1.48 3.72.96 4.2h5.94zm-6.96-12.48c0 6.06-5.28 8.4-9.42 8.4-3.36 0-5.4-1.62-5.4-4.62 0-3.54 3.24-5.1 6.54-5.52 3.54-.42 7.26-.96 8.28-2.04v3.78zm16.721-19.14h-5.82V66h6.12V49.2c0-7.08 3.84-9.6 9.06-9.6 1.14 0 2.28.12 3.06.24v-5.88c-.72-.18-1.8-.3-2.76-.3-4.56 0-7.86 2.46-9.42 5.52h-.24v-4.8zm37.77 21.66c-.78 2.28-2.94 5.76-8.4 5.76-5.28 0-8.52-4.38-8.7-10.14h23.46c.84-11.34-5.64-18-14.82-18-9.06 0-14.88 6.6-14.88 16.62 0 9.84 6 16.5 14.94 16.5 9.3 0 13.14-5.4 14.58-9.96l-6.18-.78zm-8.46-17.46c5.4 0 8.16 4.02 8.64 8.4h-17.16c.48-4.38 3.18-8.4 8.52-8.4zM236.778 66c-.78-1.44-.84-3.24-.84-6.78v-15.9c0-5.34-3.36-9.66-12.54-9.66-6.78 0-12.06 3.36-13.44 9.06l5.58 1.26c1.14-3.72 4.38-5.34 7.62-5.34 4.8 0 6.66 1.98 6.66 4.8 0 1.98-1.56 3.06-7.62 3.66-8.46.84-13.5 3.36-13.5 10.2 0 5.82 4.8 9.42 10.5 9.42 3.78 0 8.52-1.38 10.68-4.92 0 2.1.48 3.72.96 4.2h5.94zm-6.96-12.48c0 6.06-5.28 8.4-9.42 8.4-3.36 0-5.4-1.62-5.4-4.62 0-3.54 3.24-5.1 6.54-5.52 3.54-.42 7.26-.96 8.28-2.04v3.78zm35.741-10.86c-.84-4.8-6.06-9-12.96-9-7.38 0-12.54 3.9-12.54 9.3 0 6.6 5.16 8.28 10.08 9.12l3.18.54c3.84.66 6.66 1.56 6.66 4.44 0 3.18-2.94 5.1-7.02 5.1-4.5 0-7.68-1.98-8.7-6.48l-5.58 1.2c1.02 5.76 6.06 9.84 14.16 9.84 7.56 0 13.38-3.3 13.38-9.84 0-6.78-5.16-8.46-10.62-9.42l-3.12-.48c-3.36-.6-6.12-1.26-6.12-4.08 0-2.94 2.46-4.56 6.18-4.56 3.36 0 6.54 1.74 7.44 5.46l5.58-1.14zm29.473 0c-.84-4.8-6.06-9-12.96-9-7.38 0-12.54 3.9-12.54 9.3 0 6.6 5.16 8.28 10.08 9.12l3.18.54c3.84.66 6.66 1.56 6.66 4.44 0 3.18-2.94 5.1-7.02 5.1-4.5 0-7.68-1.98-8.7-6.48l-5.58 1.2c1.02 5.76 6.06 9.84 14.16 9.84 7.56 0 13.38-3.3 13.38-9.84 0-6.78-5.16-8.46-10.62-9.42l-3.12-.48c-3.36-.6-6.12-1.26-6.12-4.08 0-2.94 2.46-4.56 6.18-4.56 3.36 0 6.54 1.74 7.44 5.46l5.58-1.14zm4.693-20.1v6.66h6.18v-6.66h-6.18zm.06 11.82V66h6.12V34.38h-6.12zm39.986 0h-5.82v3.66h-.24c-1.68-2.76-5.16-4.38-9.54-4.38-8.22 0-14.04 6.12-14.04 15.36 0 9.24 5.82 15.3 14.04 15.3 4.26 0 7.56-1.56 9.24-3.96h.24v3.18c0 6.54-3.18 9.24-8.64 9.24-4.32 0-7.32-1.62-8.52-6.24l-5.88 1.2c1.98 7.14 7.62 10.02 14.4 10.02 8.22 0 14.76-3.84 14.76-13.92V34.38zm-14.52 25.14c-5.46 0-8.88-4.32-8.88-10.5s3.42-10.44 8.88-10.44c5.34 0 8.82 4.26 8.82 10.44s-3.48 10.5-8.82 10.5zm25.175-21v-4.14h-5.82V66h6.12V48.6c0-6.48 3.84-9.84 7.86-9.84 4.56 0 7.02 2.16 7.02 8.1V66h6.12V45c0-7.98-5.46-11.34-11.22-11.34-3.9 0-7.44 1.38-9.84 4.86h-.24zm48.434 17.52c-.78 2.28-2.94 5.76-8.4 5.76-5.28 0-8.52-4.38-8.7-10.14h23.46c.84-11.34-5.64-18-14.82-18-9.06 0-14.88 6.6-14.88 16.62 0 9.84 6 16.5 14.94 16.5 9.3 0 13.14-5.4 14.58-9.96l-6.18-.78zm-8.46-17.46c5.4 0 8.16 4.02 8.64 8.4h-17.16c.48-4.38 3.18-8.4 8.52-8.4zm32.391-4.92c-8.4 0-14.34 6.54-14.34 16.56 0 9.96 5.94 16.5 14.34 16.5 4.5 0 8.16-1.86 9.84-4.8h.24V66h5.82V22.56h-6.12v15.48h-.24c-1.68-2.64-5.16-4.38-9.54-4.38zm1.08 28.14c-5.64 0-9.18-4.44-9.18-11.58 0-7.2 3.54-11.64 9.18-11.64 5.52 0 9.12 4.44 9.12 11.64 0 7.14-3.6 11.58-9.12 11.58zm57.946 4.2c-.78-1.44-.84-3.24-.84-6.78v-15.9c0-5.34-3.36-9.66-12.54-9.66-6.78 0-12.06 3.36-13.44 9.06l5.58 1.26c1.14-3.72 4.38-5.34 7.62-5.34 4.8 0 6.66 1.98 6.66 4.8 0 1.98-1.56 3.06-7.62 3.66-8.46.84-13.5 3.36-13.5 10.2 0 5.82 4.8 9.42 10.5 9.42 3.78 0 8.52-1.38 10.68-4.92 0 2.1.48 3.72.96 4.2h5.94zm-6.96-12.48c0 6.06-5.28 8.4-9.42 8.4-3.36 0-5.4-1.62-5.4-4.62 0-3.54 3.24-5.1 6.54-5.52 3.54-.42 7.26-.96 8.28-2.04v3.78zm22.567-30.36V66h16.26c12.18 0 20.34-7.2 20.34-21.42 0-14.16-8.16-21.42-20.34-21.42h-16.26zm6.6 37.32V28.74h8.82c9.24 0 14.46 5.46 14.46 15.9 0 10.38-5.22 15.84-14.46 15.84h-8.82zm34.588-37.92v6.66h6.18v-6.66h-6.18zm.06 11.82V66h6.12V34.38h-6.12zm39.985 0h-5.82v3.66h-.24c-1.68-2.76-5.16-4.38-9.54-4.38-8.22 0-14.04 6.12-14.04 15.36 0 9.24 5.82 15.3 14.04 15.3 4.26 0 7.56-1.56 9.24-3.96h.24v3.18c0 6.54-3.18 9.24-8.64 9.24-4.32 0-7.32-1.62-8.52-6.24l-5.88 1.2c1.98 7.14 7.62 10.02 14.4 10.02 8.22 0 14.76-3.84 14.76-13.92V34.38zm-14.52 25.14c-5.46 0-8.88-4.32-8.88-10.5s3.42-10.44 8.88-10.44c5.34 0 8.82 4.26 8.82 10.44s-3.48 10.5-8.82 10.5zm19.416-36.96v6.66h6.18v-6.66h-6.18zm.06 11.82V66h6.12V34.38h-6.12zm24.146 26.46c-2.4 0-3.54-.36-3.54-3.3v-18.6h6.9v-4.56h-6.9v-9h-6.12v9h-5.22v4.56h5.22v20.22c0 5.64 2.58 6.96 8.16 6.96 1.56 0 3.84-.06 4.5-.12v-5.22c-.84.06-2.28.06-3 .06zM641.485 66c-.78-1.44-.84-3.24-.84-6.78v-15.9c0-5.34-3.36-9.66-12.54-9.66-6.78 0-12.06 3.36-13.44 9.06l5.58 1.26c1.14-3.72 4.38-5.34 7.62-5.34 4.8 0 6.66 1.98 6.66 4.8 0 1.98-1.56 3.06-7.62 3.66-8.46.84-13.5 3.36-13.5 10.2 0 5.82 4.8 9.42 10.5 9.42 3.78 0 8.52-1.38 10.68-4.92 0 2.1.48 3.72.96 4.2h5.94zm-6.96-12.48c0 6.06-5.28 8.4-9.42 8.4-3.36 0-5.4-1.62-5.4-4.62 0-3.54 3.24-5.1 6.54-5.52 3.54-.42 7.26-.96 8.28-2.04v3.78zm11.022-30.96V66h6.12V22.56h-6.12zM668.638 66h6.6V23.16h-6.6V66zm25.383-32.34c-8.4 0-14.34 6.54-14.34 16.56 0 9.96 5.94 16.5 14.34 16.5 4.5 0 8.16-1.86 9.84-4.8h.24V66h5.82V22.56h-6.12v15.48h-.24c-1.68-2.64-5.16-4.38-9.54-4.38zm1.08 28.14c-5.64 0-9.18-4.44-9.18-11.58 0-7.2 3.54-11.64 9.18-11.64 5.52 0 9.12 4.44 9.12 11.64 0 7.14-3.6 11.58-9.12 11.58zm42.021-5.76c-.78 2.28-2.941 5.76-8.401 5.76-5.28 0-8.52-4.38-8.7-10.14h23.461c.84-11.34-5.64-18-14.821-18-9.06 0-14.88 6.6-14.88 16.62 0 9.84 6 16.5 14.94 16.5 9.3 0 13.141-5.4 14.581-9.96l-6.18-.78zm-8.461-17.46c5.4 0 8.161 4.02 8.641 8.4h-17.161c.48-4.38 3.18-8.4 8.52-8.4zm24.832-.06v-4.14h-5.82V66h6.12V48.6c0-6.48 3.84-9.84 7.86-9.84 4.56 0 7.02 2.16 7.02 8.1V66h6.12V45c0-7.98-5.46-11.34-11.22-11.34-3.9 0-7.44 1.38-9.84 4.86h-.24zm38.719 22.32c-2.4 0-3.54-.36-3.54-3.3v-18.6h6.9v-4.56h-6.9v-9h-6.12v9h-5.22v4.56h5.22v20.22c0 5.64 2.58 6.96 8.16 6.96 1.56 0 3.84-.06 4.5-.12v-5.22c-.84.06-2.28.06-3 .06zm6.966-38.28v6.66h6.18v-6.66h-6.18zm.06 11.82V66h6.12V34.38h-6.12zm24.146 26.46c-2.4 0-3.54-.36-3.54-3.3v-18.6h6.9v-4.56h-6.9v-9h-6.12v9h-5.22v4.56h5.22v20.22c0 5.64 2.58 6.96 8.16 6.96 1.56 0 3.84-.06 4.5-.12v-5.22c-.84.06-2.28.06-3 .06zm35.106-26.46h-6.54l-8.4 24h-.24l-8.94-24h-6.6l12.72 31.26-.54 1.14c-1.74 4.26-2.94 5.7-6.18 5.7-1.8 0-2.46-.18-2.94-.24v5.34c.84.12 2.04.18 3.78.18 4.74 0 8.04-1.44 11.94-11.76l11.94-31.62zm-719.035 84.28c-9.36 0-15.36 6.54-15.36 16.56 0 9.96 6 16.5 15.36 16.5 9.24 0 15.3-6.54 15.3-16.5 0-10.02-6.06-16.56-15.3-16.56zm0 28.14c-5.64 0-9.12-4.44-9.12-11.58 0-7.2 3.48-11.64 9.12-11.64 5.52 0 9.06 4.44 9.06 11.64 0 7.14-3.54 11.58-9.06 11.58zm25.288-23.28v-4.14h-5.82V151h6.12v-17.4c0-6.48 3.84-9.84 7.86-9.84 4.56 0 7.02 2.16 7.02 8.1V151h6.12v-21c0-7.98-5.46-11.34-11.22-11.34-3.9 0-7.44 1.38-9.84 4.86h-.24zm50.379 22.32c-2.4 0-3.54-.36-3.54-3.3v-18.6h6.9v-4.56h-6.9v-9h-6.12v9h-5.22v4.56h5.22v20.22c0 5.64 2.58 6.96 8.16 6.96 1.56 0 3.84-.06 4.5-.12v-5.22c-.84.06-2.28.06-3 .06zm13.026-22.32v-15.96h-6.12V151h6.12v-16.8c0-6.48 3.96-10.44 7.86-10.44 4.56 0 7.02 2.16 7.02 8.1V151h6.12v-21c0-7.98-5.46-11.34-11.04-11.34-3.78 0-7.26 1.38-9.72 4.86h-.24zm48.134 17.52c-.78 2.28-2.94 5.76-8.4 5.76-5.28 0-8.52-4.38-8.7-10.14h23.46c.84-11.34-5.64-18-14.82-18-9.06 0-14.88 6.6-14.88 16.62 0 9.84 6 16.5 14.94 16.5 9.3 0 13.14-5.4 14.58-9.96l-6.18-.78zm-8.46-17.46c5.4 0 8.16 4.02 8.64 8.4h-17.16c.48-4.38 3.18-8.4 8.52-8.4zm37.277 2.64v-12.48h23.16v-5.58h-29.76V151h29.76v-5.7h-23.16v-13.62h22.2v-5.46h-22.2zm33.374-2.7v-4.14h-5.82V151h6.12v-17.4c0-6.48 3.84-9.84 7.86-9.84 4.56 0 7.02 2.16 7.02 8.1V151h6.12v-21c0-7.98-5.46-11.34-11.22-11.34-3.9 0-7.44 1.38-9.84 4.86h-.24zm48.434 17.52c-.78 2.28-2.94 5.76-8.4 5.76-5.28 0-8.52-4.38-8.7-10.14h23.46c.84-11.34-5.64-18-14.82-18-9.06 0-14.88 6.6-14.88 16.62 0 9.84 6 16.5 14.94 16.5 9.3 0 13.14-5.4 14.58-9.96l-6.18-.78zm-8.46-17.46c5.4 0 8.16 4.02 8.64 8.4h-17.16c.48-4.38 3.18-8.4 8.52-8.4zm24.831-4.2h-5.82V151h6.12v-16.8c0-7.08 3.84-9.6 9.06-9.6 1.14 0 2.28.12 3.06.24v-5.88c-.72-.18-1.8-.3-2.76-.3-4.56 0-7.86 2.46-9.42 5.52h-.24v-4.8zm44.129 0h-5.82v3.66h-.24c-1.68-2.76-5.16-4.38-9.54-4.38-8.22 0-14.04 6.12-14.04 15.36 0 9.24 5.82 15.3 14.04 15.3 4.26 0 7.56-1.56 9.24-3.96h.24v3.18c0 6.54-3.18 9.24-8.64 9.24-4.32 0-7.32-1.62-8.52-6.24l-5.88 1.2c1.98 7.14 7.62 10.02 14.4 10.02 8.22 0 14.76-3.84 14.76-13.92v-29.46zm-14.52 25.14c-5.46 0-8.88-4.32-8.88-10.5s3.42-10.44 8.88-10.44c5.34 0 8.82 4.26 8.82 10.44s-3.48 10.5-8.82 10.5zm47.556-25.14h-6.54l-8.4 24h-.24l-8.94-24h-6.6l12.72 31.26-.54 1.14c-1.74 4.26-2.94 5.7-6.18 5.7-1.8 0-2.46-.18-2.94-.24v5.34c.84.12 2.04.18 3.78.18 4.74 0 8.04-1.44 11.94-11.76l11.94-31.62zM527.25 151h7.38l11.04-42.84h-6.84l-7.92 34.2h-.24l-8.16-34.2h-7.26l-8.1 34.2h-.24l-7.86-34.2h-6.84L503.19 151h7.56l8.1-33.3h.24l8.16 33.3zm41.122-9.96c-.78 2.28-2.941 5.76-8.401 5.76-5.28 0-8.52-4.38-8.7-10.14h23.461c.84-11.34-5.64-18-14.821-18-9.06 0-14.88 6.6-14.88 16.62 0 9.84 6 16.5 14.94 16.5 9.3 0 13.141-5.4 14.581-9.96l-6.18-.78zm-8.461-17.46c5.4 0 8.161 4.02 8.641 8.4h-17.161c.48-4.38 3.18-8.4 8.52-8.4zm34.912-4.92c-4.44 0-7.86 1.74-9.54 4.38h-.24v-15.48h-6.12V151h5.82v-4.08h.24c1.68 2.94 5.28 4.86 9.84 4.86 8.34 0 14.34-6.6 14.34-16.56 0-9.96-6-16.56-14.34-16.56zm-1.08 28.14c-5.52 0-9.12-4.44-9.12-11.58 0-7.2 3.6-11.64 9.12-11.64 5.64 0 9.18 4.44 9.18 11.64 0 7.14-3.54 11.58-9.18 11.58zm62.62-10.68c-1.26 5.34-4.92 10.32-12.06 10.32-8.28 0-13.44-6.24-13.44-16.92 0-10.5 5.16-16.74 13.44-16.74 5.94 0 9.84 3.6 11.46 7.8l6.42-1.44c-1.98-5.4-7.92-11.88-17.88-11.88-11.94 0-20.16 8.52-20.16 22.26 0 13.92 8.22 22.44 20.16 22.44 11.16 0 17.16-7.86 18.66-14.82l-6.6-1.02zm16.687-12.6v-15.96h-6.12V151h6.12v-16.8c0-6.48 3.96-10.44 7.86-10.44 4.56 0 7.02 2.16 7.02 8.1V151h6.12v-21c0-7.98-5.46-11.34-11.04-11.34-3.78 0-7.26 1.38-9.72 4.86h-.24zM725.684 151c-.78-1.44-.84-3.24-.84-6.78v-15.9c0-5.34-3.36-9.66-12.54-9.66-6.78 0-12.06 3.36-13.44 9.06l5.58 1.26c1.14-3.72 4.38-5.34 7.62-5.34 4.8 0 6.66 1.98 6.66 4.8 0 1.98-1.56 3.06-7.62 3.66-8.46.84-13.5 3.36-13.5 10.2 0 5.82 4.8 9.42 10.5 9.42 3.78 0 8.52-1.38 10.68-4.92 0 2.1.48 3.72.96 4.2h5.94zm-6.96-12.48c0 6.06-5.28 8.4-9.42 8.4-3.36 0-5.4-1.62-5.4-4.62 0-3.54 3.24-5.1 6.54-5.52 3.54-.42 7.26-.96 8.28-2.04v3.78zm10.962-30.96v6.66h6.18v-6.66h-6.18zm.06 11.82V151h6.12v-31.62h-6.12zm17.126 4.14v-4.14h-5.82V151h6.12v-17.4c0-6.48 3.839-9.84 7.859-9.84 4.56 0 7.021 2.16 7.021 8.1V151h6.12v-21c0-7.98-5.461-11.34-11.221-11.34-3.9 0-7.439 1.38-9.839 4.86h-.24z" fill="#452E66"/>
  <path d="M494.664 72H858.55v3H494.664v-3zm-198.925 85h474.712v3H295.739v-3z" fill="#452E66"/>
  <defs>
    <radialGradient id="Group_35981__paint0_angular_188:658" cx="0" cy="0" r="1" gradientUnits="userSpaceOnUse" gradientTransform="matrix(677.625 0 0 1563.71 373.359 -62.757)">
      <stop stop-color="#EBB9F2"/>
      <stop offset=".542" stop-color="#F6AAAA"/>
      <stop offset="1" stop-color="#A566FF"/>
    </radialGradient>
  </defs>
</svg>
