<svg width="839" height="269" viewBox="0 0 839 269" fill="none" xmlns="http://www.w3.org/2000/svg">
<mask id="mask0_190:2771" style="mask-type:alpha" maskUnits="userSpaceOnUse" x="0" y="0" width="839" height="269">
<path fill-rule="evenodd" clip-rule="evenodd" d="M770 12.8281C770 6.20071 764.627 0.828125 758 0.828125H81C74.3726 0.828125 69 6.20071 69 12.8281V75.8281C69 82.4555 63.6274 87.8281 57 87.8281H12C5.37258 87.8281 0 93.2007 0 99.8281V166.828C0 173.456 5.37258 178.828 12 178.828H130C136.627 178.828 142 184.201 142 190.828V256.828C142 263.456 147.373 268.828 154 268.828H686C692.627 268.828 698 263.456 698 256.828V190.828C698 184.201 703.373 178.828 710 178.828H827C833.627 178.828 839 173.456 839 166.828V99.8281C839 93.2007 833.627 87.8281 827 87.8281H782C775.373 87.8281 770 82.4555 770 75.8281V12.8281Z" fill="#C4C4C4"/>
</mask>
<g mask="url(#mask0_190:2771)">
<path d="M369.5 670.828C35.6439 670.828 -235 400.184 -235 66.3281V66.3281C-235 -267.528 35.6439 -538.172 369.5 -538.172L419.5 -538.172C753.356 -538.172 1024 -267.528 1024 66.3282V66.3282C1024 400.184 753.356 670.828 419.5 670.828L369.5 670.828Z" fill="url(#paint0_angular_190:2771)"/>
</g>
<path d="M121.002 55.3682L125.262 66.8282H132.462L115.662 23.9882H107.322L90.5816 66.8282H97.6616L101.922 55.3682H121.002ZM118.902 49.7882H103.962L111.342 29.9882H111.582L118.902 49.7882Z" fill="#452E66"/>
<path d="M147.388 62.6282C142.048 62.6282 138.688 58.1882 138.688 51.0482C138.688 43.8482 142.048 39.4082 147.388 39.4082C152.908 39.4082 154.768 43.5482 155.428 45.4082L161.128 43.4882C160.108 40.7282 156.568 34.4882 147.388 34.4882C138.328 34.4882 132.388 41.0282 132.388 51.0482C132.388 61.0082 138.328 67.5482 147.388 67.5482C156.688 67.5482 160.588 61.1882 161.788 56.7482L155.608 55.7882C154.948 58.3682 153.028 62.6282 147.388 62.6282Z" fill="#452E66"/>
<path d="M179.205 62.6282C173.865 62.6282 170.505 58.1882 170.505 51.0482C170.505 43.8482 173.865 39.4082 179.205 39.4082C184.725 39.4082 186.585 43.5482 187.245 45.4082L192.945 43.4882C191.925 40.7282 188.385 34.4882 179.205 34.4882C170.145 34.4882 164.205 41.0282 164.205 51.0482C164.205 61.0082 170.145 67.5482 179.205 67.5482C188.505 67.5482 192.405 61.1882 193.605 56.7482L187.425 55.7882C186.765 58.3682 184.845 62.6282 179.205 62.6282Z" fill="#452E66"/>
<path d="M219.361 56.8682C218.581 59.1482 216.421 62.6282 210.961 62.6282C205.681 62.6282 202.441 58.2482 202.261 52.4882H225.721C226.561 41.1482 220.081 34.4882 210.901 34.4882C201.841 34.4882 196.021 41.0882 196.021 51.1082C196.021 60.9482 202.021 67.6082 210.961 67.6082C220.261 67.6082 224.101 62.2082 225.541 57.6482L219.361 56.8682ZM210.901 39.4082C216.301 39.4082 219.061 43.4282 219.541 47.8082H202.381C202.861 43.4282 205.561 39.4082 210.901 39.4082Z" fill="#452E66"/>
<path d="M230.032 23.3882V66.8282H236.152V23.3882H230.032Z" fill="#452E66"/>
<path d="M263.658 56.8682C262.878 59.1482 260.718 62.6282 255.258 62.6282C249.978 62.6282 246.738 58.2482 246.558 52.4882H270.018C270.858 41.1482 264.378 34.4882 255.198 34.4882C246.138 34.4882 240.318 41.0882 240.318 51.1082C240.318 60.9482 246.318 67.6082 255.258 67.6082C264.558 67.6082 268.398 62.2082 269.838 57.6482L263.658 56.8682ZM255.198 39.4082C260.598 39.4082 263.358 43.4282 263.838 47.8082H246.678C247.158 43.4282 249.858 39.4082 255.198 39.4082Z" fill="#452E66"/>
<path d="M280.029 35.2082H274.209V66.8282H280.329V50.0282C280.329 42.9482 284.169 40.4282 289.389 40.4282C290.529 40.4282 291.669 40.5482 292.449 40.6682V34.7882C291.729 34.6082 290.649 34.4882 289.689 34.4882C285.129 34.4882 281.829 36.9482 280.269 40.0082H280.029V35.2082Z" fill="#452E66"/>
<path d="M321.713 66.8282C320.933 65.3882 320.873 63.5882 320.873 60.0482V44.1482C320.873 38.8082 317.513 34.4882 308.333 34.4882C301.553 34.4882 296.273 37.8482 294.893 43.5482L300.473 44.8082C301.613 41.0882 304.853 39.4682 308.093 39.4682C312.893 39.4682 314.753 41.4482 314.753 44.2682C314.753 46.2482 313.193 47.3282 307.133 47.9282C298.673 48.7682 293.633 51.2882 293.633 58.1282C293.633 63.9482 298.433 67.5482 304.133 67.5482C307.913 67.5482 312.653 66.1682 314.813 62.6282C314.813 64.7282 315.293 66.3482 315.773 66.8282H321.713ZM314.753 54.3482C314.753 60.4082 309.473 62.7482 305.333 62.7482C301.973 62.7482 299.933 61.1282 299.933 58.1282C299.933 54.5882 303.173 53.0282 306.473 52.6082C310.013 52.1882 313.733 51.6482 314.753 50.5682V54.3482Z" fill="#452E66"/>
<path d="M338.495 61.6682C336.095 61.6682 334.955 61.3082 334.955 58.3682V39.7682H341.855V35.2082H334.955V26.2082H328.835V35.2082H323.615V39.7682H328.835V59.9882C328.835 65.6282 331.415 66.9482 336.995 66.9482C338.555 66.9482 340.835 66.8882 341.495 66.8282V61.6082C340.655 61.6682 339.215 61.6682 338.495 61.6682Z" fill="#452E66"/>
<path d="M367.017 56.8682C366.237 59.1482 364.077 62.6282 358.617 62.6282C353.337 62.6282 350.097 58.2482 349.917 52.4882H373.378C374.218 41.1482 367.737 34.4882 358.557 34.4882C349.497 34.4882 343.677 41.0882 343.677 51.1082C343.677 60.9482 349.677 67.6082 358.617 67.6082C367.917 67.6082 371.757 62.2082 373.197 57.6482L367.017 56.8682ZM358.557 39.4082C363.957 39.4082 366.717 43.4282 367.197 47.8082H350.038C350.518 43.4282 353.217 39.4082 358.557 39.4082Z" fill="#452E66"/>
<path d="M401.834 61.6682C399.434 61.6682 398.294 61.3082 398.294 58.3682V39.7682H405.194V35.2082H398.294V26.2082H392.174V35.2082H386.954V39.7682H392.174V59.9882C392.174 65.6282 394.754 66.9482 400.334 66.9482C401.894 66.9482 404.174 66.8882 404.834 66.8282V61.6082C403.994 61.6682 402.554 61.6682 401.834 61.6682Z" fill="#452E66"/>
<path d="M414.86 39.3482V23.3882H408.74V66.8282H414.86V50.0282C414.86 43.5482 418.82 39.5882 422.72 39.5882C427.28 39.5882 429.74 41.7482 429.74 47.6882V66.8282H435.86V45.8282C435.86 37.8482 430.4 34.4882 424.82 34.4882C421.04 34.4882 417.56 35.8682 415.1 39.3482H414.86Z" fill="#452E66"/>
<path d="M462.994 56.8682C462.214 59.1482 460.054 62.6282 454.594 62.6282C449.314 62.6282 446.074 58.2482 445.894 52.4882H469.354C470.194 41.1482 463.714 34.4882 454.534 34.4882C445.474 34.4882 439.654 41.0882 439.654 51.1082C439.654 60.9482 445.654 67.6082 454.594 67.6082C463.894 67.6082 467.734 62.2082 469.174 57.6482L462.994 56.8682ZM454.534 39.4082C459.934 39.4082 462.694 43.4282 463.174 47.8082H446.014C446.494 43.4282 449.194 39.4082 454.534 39.4082Z" fill="#452E66"/>
<path d="M485.031 23.3882V30.0482H491.211V23.3882H485.031ZM485.091 35.2082V66.8282H491.211V35.2082H485.091Z" fill="#452E66"/>
<path d="M531.497 34.4882C526.817 34.4882 523.697 36.2282 520.877 39.6482C518.957 36.0482 515.297 34.4882 511.697 34.4882C508.157 34.4882 504.857 35.9282 502.457 39.4082H502.217V35.2082H496.397V66.8282H502.517V49.4282C502.517 42.9482 505.997 39.5882 509.717 39.5882C513.797 39.5882 516.137 41.7482 516.137 47.6882V66.8282H522.257V49.4282C522.257 42.9482 525.797 39.5882 529.457 39.5882C533.597 39.5882 535.937 41.7482 535.937 47.6882V66.8282H542.057V45.8282C542.057 37.8482 536.777 34.4882 531.497 34.4882Z" fill="#452E66"/>
<path d="M562.805 67.5482C571.145 67.5482 577.145 61.0082 577.145 51.0482C577.145 41.0882 571.145 34.4882 562.805 34.4882C558.245 34.4882 554.705 36.2282 552.965 39.2882H552.725V35.2082H546.905V77.9282H553.025V63.1682H553.265C555.005 65.9282 558.365 67.6082 562.805 67.6082V67.5482ZM561.725 39.4082C567.365 39.4082 570.905 43.8482 570.905 51.0482C570.905 58.1882 567.365 62.6282 561.725 62.6282C556.205 62.6282 552.604 58.1882 552.604 51.0482C552.604 43.8482 556.205 39.4082 561.725 39.4082Z" fill="#452E66"/>
<path d="M603.619 56.8682C602.839 59.1482 600.679 62.6282 595.219 62.6282C589.939 62.6282 586.699 58.2482 586.519 52.4882H609.979C610.819 41.1482 604.339 34.4882 595.159 34.4882C586.099 34.4882 580.279 41.0882 580.279 51.1082C580.279 60.9482 586.279 67.6082 595.219 67.6082C604.519 67.6082 608.359 62.2082 609.799 57.6482L603.619 56.8682ZM595.159 39.4082C600.559 39.4082 603.319 43.4282 603.799 47.8082H586.639C587.119 43.4282 589.819 39.4082 595.159 39.4082Z" fill="#452E66"/>
<path d="M619.99 35.2082H614.17V66.8282H620.29V50.0282C620.29 42.9482 624.13 40.4282 629.35 40.4282C630.49 40.4282 631.63 40.5482 632.41 40.6682V34.7882C631.69 34.6082 630.61 34.4882 629.65 34.4882C625.09 34.4882 621.79 36.9482 620.23 40.0082H619.99V35.2082Z" fill="#452E66"/>
<path d="M661.674 66.8282C660.894 65.3882 660.834 63.5882 660.834 60.0482V44.1482C660.834 38.8082 657.474 34.4882 648.294 34.4882C641.514 34.4882 636.234 37.8482 634.854 43.5482L640.434 44.8082C641.574 41.0882 644.814 39.4682 648.054 39.4682C652.854 39.4682 654.714 41.4482 654.714 44.2682C654.714 46.2482 653.154 47.3282 647.094 47.9282C638.634 48.7682 633.594 51.2882 633.594 58.1282C633.594 63.9482 638.394 67.5482 644.094 67.5482C647.874 67.5482 652.614 66.1682 654.774 62.6282C654.774 64.7282 655.254 66.3482 655.734 66.8282H661.674ZM654.714 54.3482C654.714 60.4082 649.434 62.7482 645.294 62.7482C641.934 62.7482 639.894 61.1282 639.894 58.1282C639.894 54.5882 643.134 53.0282 646.434 52.6082C649.974 52.1882 653.694 51.6482 654.714 50.5682V54.3482Z" fill="#452E66"/>
<path d="M678.455 61.6682C676.055 61.6682 674.915 61.3082 674.915 58.3682V39.7682H681.815V35.2082H674.915V26.2082H668.795V35.2082H663.575V39.7682H668.795V59.9882C668.795 65.6282 671.375 66.9482 676.955 66.9482C678.515 66.9482 680.795 66.8882 681.455 66.8282V61.6082C680.615 61.6682 679.175 61.6682 678.455 61.6682Z" fill="#452E66"/>
<path d="M685.422 23.3882V30.0482H691.602V23.3882H685.422ZM685.482 35.2082V66.8282H691.602V35.2082H685.482Z" fill="#452E66"/>
<path d="M713.047 66.8282L724.987 35.2082H718.447L709.747 59.8682H709.507L700.987 35.2082H694.267L706.027 66.8282H713.047Z" fill="#452E66"/>
<path d="M748.053 56.8682C747.273 59.1482 745.113 62.6282 739.653 62.6282C734.373 62.6282 731.133 58.2482 730.953 52.4882H754.413C755.253 41.1482 748.773 34.4882 739.593 34.4882C730.533 34.4882 724.713 41.0882 724.713 51.1082C724.713 60.9482 730.713 67.6082 739.653 67.6082C748.953 67.6082 752.793 62.2082 754.233 57.6482L748.053 56.8682ZM739.593 39.4082C744.993 39.4082 747.753 43.4282 748.233 47.8082H731.073C731.553 43.4282 734.253 39.4082 739.593 39.4082Z" fill="#452E66"/>
<path d="M60.5019 151.828C59.7219 150.388 59.6619 148.588 59.6619 145.048V129.148C59.6619 123.808 56.3019 119.488 47.1219 119.488C40.3419 119.488 35.0619 122.848 33.6819 128.548L39.2619 129.808C40.4019 126.088 43.6419 124.468 46.8819 124.468C51.6819 124.468 53.5419 126.448 53.5419 129.268C53.5419 131.248 51.9819 132.328 45.9219 132.928C37.4619 133.768 32.4219 136.288 32.4219 143.128C32.4219 148.948 37.2219 152.548 42.9219 152.548C46.7019 152.548 51.4419 151.168 53.6019 147.628C53.6019 149.728 54.0819 151.348 54.5619 151.828H60.5019ZM53.5419 139.348C53.5419 145.408 48.2619 147.748 44.1219 147.748C40.7619 147.748 38.7219 146.128 38.7219 143.128C38.7219 139.588 41.9619 138.028 45.2619 137.608C48.8019 137.188 52.5219 136.648 53.5419 135.568V139.348Z" fill="#452E66"/>
<path d="M70.2636 124.348V120.208H64.4436V151.828H70.5636V134.428C70.5636 127.948 74.4036 124.588 78.4236 124.588C82.9836 124.588 85.4436 126.748 85.4436 132.688V151.828H91.5636V130.828C91.5636 122.848 86.1036 119.488 80.3436 119.488C76.4436 119.488 72.9036 120.868 70.5036 124.348H70.2636Z" fill="#452E66"/>
<path d="M109.757 119.488C101.357 119.488 95.4172 126.028 95.4172 136.048C95.4172 146.008 101.357 152.548 109.757 152.548C114.257 152.548 117.917 150.688 119.597 147.748H119.837V151.828H125.657V108.388H119.537V123.868H119.297C117.617 121.228 114.137 119.488 109.757 119.488ZM110.837 147.628C105.197 147.628 101.657 143.188 101.657 136.048C101.657 128.848 105.197 124.408 110.837 124.408C116.357 124.408 119.957 128.848 119.957 136.048C119.957 143.188 116.357 147.628 110.837 147.628Z" fill="#452E66"/>
<path d="M163.263 147.688V151.828H169.083V120.208H162.963V137.608C162.963 144.088 159.063 147.448 155.043 147.448C150.543 147.448 148.083 145.288 148.083 139.348V120.208H141.903V141.208C141.903 149.188 147.423 152.608 153.123 152.608C157.023 152.608 160.563 151.228 163.023 147.688H163.263Z" fill="#452E66"/>
<path d="M179.717 120.208H173.897V151.828H180.017V135.028C180.017 127.948 183.857 125.428 189.077 125.428C190.217 125.428 191.357 125.548 192.137 125.668V119.788C191.417 119.608 190.337 119.488 189.377 119.488C184.817 119.488 181.517 121.948 179.957 125.008H179.717V120.208Z" fill="#452E66"/>
<path d="M223.846 120.208H218.026V123.868H217.786C216.106 121.108 212.626 119.488 208.246 119.488C200.026 119.488 194.206 125.608 194.206 134.848C194.206 144.088 200.026 150.148 208.246 150.148C212.506 150.148 215.806 148.588 217.486 146.188H217.726V149.368C217.726 155.908 214.546 158.608 209.086 158.608C204.766 158.608 201.766 156.988 200.566 152.368L194.686 153.568C196.666 160.708 202.306 163.588 209.086 163.588C217.306 163.588 223.846 159.748 223.846 149.668V120.208ZM209.326 145.348C203.866 145.348 200.446 141.028 200.446 134.848C200.446 128.668 203.866 124.408 209.326 124.408C214.666 124.408 218.146 128.668 218.146 134.848C218.146 141.028 214.666 145.348 209.326 145.348Z" fill="#452E66"/>
<path d="M251.002 141.868C250.222 144.148 248.062 147.628 242.602 147.628C237.322 147.628 234.082 143.248 233.902 137.488H257.362C258.202 126.148 251.722 119.488 242.542 119.488C233.482 119.488 227.662 126.088 227.662 136.108C227.662 145.948 233.662 152.608 242.602 152.608C251.902 152.608 255.742 147.208 257.182 142.648L251.002 141.868ZM242.542 124.408C247.942 124.408 250.702 128.428 251.182 132.808H234.022C234.502 128.428 237.202 124.408 242.542 124.408Z" fill="#452E66"/>
<path d="M267.373 124.348V120.208H261.553V151.828H267.673V134.428C267.673 127.948 271.513 124.588 275.533 124.588C280.093 124.588 282.553 126.748 282.553 132.688V151.828H288.673V130.828C288.673 122.848 283.213 119.488 277.453 119.488C273.553 119.488 270.013 120.868 267.613 124.348H267.373Z" fill="#452E66"/>
<path d="M306.092 146.668C303.692 146.668 302.552 146.308 302.552 143.368V124.768H309.452V120.208H302.552V111.208H296.432V120.208H291.212V124.768H296.432V144.988C296.432 150.628 299.012 151.948 304.592 151.948C306.152 151.948 308.432 151.888 309.092 151.828V146.608C308.252 146.668 306.812 146.668 306.092 146.668Z" fill="#452E66"/>
<path d="M337.804 119.488C329.404 119.488 323.464 126.028 323.464 136.048C323.464 146.008 329.404 152.548 337.804 152.548C342.304 152.548 345.964 150.688 347.644 147.748H347.884V151.828H353.704V108.388H347.584V123.868H347.344C345.664 121.228 342.184 119.488 337.804 119.488ZM338.884 147.628C333.244 147.628 329.704 143.188 329.704 136.048C329.704 128.848 333.244 124.408 338.884 124.408C344.404 124.408 348.004 128.848 348.004 136.048C348.004 143.188 344.404 147.628 338.884 147.628Z" fill="#452E66"/>
<path d="M380.904 141.868C380.124 144.148 377.964 147.628 372.504 147.628C367.224 147.628 363.984 143.248 363.804 137.488H387.264C388.104 126.148 381.624 119.488 372.444 119.488C363.384 119.488 357.564 126.088 357.564 136.108C357.564 145.948 363.564 152.608 372.504 152.608C381.804 152.608 385.644 147.208 387.084 142.648L380.904 141.868ZM372.444 124.408C377.844 124.408 380.604 128.428 381.084 132.808H363.924C364.404 128.428 367.104 124.408 372.444 124.408Z" fill="#452E66"/>
<path d="M405.435 147.628C400.095 147.628 396.735 143.188 396.735 136.048C396.735 128.848 400.095 124.408 405.435 124.408C410.955 124.408 412.815 128.548 413.475 130.408L419.175 128.488C418.155 125.728 414.615 119.488 405.435 119.488C396.375 119.488 390.435 126.028 390.435 136.048C390.435 146.008 396.375 152.548 405.435 152.548C414.735 152.548 418.635 146.188 419.835 141.748L413.655 140.788C412.995 143.368 411.075 147.628 405.435 147.628Z" fill="#452E66"/>
<path d="M450.092 151.828C449.312 150.388 449.252 148.588 449.252 145.048V129.148C449.252 123.808 445.892 119.488 436.712 119.488C429.932 119.488 424.652 122.848 423.272 128.548L428.852 129.808C429.992 126.088 433.232 124.468 436.472 124.468C441.272 124.468 443.132 126.448 443.132 129.268C443.132 131.248 441.572 132.328 435.512 132.928C427.052 133.768 422.012 136.288 422.012 143.128C422.012 148.948 426.812 152.548 432.512 152.548C436.292 152.548 441.032 151.168 443.192 147.628C443.192 149.728 443.672 151.348 444.152 151.828H450.092ZM443.132 139.348C443.132 145.408 437.852 147.748 433.712 147.748C430.352 147.748 428.312 146.128 428.312 143.128C428.312 139.588 431.552 138.028 434.852 137.608C438.392 137.188 442.112 136.648 443.132 135.568V139.348Z" fill="#452E66"/>
<path d="M459.853 120.208H454.033V151.828H460.153V135.028C460.153 127.948 463.993 125.428 469.213 125.428C470.353 125.428 471.493 125.548 472.273 125.668V119.788C471.553 119.608 470.473 119.488 469.513 119.488C464.953 119.488 461.653 121.948 460.093 125.008H459.853V120.208Z" fill="#452E66"/>
<path d="M491.379 119.488C486.939 119.488 483.519 121.228 481.839 123.868H481.599V108.388H475.479V151.828H481.299V147.748H481.539C483.219 150.688 486.819 152.608 491.379 152.608C499.719 152.608 505.719 146.008 505.719 136.048C505.719 126.088 499.719 119.488 491.379 119.488ZM490.299 147.628C484.779 147.628 481.179 143.188 481.179 136.048C481.179 128.848 484.779 124.408 490.299 124.408C495.939 124.408 499.479 128.848 499.479 136.048C499.479 143.188 495.939 147.628 490.299 147.628Z" fill="#452E66"/>
<path d="M524.273 119.488C514.913 119.488 508.913 126.028 508.913 136.048C508.913 146.008 514.913 152.548 524.273 152.548C533.513 152.548 539.573 146.008 539.573 136.048C539.573 126.028 533.513 119.488 524.273 119.488ZM524.273 147.628C518.633 147.628 515.153 143.188 515.153 136.048C515.153 128.848 518.633 124.408 524.273 124.408C529.793 124.408 533.333 128.848 533.333 136.048C533.333 143.188 529.793 147.628 524.273 147.628Z" fill="#452E66"/>
<path d="M549.56 124.348V120.208H543.74V151.828H549.86V134.428C549.86 127.948 553.7 124.588 557.72 124.588C562.28 124.588 564.74 126.748 564.74 132.688V151.828H570.86V130.828C570.86 122.848 565.4 119.488 559.64 119.488C555.74 119.488 552.2 120.868 549.8 124.348H549.56Z" fill="#452E66"/>
<path d="M575.734 108.388V115.048H581.914V108.388H575.734ZM575.794 120.208V151.828H581.914V120.208H575.794Z" fill="#452E66"/>
<path d="M585.66 151.828H610.8V146.548H593.1L610.8 125.788V120.208H586.56V125.548H603.24L585.66 146.248V151.828Z" fill="#452E66"/>
<path d="M641.225 151.828C640.445 150.388 640.385 148.588 640.385 145.048V129.148C640.385 123.808 637.025 119.488 627.845 119.488C621.065 119.488 615.785 122.848 614.405 128.548L619.984 129.808C621.124 126.088 624.365 124.468 627.605 124.468C632.405 124.468 634.265 126.448 634.265 129.268C634.265 131.248 632.705 132.328 626.645 132.928C618.185 133.768 613.145 136.288 613.145 143.128C613.145 148.948 617.945 152.548 623.645 152.548C627.425 152.548 632.165 151.168 634.325 147.628C634.325 149.728 634.805 151.348 635.285 151.828H641.225ZM634.265 139.348C634.265 145.408 628.985 147.748 624.845 147.748C621.485 147.748 619.445 146.128 619.445 143.128C619.445 139.588 622.684 138.028 625.984 137.608C629.524 137.188 633.245 136.648 634.265 135.568V139.348Z" fill="#452E66"/>
<path d="M658.006 146.668C655.606 146.668 654.466 146.308 654.466 143.368V124.768H661.366V120.208H654.466V111.208H648.346V120.208H643.126V124.768H648.346V144.988C648.346 150.628 650.926 151.948 656.506 151.948C658.066 151.948 660.346 151.888 661.006 151.828V146.608C660.166 146.668 658.726 146.668 658.006 146.668Z" fill="#452E66"/>
<path d="M664.972 108.388V115.048H671.152V108.388H664.972ZM665.032 120.208V151.828H671.152V120.208H665.032Z" fill="#452E66"/>
<path d="M690.738 119.488C681.378 119.488 675.378 126.028 675.378 136.048C675.378 146.008 681.378 152.548 690.738 152.548C699.978 152.548 706.038 146.008 706.038 136.048C706.038 126.028 699.978 119.488 690.738 119.488ZM690.738 147.628C685.098 147.628 681.618 143.188 681.618 136.048C681.618 128.848 685.098 124.408 690.738 124.408C696.258 124.408 699.798 128.848 699.798 136.048C699.798 143.188 696.258 147.628 690.738 147.628Z" fill="#452E66"/>
<path d="M716.025 124.348V120.208H710.205V151.828H716.325V134.428C716.325 127.948 720.165 124.588 724.185 124.588C728.745 124.588 731.205 126.748 731.205 132.688V151.828H737.325V130.828C737.325 122.848 731.865 119.488 726.105 119.488C722.205 119.488 718.665 120.868 716.265 124.348H716.025Z" fill="#452E66"/>
<path d="M767.965 119.488C758.605 119.488 752.605 126.028 752.605 136.048C752.605 146.008 758.605 152.548 767.965 152.548C777.205 152.548 783.265 146.008 783.265 136.048C783.265 126.028 777.205 119.488 767.965 119.488ZM767.965 147.628C762.325 147.628 758.845 143.188 758.845 136.048C758.845 128.848 762.325 124.408 767.965 124.408C773.485 124.408 777.025 128.848 777.025 136.048C777.025 143.188 773.485 147.628 767.965 147.628Z" fill="#452E66"/>
<path d="M799.337 112.828C800.597 112.828 802.397 112.948 803.357 113.068V108.088C802.397 107.908 800.357 107.728 798.377 107.728C793.157 107.728 789.557 109.828 789.557 115.888V120.208H784.337V124.768H789.557V151.888H795.677V124.768H802.577V120.208H795.677V116.488C795.677 113.248 797.417 112.828 799.337 112.828Z" fill="#452E66"/>
<path d="M181.903 231.668C179.503 231.668 178.363 231.308 178.363 228.368V209.768H185.263V205.208H178.363V196.208H172.243V205.208H167.023V209.768H172.243V229.988C172.243 235.628 174.823 236.948 180.403 236.948C181.963 236.948 184.243 236.888 184.903 236.828V231.608C184.063 231.668 182.623 231.668 181.903 231.668Z" fill="#452E66"/>
<path d="M194.929 209.348V193.388H188.809V236.828H194.929V220.028C194.929 213.548 198.889 209.588 202.789 209.588C207.349 209.588 209.809 211.748 209.809 217.688V236.828H215.929V215.828C215.929 207.848 210.469 204.488 204.889 204.488C201.109 204.488 197.629 205.868 195.169 209.348H194.929Z" fill="#452E66"/>
<path d="M243.062 226.868C242.282 229.148 240.122 232.628 234.662 232.628C229.382 232.628 226.142 228.248 225.962 222.488H249.422C250.262 211.148 243.782 204.488 234.602 204.488C225.542 204.488 219.722 211.088 219.722 221.108C219.722 230.948 225.722 237.608 234.662 237.608C243.962 237.608 247.802 232.208 249.242 227.648L243.062 226.868ZM234.602 209.408C240.002 209.408 242.762 213.428 243.242 217.808H226.082C226.562 213.428 229.262 209.408 234.602 209.408Z" fill="#452E66"/>
<path d="M287.359 226.868C286.579 229.148 284.419 232.628 278.959 232.628C273.679 232.628 270.439 228.248 270.259 222.488H293.719C294.559 211.148 288.079 204.488 278.899 204.488C269.839 204.488 264.019 211.088 264.019 221.108C264.019 230.948 270.019 237.608 278.959 237.608C288.259 237.608 292.099 232.208 293.539 227.648L287.359 226.868ZM278.899 209.408C284.299 209.408 287.059 213.428 287.539 217.808H270.379C270.859 213.428 273.559 209.408 278.899 209.408Z" fill="#452E66"/>
<path d="M303.73 209.348V205.208H297.91V236.828H304.03V219.428C304.03 212.948 307.87 209.588 311.89 209.588C316.45 209.588 318.91 211.748 318.91 217.688V236.828H325.03V215.828C325.03 207.848 319.57 204.488 313.81 204.488C309.91 204.488 306.37 205.868 303.97 209.348H303.73Z" fill="#452E66"/>
<path d="M352.164 226.868C351.384 229.148 349.224 232.628 343.764 232.628C338.484 232.628 335.244 228.248 335.064 222.488H358.524C359.364 211.148 352.884 204.488 343.704 204.488C334.644 204.488 328.824 211.088 328.824 221.108C328.824 230.948 334.824 237.608 343.764 237.608C353.064 237.608 356.904 232.208 358.344 227.648L352.164 226.868ZM343.704 209.408C349.104 209.408 351.864 213.428 352.344 217.808H335.184C335.664 213.428 338.364 209.408 343.704 209.408Z" fill="#452E66"/>
<path d="M368.535 205.208H362.715V236.828H368.835V220.028C368.835 212.948 372.675 210.428 377.895 210.428C379.035 210.428 380.175 210.548 380.955 210.668V204.788C380.235 204.608 379.155 204.488 378.195 204.488C373.635 204.488 370.335 206.948 368.775 210.008H368.535V205.208Z" fill="#452E66"/>
<path d="M412.665 205.208H406.845V208.868H406.605C404.925 206.108 401.445 204.488 397.065 204.488C388.845 204.488 383.025 210.608 383.025 219.848C383.025 229.088 388.845 235.148 397.065 235.148C401.325 235.148 404.625 233.588 406.305 231.188H406.545V234.368C406.545 240.908 403.365 243.608 397.905 243.608C393.585 243.608 390.585 241.988 389.385 237.368L383.505 238.568C385.485 245.708 391.125 248.588 397.905 248.588C406.125 248.588 412.665 244.748 412.665 234.668V205.208ZM398.145 230.348C392.685 230.348 389.265 226.028 389.265 219.848C389.265 213.668 392.685 209.408 398.145 209.408C403.485 209.408 406.965 213.668 406.965 219.848C406.965 226.028 403.485 230.348 398.145 230.348Z" fill="#452E66"/>
<path d="M445.7 205.208H439.16L430.76 229.208H430.52L421.58 205.208H414.98L427.7 236.468L427.16 237.608C425.42 241.868 424.22 243.308 420.98 243.308C419.18 243.308 418.52 243.128 418.04 243.068V248.408C418.88 248.528 420.08 248.588 421.82 248.588C426.56 248.588 429.86 247.148 433.76 236.828L445.7 205.208Z" fill="#452E66"/>
<path d="M459.748 193.388V200.048H465.928V193.388H459.748ZM459.808 205.208V236.828H465.928V205.208H459.808Z" fill="#452E66"/>
<path d="M476.934 209.348V205.208H471.113V236.828H477.234V219.428C477.234 212.948 481.074 209.588 485.094 209.588C489.654 209.588 492.113 211.748 492.113 217.688V236.828H498.234V215.828C498.234 207.848 492.774 204.488 487.014 204.488C483.114 204.488 479.573 205.868 477.173 209.348H476.934Z" fill="#452E66"/>
<path d="M516.427 204.488C508.027 204.488 502.087 211.028 502.087 221.048C502.087 231.008 508.027 237.548 516.427 237.548C520.927 237.548 524.587 235.688 526.267 232.748H526.507V236.828H532.327V193.388H526.207V208.868H525.967C524.287 206.228 520.807 204.488 516.427 204.488ZM517.507 232.628C511.867 232.628 508.327 228.188 508.327 221.048C508.327 213.848 511.867 209.408 517.507 209.408C523.027 209.408 526.627 213.848 526.627 221.048C526.627 228.188 523.027 232.628 517.507 232.628Z" fill="#452E66"/>
<path d="M558.507 232.688V236.828H564.327V205.208H558.207V222.608C558.207 229.088 554.307 232.448 550.287 232.448C545.787 232.448 543.327 230.288 543.327 224.348V205.208H537.147V226.208C537.147 234.188 542.667 237.608 548.367 237.608C552.267 237.608 555.807 236.228 558.267 232.688H558.507Z" fill="#452E66"/>
<path d="M593.981 213.488C593.141 208.688 587.921 204.488 581.021 204.488C573.641 204.488 568.481 208.388 568.481 213.788C568.481 220.388 573.641 222.068 578.561 222.908L581.741 223.448C585.581 224.108 588.401 225.008 588.401 227.888C588.401 231.068 585.461 232.988 581.381 232.988C576.881 232.988 573.701 231.008 572.681 226.508L567.101 227.708C568.121 233.468 573.161 237.548 581.261 237.548C588.821 237.548 594.641 234.248 594.641 227.708C594.641 220.928 589.481 219.248 584.021 218.288L580.901 217.808C577.541 217.208 574.781 216.548 574.781 213.728C574.781 210.788 577.241 209.168 580.961 209.168C584.321 209.168 587.501 210.908 588.401 214.628L593.981 213.488Z" fill="#452E66"/>
<path d="M610.692 231.668C608.292 231.668 607.152 231.308 607.152 228.368V209.768H614.052V205.208H607.152V196.208H601.032V205.208H595.812V209.768H601.032V229.988C601.032 235.628 603.612 236.948 609.192 236.948C610.752 236.948 613.032 236.888 613.692 236.828V231.608C612.852 231.668 611.412 231.668 610.692 231.668Z" fill="#452E66"/>
<path d="M623.418 205.208H617.598V236.828H623.718V220.028C623.718 212.948 627.558 210.428 632.778 210.428C633.918 210.428 635.058 210.548 635.838 210.668V204.788C635.118 204.608 634.038 204.488 633.078 204.488C628.518 204.488 625.218 206.948 623.658 210.008H623.418V205.208Z" fill="#452E66"/>
<path d="M668.415 205.208H661.875L653.475 229.208H653.235L644.295 205.208H637.695L650.415 236.468L649.875 237.608C648.135 241.868 646.935 243.308 643.695 243.308C641.895 243.308 641.235 243.128 640.755 243.068V248.408C641.595 248.528 642.795 248.588 644.535 248.588C649.275 248.588 652.575 247.148 656.475 236.828L668.415 205.208Z" fill="#452E66"/>
<defs>
<radialGradient id="paint0_angular_190:2771" cx="0" cy="0" r="1" gradientUnits="userSpaceOnUse" gradientTransform="translate(346.359 -61.9284) scale(677.625 1563.71)">
<stop stop-color="#EBB9F2"/>
<stop offset="0.541667" stop-color="#F6AAAA"/>
<stop offset="1" stop-color="#A566FF"/>
</radialGradient>
</defs>
</svg>
