<svg width="947" height="268" fill="none" xmlns="http://www.w3.org/2000/svg">
  <mask id="a" style="mask-type:alpha" maskUnits="userSpaceOnUse" x="0" y="0" width="947" height="268">
    <path fill-rule="evenodd" clip-rule="evenodd" d="M909 12c0-6.627-5.373-12-12-12H50c-6.627 0-12 5.373-12 12v63c0 6.627-5.373 12-12 12H12C5.373 87 0 92.373 0 99v67c0 6.627 5.373 12 12 12h227c6.627 0 12 5.373 12 12v66c0 6.627 5.373 12 12 12h422c6.627 0 12-5.373 12-12v-66c0-6.627 5.373-12 12-12h226c6.627 0 12-5.373 12-12V99c0-6.627-5.373-12-12-12h-14c-6.627 0-12-5.373-12-12V12z" fill="#C4C4C4"/>
  </mask>
  <g mask="url(#a)">
    <path d="M423.5 670C89.644 670-181 399.356-181 65.5S89.644-539 423.5-539h50C807.356-539 1078-268.356 1078 65.5S807.356 670 473.5 670h-50z" fill="url(#Group_35979__paint0_angular_187:645)"/>
  </g>
  <path d="M71.878 66h6.6V23.16h-6.6V66zm20.403-42.84h-7.44v7.5h3.42c0 3.48-.96 5.04-3.18 5.16v3.3c4.92-.06 7.2-3.84 7.2-9.96v-6zM114.555 66l11.94-31.62h-6.54l-8.7 24.66h-.24l-8.52-24.66h-6.72L107.535 66h7.02zm35.006-9.96c-.78 2.28-2.94 5.76-8.4 5.76-5.28 0-8.52-4.38-8.7-10.14h23.46c.84-11.34-5.64-18-14.82-18-9.06 0-14.88 6.6-14.88 16.62 0 9.84 6 16.5 14.94 16.5 9.3 0 13.14-5.4 14.58-9.96l-6.18-.78zm-8.46-17.46c5.4 0 8.16 4.02 8.64 8.4h-17.16c.48-4.38 3.18-8.4 8.52-8.4zm46.337-4.92c-4.44 0-7.86 1.74-9.54 4.38h-.24V22.56h-6.12V66h5.82v-4.08h.24c1.68 2.94 5.28 4.86 9.84 4.86 8.34 0 14.34-6.6 14.34-16.56 0-9.96-6-16.56-14.34-16.56zm-1.08 28.14c-5.52 0-9.12-4.44-9.12-11.58 0-7.2 3.6-11.64 9.12-11.64 5.64 0 9.18 4.44 9.18 11.64 0 7.14-3.54 11.58-9.18 11.58zm41.894-5.76c-.78 2.28-2.94 5.76-8.4 5.76-5.28 0-8.52-4.38-8.7-10.14h23.46c.84-11.34-5.64-18-14.82-18-9.06 0-14.88 6.6-14.88 16.62 0 9.84 6 16.5 14.94 16.5 9.3 0 13.14-5.4 14.58-9.96l-6.18-.78zm-8.46-17.46c5.4 0 8.16 4.02 8.64 8.4h-17.16c.48-4.38 3.18-8.4 8.52-8.4zm41.331 17.46c-.78 2.28-2.94 5.76-8.4 5.76-5.28 0-8.52-4.38-8.7-10.14h23.46c.84-11.34-5.64-18-14.82-18-9.06 0-14.88 6.6-14.88 16.62 0 9.84 6 16.5 14.94 16.5 9.3 0 13.14-5.4 14.58-9.96l-6.18-.78zm-8.46-17.46c5.4 0 8.16 4.02 8.64 8.4h-17.16c.48-4.38 3.18-8.4 8.52-8.4zm24.831-.06v-4.14h-5.82V66h6.12V48.6c0-6.48 3.84-9.84 7.86-9.84 4.56 0 7.02 2.16 7.02 8.1V66h6.12V45c0-7.98-5.46-11.34-11.22-11.34-3.9 0-7.44 1.38-9.84 4.86h-.24zM341.854 66c-.78-1.44-.84-3.24-.84-6.78v-15.9c0-5.34-3.36-9.66-12.54-9.66-6.78 0-12.06 3.36-13.44 9.06l5.58 1.26c1.14-3.72 4.38-5.34 7.62-5.34 4.8 0 6.66 1.98 6.66 4.8 0 1.98-1.56 3.06-7.62 3.66-8.46.84-13.5 3.36-13.5 10.2 0 5.82 4.8 9.42 10.5 9.42 3.78 0 8.52-1.38 10.68-4.92 0 2.1.48 3.72.96 4.2h5.94zm-6.96-12.48c0 6.06-5.28 8.4-9.42 8.4-3.36 0-5.4-1.62-5.4-4.62 0-3.54 3.24-5.1 6.54-5.52 3.54-.42 7.26-.96 8.28-2.04v3.78zm32.201 8.34V66h5.82V34.38h-6.12v17.4c0 6.48-3.9 9.84-7.92 9.84-4.5 0-6.96-2.16-6.96-8.1V34.38h-6.18v21c0 7.98 5.52 11.4 11.22 11.4 3.9 0 7.44-1.38 9.9-4.92h.24zm23.474-1.02c-2.4 0-3.54-.36-3.54-3.3v-18.6h6.9v-4.56h-6.9v-9h-6.12v9h-5.22v4.56h5.22v20.22c0 5.64 2.58 6.96 8.16 6.96 1.56 0 3.84-.06 4.5-.12v-5.22c-.84.06-2.28.06-3 .06zm20.603-27.18c-9.36 0-15.36 6.54-15.36 16.56 0 9.96 6 16.5 15.36 16.5 9.24 0 15.3-6.54 15.3-16.5 0-10.02-6.06-16.56-15.3-16.56zm0 28.14c-5.64 0-9.12-4.44-9.12-11.58 0-7.2 3.48-11.64 9.12-11.64 5.52 0 9.06 4.44 9.06 11.64 0 7.14-3.54 11.58-9.06 11.58zm54.567-28.14c-4.68 0-7.8 1.74-10.62 5.16-1.92-3.6-5.58-5.16-9.18-5.16-3.54 0-6.84 1.44-9.24 4.92h-.24v-4.2h-5.82V66h6.12V48.6c0-6.48 3.48-9.84 7.2-9.84 4.08 0 6.42 2.16 6.42 8.1V66h6.12V48.6c0-6.48 3.54-9.84 7.2-9.84 4.14 0 6.48 2.16 6.48 8.1V66h6.12V45c0-7.98-5.28-11.34-10.56-11.34zM507.967 66c-.78-1.44-.84-3.24-.84-6.78v-15.9c0-5.34-3.36-9.66-12.54-9.66-6.78 0-12.06 3.36-13.44 9.06l5.58 1.26c1.14-3.72 4.38-5.34 7.62-5.34 4.8 0 6.66 1.98 6.66 4.8 0 1.98-1.56 3.06-7.62 3.66-8.46.84-13.5 3.36-13.5 10.2 0 5.82 4.8 9.42 10.5 9.42 3.78 0 8.52-1.38 10.68-4.92 0 2.1.48 3.72.96 4.2h5.94zm-6.96-12.48c0 6.06-5.28 8.4-9.42 8.4-3.36 0-5.4-1.62-5.4-4.62 0-3.54 3.24-5.1 6.54-5.52 3.54-.42 7.26-.96 8.28-2.04v3.78zm23.742 7.32c-2.4 0-3.54-.36-3.54-3.3v-18.6h6.9v-4.56h-6.9v-9h-6.12v9h-5.22v4.56h5.22v20.22c0 5.64 2.58 6.96 8.16 6.96 1.56 0 3.84-.06 4.5-.12v-5.22c-.84.06-2.28.06-3 .06zm6.966-38.28v6.66h6.18v-6.66h-6.18zm.06 11.82V66h6.12V34.38h-6.12zm25.286 27.42c-5.34 0-8.7-4.44-8.7-11.58 0-7.2 3.36-11.64 8.7-11.64 5.52 0 7.38 4.14 8.04 6l5.7-1.92c-1.02-2.76-4.56-9-13.74-9-9.06 0-15 6.54-15 16.56 0 9.96 5.94 16.5 15 16.5 9.3 0 13.2-6.36 14.4-10.8l-6.18-.96c-.66 2.58-2.58 6.84-8.22 6.84zm44.656 4.2c-.78-1.44-.84-3.24-.84-6.78v-15.9c0-5.34-3.36-9.66-12.54-9.66-6.78 0-12.06 3.36-13.44 9.06l5.58 1.26c1.14-3.72 4.38-5.34 7.62-5.34 4.8 0 6.66 1.98 6.66 4.8 0 1.98-1.56 3.06-7.62 3.66-8.46.84-13.5 3.36-13.5 10.2 0 5.82 4.8 9.42 10.5 9.42 3.78 0 8.52-1.38 10.68-4.92 0 2.1.48 3.72.96 4.2h5.94zm-6.96-12.48c0 6.06-5.28 8.4-9.42 8.4-3.36 0-5.4-1.62-5.4-4.62 0-3.54 3.24-5.1 6.54-5.52 3.54-.42 7.26-.96 8.28-2.04v3.78zm11.022-30.96V66h6.12V22.56h-6.12zm11.426 0V66h6.12V22.56h-6.12zm39.505 11.82h-6.54l-8.4 24h-.24l-8.94-24h-6.6l12.72 31.26-.54 1.14c-1.74 4.26-2.94 5.7-6.18 5.7-1.8 0-2.46-.18-2.94-.24v5.34c.84.12 2.04.18 3.78.18 4.74 0 8.04-1.44 11.94-11.76l11.94-31.62zm36.308 21.66c-.78 2.28-2.94 5.76-8.4 5.76-5.28 0-8.52-4.38-8.7-10.14h23.46c.84-11.34-5.64-18-14.82-18-9.06 0-14.88 6.6-14.88 16.62 0 9.84 6 16.5 14.94 16.5 9.3 0 13.14-5.4 14.58-9.96l-6.18-.78zm-8.46-17.46c5.4 0 8.16 4.02 8.64 8.4h-17.16c.48-4.38 3.18-8.4 8.52-8.4zm24.831-.06v-4.14h-5.82V66h6.12V48.6c0-6.48 3.84-9.84 7.86-9.84 4.56 0 7.02 2.16 7.02 8.1V66h6.12V45c0-7.98-5.46-11.34-11.22-11.34-3.9 0-7.44 1.38-9.84 4.86h-.24zm31.934-4.14h-5.82V66h6.119V49.2c0-7.08 3.84-9.6 9.06-9.6 1.14 0 2.28.12 3.06.24v-5.88c-.72-.18-1.8-.3-2.76-.3-4.56 0-7.859 2.46-9.42 5.52h-.239v-4.8zm29.849-.72c-9.36 0-15.36 6.54-15.36 16.56 0 9.96 6 16.5 15.36 16.5 9.24 0 15.3-6.54 15.3-16.5 0-10.02-6.06-16.56-15.3-16.56zm0 28.14c-5.64 0-9.12-4.44-9.12-11.58 0-7.2 3.48-11.64 9.12-11.64 5.52 0 9.06 4.44 9.06 11.64 0 7.14-3.54 11.58-9.06 11.58zm19.587-39.24V66h6.12V22.56h-6.12zm11.426 0V66h6.12V22.56h-6.12zm33.626 33.48c-.78 2.28-2.94 5.76-8.4 5.76-5.28 0-8.52-4.38-8.7-10.14h23.46c.84-11.34-5.64-18-14.82-18-9.06 0-14.88 6.6-14.88 16.62 0 9.84 6 16.5 14.94 16.5 9.3 0 13.14-5.4 14.58-9.96l-6.18-.78zm-8.46-17.46c5.4 0 8.16 4.02 8.64 8.4h-17.16c.48-4.38 3.18-8.4 8.52-8.4zm32.391-4.92c-8.4 0-14.34 6.54-14.34 16.56 0 9.96 5.94 16.5 14.34 16.5 4.5 0 8.16-1.86 9.84-4.8h.24V66h5.82V22.56h-6.12v15.48h-.24c-1.68-2.64-5.16-4.38-9.54-4.38zm1.08 28.14c-5.64 0-9.18-4.44-9.18-11.58 0-7.2 3.54-11.64 9.18-11.64 5.52 0 9.12 4.44 9.12 11.64 0 7.14-3.6 11.58-9.12 11.58zM51.92 107.56v6.66h6.18v-6.66h-6.18zm.06 11.82V151h6.12v-31.62h-6.12zm17.126 4.14v-4.14h-5.82V151h6.12v-17.4c0-6.48 3.84-9.84 7.86-9.84 4.56 0 7.02 2.16 7.02 8.1V151h6.12v-21c0-7.98-5.46-11.34-11.22-11.34-3.9 0-7.44 1.38-9.84 4.86h-.24zm38.719 22.32c-2.4 0-3.54-.36-3.54-3.3v-18.6h6.9v-4.56h-6.9v-9h-6.12v9h-5.22v4.56h5.22v20.22c0 5.64 2.58 6.96 8.16 6.96 1.56 0 3.84-.06 4.5-.12v-5.22c-.84.06-2.28.06-3 .06zm20.603-27.18c-9.36 0-15.36 6.54-15.36 16.56 0 9.96 6 16.5 15.36 16.5 9.24 0 15.3-6.54 15.3-16.5 0-10.02-6.06-16.56-15.3-16.56zm0 28.14c-5.64 0-9.12-4.44-9.12-11.58 0-7.2 3.48-11.64 9.12-11.64 5.52 0 9.06 4.44 9.06 11.64 0 7.14-3.54 11.58-9.06 11.58zm57.713 4.2c-.78-1.44-.84-3.24-.84-6.78v-15.9c0-5.34-3.36-9.66-12.54-9.66-6.78 0-12.06 3.36-13.44 9.06l5.58 1.26c1.14-3.72 4.38-5.34 7.62-5.34 4.8 0 6.66 1.98 6.66 4.8 0 1.98-1.56 3.06-7.62 3.66-8.46.84-13.5 3.36-13.5 10.2 0 5.82 4.8 9.42 10.5 9.42 3.78 0 8.52-1.38 10.68-4.92 0 2.1.48 3.72.96 4.2h5.94zm-6.96-12.48c0 6.06-5.28 8.4-9.42 8.4-3.36 0-5.4-1.62-5.4-4.62 0-3.54 3.24-5.1 6.54-5.52 3.54-.42 7.26-.96 8.28-2.04v3.78zm38.227 13.2c8.34 0 14.34-6.54 14.34-16.5s-6-16.56-14.34-16.56c-4.56 0-8.1 1.74-9.84 4.8h-.24v-4.08h-5.82v42.72h6.12v-14.76h.24c1.74 2.76 5.1 4.44 9.54 4.44v-.06zm-1.08-28.14c5.64 0 9.18 4.44 9.18 11.64 0 7.14-3.54 11.58-9.18 11.58-5.52 0-9.12-4.44-9.12-11.58 0-7.2 3.6-11.64 9.12-11.64zm25.395-4.2h-5.82V151h6.12v-16.8c0-7.08 3.84-9.6 9.06-9.6 1.14 0 2.28.12 3.06.24v-5.88c-.72-.18-1.8-.3-2.76-.3-4.56 0-7.86 2.46-9.42 5.52h-.24v-4.8zm29.849-.72c-9.36 0-15.36 6.54-15.36 16.56 0 9.96 6 16.5 15.36 16.5 9.24 0 15.3-6.54 15.3-16.5 0-10.02-6.06-16.56-15.3-16.56zm0 28.14c-5.64 0-9.12-4.44-9.12-11.58 0-7.2 3.48-11.64 9.12-11.64 5.52 0 9.06 4.44 9.06 11.64 0 7.14-3.54 11.58-9.06 11.58zm48.148-27.42h-5.82v3.66h-.24c-1.68-2.76-5.16-4.38-9.54-4.38-8.22 0-14.04 6.12-14.04 15.36 0 9.24 5.82 15.3 14.04 15.3 4.26 0 7.56-1.56 9.24-3.96h.24v3.18c0 6.54-3.18 9.24-8.64 9.24-4.32 0-7.32-1.62-8.52-6.24l-5.88 1.2c1.98 7.14 7.62 10.02 14.4 10.02 8.22 0 14.76-3.84 14.76-13.92v-29.46zm-14.52 25.14c-5.46 0-8.88-4.32-8.88-10.5s3.42-10.44 8.88-10.44c5.34 0 8.82 4.26 8.82 10.44s-3.48 10.5-8.82 10.5zm25.175-25.14h-5.82V151h6.12v-16.8c0-7.08 3.84-9.6 9.06-9.6 1.14 0 2.28.12 3.06.24v-5.88c-.72-.18-1.8-.3-2.76-.3-4.56 0-7.86 2.46-9.42 5.52h-.24v-4.8zM372.059 151c-.78-1.44-.84-3.24-.84-6.78v-15.9c0-5.34-3.36-9.66-12.54-9.66-6.78 0-12.06 3.36-13.44 9.06l5.58 1.26c1.14-3.72 4.38-5.34 7.62-5.34 4.8 0 6.66 1.98 6.66 4.8 0 1.98-1.56 3.06-7.62 3.66-8.46.84-13.5 3.36-13.5 10.2 0 5.82 4.8 9.42 10.5 9.42 3.78 0 8.52-1.38 10.68-4.92 0 2.1.48 3.72.96 4.2h5.94zm-6.96-12.48c0 6.06-5.28 8.4-9.42 8.4-3.36 0-5.4-1.62-5.4-4.62 0-3.54 3.24-5.1 6.54-5.52 3.54-.42 7.26-.96 8.28-2.04v3.78zm46.002-19.86c-4.68 0-7.8 1.74-10.62 5.16-1.92-3.6-5.58-5.16-9.18-5.16-3.54 0-6.84 1.44-9.24 4.92h-.24v-4.2h-5.82V151h6.12v-17.4c0-6.48 3.48-9.84 7.2-9.84 4.08 0 6.42 2.16 6.42 8.1V151h6.12v-17.4c0-6.48 3.54-9.84 7.2-9.84 4.14 0 6.48 2.16 6.48 8.1V151h6.12v-21c0-7.98-5.28-11.34-10.56-11.34zm39.673 27.18c-2.4 0-3.54-.36-3.54-3.3v-18.6h6.9v-4.56h-6.9v-9h-6.12v9h-5.22v4.56h5.22v20.22c0 5.64 2.58 6.96 8.16 6.96 1.56 0 3.84-.06 4.5-.12v-5.22c-.84.06-2.28.06-3 .06zm13.026-22.32v-15.96h-6.12V151h6.12v-16.8c0-6.48 3.96-10.44 7.86-10.44 4.56 0 7.02 2.16 7.02 8.1V151h6.12v-21c0-7.98-5.46-11.34-11.04-11.34-3.78 0-7.26 1.38-9.72 4.86h-.24zM516.434 151c-.78-1.44-.84-3.24-.84-6.78v-15.9c0-5.34-3.36-9.66-12.54-9.66-6.78 0-12.06 3.36-13.44 9.06l5.58 1.26c1.14-3.72 4.38-5.34 7.62-5.34 4.8 0 6.66 1.98 6.66 4.8 0 1.98-1.56 3.06-7.62 3.66-8.46.84-13.5 3.36-13.5 10.2 0 5.82 4.8 9.42 10.5 9.42 3.78 0 8.52-1.38 10.68-4.92 0 2.1.48 3.72.96 4.2h5.94zm-6.96-12.48c0 6.06-5.28 8.4-9.42 8.4-3.36 0-5.4-1.62-5.4-4.62 0-3.54 3.24-5.1 6.54-5.52 3.54-.42 7.26-.96 8.28-2.04v3.78zm23.742 7.32c-2.4 0-3.54-.36-3.54-3.3v-18.6h6.9v-4.56h-6.9v-9h-6.12v9h-5.22v4.56h5.22v20.22c0 5.64 2.58 6.96 8.16 6.96 1.56 0 3.84-.06 4.5-.12v-5.22c-.84.06-2.28.06-3 .06zm47.011-26.46h-5.82v3.66h-.24c-1.68-2.76-5.16-4.38-9.54-4.38-8.22 0-14.04 6.12-14.04 15.36 0 9.24 5.82 15.3 14.04 15.3 4.26 0 7.56-1.56 9.24-3.96h.24v3.18c0 6.54-3.18 9.24-8.64 9.24-4.32 0-7.32-1.62-8.52-6.24l-5.88 1.2c1.98 7.14 7.62 10.02 14.4 10.02 8.22 0 14.76-3.84 14.76-13.92v-29.46zm-14.52 25.14c-5.46 0-8.88-4.32-8.88-10.5s3.42-10.44 8.88-10.44c5.34 0 8.82 4.26 8.82 10.44s-3.48 10.5-8.82 10.5zm19.416-36.96v6.66h6.18v-6.66h-6.18zm.06 11.82V151h6.12v-31.62h-6.12zM612.749 151l11.94-31.62h-6.54l-8.7 24.66h-.24l-8.52-24.66h-6.72l11.76 31.62h7.02zm35.005-9.96c-.78 2.28-2.94 5.76-8.4 5.76-5.28 0-8.52-4.38-8.7-10.14h23.46c.84-11.34-5.64-18-14.82-18-9.06 0-14.88 6.6-14.88 16.62 0 9.84 6 16.5 14.94 16.5 9.3 0 13.14-5.4 14.58-9.96l-6.18-.78zm-8.46-17.46c5.4 0 8.16 4.02 8.64 8.4h-17.16c.48-4.38 3.18-8.4 8.52-8.4zm43.851 4.08c-.84-4.8-6.06-9-12.96-9-7.38 0-12.54 3.9-12.54 9.3 0 6.6 5.16 8.28 10.08 9.12l3.18.54c3.84.66 6.66 1.56 6.66 4.44 0 3.18-2.94 5.1-7.02 5.1-4.5 0-7.68-1.98-8.7-6.48l-5.58 1.2c1.02 5.76 6.06 9.84 14.16 9.84 7.56 0 13.38-3.3 13.38-9.84 0-6.78-5.16-8.46-10.62-9.42l-3.12-.48c-3.36-.6-6.12-1.26-6.12-4.08 0-2.94 2.46-4.56 6.18-4.56 3.36 0 6.54 1.74 7.44 5.46l5.58-1.14zm51.159-9c-4.68 0-7.8 1.74-10.62 5.16-1.92-3.6-5.58-5.16-9.18-5.16-3.54 0-6.84 1.44-9.24 4.92h-.24v-4.2h-5.82V151h6.12v-17.4c0-6.48 3.48-9.84 7.2-9.84 4.08 0 6.42 2.16 6.42 8.1V151h6.12v-17.4c0-6.48 3.54-9.84 7.2-9.84 4.14 0 6.48 2.16 6.48 8.1V151h6.12v-21c0-7.98-5.28-11.34-10.56-11.34zm37.727 22.38c-.78 2.28-2.94 5.76-8.4 5.76-5.28 0-8.52-4.38-8.7-10.14h23.46c.84-11.34-5.64-18-14.82-18-9.06 0-14.88 6.6-14.88 16.62 0 9.84 6 16.5 14.94 16.5 9.3 0 13.14-5.4 14.58-9.96l-6.18-.78zm-8.46-17.46c5.4 0 8.16 4.02 8.64 8.4h-17.16c.48-4.38 3.18-8.4 8.52-8.4zM820.828 151c-.78-1.44-.84-3.24-.84-6.78v-15.9c0-5.34-3.36-9.66-12.54-9.66-6.78 0-12.06 3.36-13.44 9.06l5.58 1.26c1.14-3.72 4.38-5.34 7.62-5.34 4.8 0 6.66 1.98 6.66 4.8 0 1.98-1.56 3.06-7.62 3.66-8.46.84-13.5 3.36-13.5 10.2 0 5.82 4.8 9.42 10.5 9.42 3.78 0 8.52-1.38 10.68-4.92 0 2.1.48 3.72.96 4.2h5.94zm-6.96-12.48c0 6.06-5.28 8.4-9.42 8.4-3.36 0-5.4-1.62-5.4-4.62 0-3.54 3.24-5.1 6.54-5.52 3.54-.42 7.26-.96 8.28-2.04v3.78zm22.448-30.96V151h6.12v-43.44h-6.12zm25.706 11.1c-9.36 0-15.36 6.54-15.36 16.56 0 9.96 6 16.5 15.36 16.5 9.24 0 15.3-6.54 15.3-16.5 0-10.02-6.06-16.56-15.3-16.56zm0 28.14c-5.64 0-9.12-4.44-9.12-11.58 0-7.2 3.48-11.64 9.12-11.64 5.52 0 9.06 4.44 9.06 11.64 0 7.14-3.54 11.58-9.06 11.58zm31.252-.96c-2.4 0-3.54-.36-3.54-3.3v-18.6h6.9v-4.56h-6.9v-9h-6.12v9h-5.22v4.56h5.22v20.22c0 5.64 2.58 6.96 8.16 6.96 1.56 0 3.84-.06 4.5-.12v-5.22c-.84.06-2.28.06-3 .06zm-593.137 57.82c-9.36 0-15.36 6.54-15.36 16.56 0 9.96 6 16.5 15.36 16.5 9.24 0 15.3-6.54 15.3-16.5 0-10.02-6.06-16.56-15.3-16.56zm0 28.14c-5.64 0-9.12-4.44-9.12-11.58 0-7.2 3.48-11.64 9.12-11.64 5.52 0 9.06 4.44 9.06 11.64 0 7.14-3.54 11.58-9.06 11.58zm31.372-34.8c1.26 0 3.06.12 4.02.24v-4.98c-.96-.18-3-.36-4.98-.36-5.22 0-8.82 2.1-8.82 8.16v4.32h-5.22v4.56h5.22v27.12h6.12v-27.12h6.9v-4.56h-6.9v-3.72c0-3.24 1.74-3.66 3.66-3.66zm45.267 39c-.78-1.44-.84-3.24-.84-6.78v-15.9c0-5.34-3.36-9.66-12.54-9.66-6.78 0-12.06 3.36-13.44 9.06l5.58 1.26c1.14-3.72 4.38-5.34 7.62-5.34 4.8 0 6.66 1.98 6.66 4.8 0 1.98-1.56 3.06-7.62 3.66-8.46.84-13.5 3.36-13.5 10.2 0 5.82 4.8 9.42 10.5 9.42 3.78 0 8.52-1.38 10.68-4.92 0 2.1.48 3.72.96 4.2h5.94zm-6.96-12.48c0 6.06-5.28 8.4-9.42 8.4-3.36 0-5.4-1.62-5.4-4.62 0-3.54 3.24-5.1 6.54-5.52 3.54-.42 7.26-.96 8.28-2.04v3.78zm24.281-19.86c-8.4 0-14.34 6.54-14.34 16.56 0 9.96 5.94 16.5 14.34 16.5 4.5 0 8.16-1.86 9.84-4.8h.24V236h5.82v-43.44h-6.12v15.48h-.24c-1.68-2.64-5.16-4.38-9.54-4.38zm1.08 28.14c-5.64 0-9.18-4.44-9.18-11.58 0-7.2 3.54-11.64 9.18-11.64 5.52 0 9.12 4.44 9.12 11.64 0 7.14-3.6 11.58-9.12 11.58zm35.961 4.2l11.94-31.62h-6.54l-8.7 24.66h-.24l-8.52-24.66h-6.72l11.76 31.62h7.02zm39.329 0c-.78-1.44-.84-3.24-.84-6.78v-15.9c0-5.34-3.36-9.66-12.54-9.66-6.78 0-12.06 3.36-13.44 9.06l5.58 1.26c1.14-3.72 4.38-5.34 7.62-5.34 4.8 0 6.66 1.98 6.66 4.8 0 1.98-1.56 3.06-7.62 3.66-8.46.84-13.5 3.36-13.5 10.2 0 5.82 4.8 9.42 10.5 9.42 3.78 0 8.52-1.38 10.68-4.92 0 2.1.48 3.72.96 4.2h5.94zm-6.96-12.48c0 6.06-5.28 8.4-9.42 8.4-3.36 0-5.4-1.62-5.4-4.62 0-3.54 3.24-5.1 6.54-5.52 3.54-.42 7.26-.96 8.28-2.04v3.78zm16.722-15v-4.14h-5.82V236h6.12v-17.4c0-6.48 3.84-9.84 7.86-9.84 4.56 0 7.02 2.16 7.02 8.1V236h6.12v-21c0-7.98-5.46-11.34-11.22-11.34-3.9 0-7.44 1.38-9.84 4.86h-.24zm38.719 22.32c-2.4 0-3.54-.36-3.54-3.3v-18.6h6.9v-4.56h-6.9v-9h-6.12v9h-5.22v4.56h5.22v20.22c0 5.64 2.58 6.96 8.16 6.96 1.56 0 3.84-.06 4.5-.12v-5.22c-.84.06-2.28.06-3 .06zm33.726 5.16c-.78-1.44-.84-3.24-.84-6.78v-15.9c0-5.34-3.36-9.66-12.54-9.66-6.78 0-12.06 3.36-13.44 9.06l5.58 1.26c1.14-3.72 4.38-5.34 7.62-5.34 4.8 0 6.66 1.98 6.66 4.8 0 1.98-1.56 3.06-7.62 3.66-8.46.84-13.5 3.36-13.5 10.2 0 5.82 4.8 9.42 10.5 9.42 3.78 0 8.52-1.38 10.68-4.92 0 2.1.48 3.72.96 4.2h5.94zm-6.96-12.48c0 6.06-5.28 8.4-9.42 8.4-3.36 0-5.4-1.62-5.4-4.62 0-3.54 3.24-5.1 6.54-5.52 3.54-.42 7.26-.96 8.28-2.04v3.78zm39.582-19.14h-5.82v3.66h-.24c-1.68-2.76-5.16-4.38-9.54-4.38-8.22 0-14.04 6.12-14.04 15.36 0 9.24 5.82 15.3 14.04 15.3 4.26 0 7.56-1.56 9.24-3.96h.24v3.18c0 6.54-3.18 9.24-8.64 9.24-4.32 0-7.32-1.62-8.52-6.24l-5.88 1.2c1.98 7.14 7.62 10.02 14.4 10.02 8.22 0 14.76-3.84 14.76-13.92v-29.46zm-14.52 25.14c-5.46 0-8.88-4.32-8.88-10.5s3.42-10.44 8.88-10.44c5.34 0 8.82 4.26 8.82 10.44s-3.48 10.5-8.82 10.5zm41.675-3.48c-.78 2.28-2.94 5.76-8.4 5.76-5.28 0-8.52-4.38-8.7-10.14h23.46c.84-11.34-5.64-18-14.82-18-9.06 0-14.88 6.6-14.88 16.62 0 9.84 6 16.5 14.94 16.5 9.3 0 13.14-5.4 14.58-9.96l-6.18-.78zm-8.46-17.46c5.4 0 8.16 4.02 8.64 8.4h-17.16c.48-4.38 3.18-8.4 8.52-8.4zm43.851 4.08c-.84-4.8-6.059-9-12.959-9-7.38 0-12.541 3.9-12.541 9.3 0 6.6 5.16 8.28 10.08 9.12l3.18.54c3.84.66 6.661 1.56 6.661 4.44 0 3.18-2.941 5.1-7.021 5.1-4.5 0-7.68-1.98-8.7-6.48l-5.58 1.2c1.02 5.76 6.06 9.84 14.16 9.84 7.56 0 13.381-3.3 13.381-9.84 0-6.78-5.16-8.46-10.62-9.42l-3.12-.48c-3.36-.6-6.121-1.26-6.121-4.08 0-2.94 2.461-4.56 6.181-4.56 3.36 0 6.54 1.74 7.44 5.46l5.579-1.14zm5.293-6.12v7.44h7.44v-7.44h-7.44zm0 22.02V236h7.44v-7.44h-7.44z" fill="#452E66"/>
  <defs>
    <radialGradient id="Group_35979__paint0_angular_187:645" cx="0" cy="0" r="1" gradientUnits="userSpaceOnUse" gradientTransform="matrix(677.625 0 0 1563.71 400.359 -62.757)">
      <stop stop-color="#EBB9F2"/>
      <stop offset=".542" stop-color="#F6AAAA"/>
      <stop offset="1" stop-color="#A566FF"/>
    </radialGradient>
  </defs>
</svg>
