<svg width="684" height="179" viewBox="0 0 684 179" fill="none" xmlns="http://www.w3.org/2000/svg">
<mask id="mask0_190:574" style="mask-type:alpha" maskUnits="userSpaceOnUse" x="0" y="0" width="684" height="179">
<path fill-rule="evenodd" clip-rule="evenodd" d="M683.484 12.2969C683.484 5.66946 678.112 0.296875 671.484 0.296875H12.4844C5.85696 0.296875 0.484375 5.66946 0.484375 12.2969V79.2969C0.484375 85.9243 5.85696 91.2969 12.4844 91.2969H45.4844C52.1118 91.2969 57.4844 96.6695 57.4844 103.297V166.297C57.4844 172.924 62.857 178.297 69.4844 178.297H614.484C621.112 178.297 626.484 172.924 626.484 166.297V103.297C626.484 96.6695 631.857 91.2969 638.484 91.2969H671.484C678.112 91.2969 683.484 85.9243 683.484 79.2969V12.2969Z" fill="#C4C4C4"/>
</mask>
<g mask="url(#mask0_190:574)">
<path d="M291.984 670.297C-41.8717 670.297 -312.516 399.653 -312.516 65.7969V65.7969C-312.516 -268.059 -41.8717 -538.703 291.984 -538.703L341.984 -538.703C675.841 -538.703 946.484 -268.059 946.484 65.7969V65.7969C946.484 399.653 675.84 670.297 341.984 670.297L291.984 670.297Z" fill="white"/>
</g>
<path d="M38.3906 23.4569H44.9906V66.2969H38.3906V23.4569Z" fill="#452E66"/>
<path d="M56.4539 38.8169C57.6139 37.1369 59.0339 35.8969 60.7139 35.0969C62.3939 34.2969 64.2539 33.8969 66.2939 33.8969C68.2939 33.8969 70.1339 34.3169 71.8139 35.1569C73.5339 35.9569 74.9139 37.2169 75.9539 38.9369C76.9939 40.6169 77.5139 42.7369 77.5139 45.2969V66.2969H71.3939V47.1569C71.3939 44.2369 70.8139 42.1569 69.6539 40.9169C68.4939 39.6769 66.7339 39.0569 64.3739 39.0569C63.0139 39.0569 61.7339 39.4369 60.5339 40.1969C59.3339 40.9569 58.3539 42.0769 57.5939 43.5569C56.8739 45.0369 56.5139 46.8169 56.5139 48.8969V66.2969H50.3939V34.6169H56.2139V38.8169H56.4539Z" fill="#452E66"/>
<path d="M97.9931 61.0169V66.2969C97.1131 66.3769 95.6131 66.4169 93.4931 66.4169C90.5331 66.4169 88.4131 65.9369 87.1331 64.9769C85.8931 64.0169 85.2731 62.1769 85.2731 59.4569V39.2369H80.0531V34.6169H85.2731V25.6769H91.3931V34.6169H98.3531V39.2369H91.3931V57.8369C91.3931 59.2369 91.6531 60.1369 92.1731 60.5369C92.6931 60.9369 93.6331 61.1369 94.9931 61.1369L97.9931 61.0169Z" fill="#452E66"/>
<path d="M129.696 57.0569C128.816 59.8169 127.216 62.1769 124.896 64.1369C122.576 66.0569 119.296 67.0169 115.056 67.0169C112.136 67.0169 109.536 66.3369 107.256 64.9769C105.016 63.5769 103.276 61.6369 102.036 59.1569C100.796 56.6369 100.176 53.7569 100.176 50.5169C100.176 47.2369 100.776 44.3369 101.976 41.8169C103.216 39.2969 104.936 37.3569 107.136 35.9969C109.376 34.5969 111.996 33.8969 114.996 33.8969C117.916 33.8969 120.496 34.5569 122.736 35.8769C125.016 37.1569 126.776 39.0169 128.016 41.4569C129.296 43.8569 129.936 46.7169 129.936 50.0369C129.936 50.8769 129.916 51.5169 129.876 51.9569H106.356C106.436 54.9169 107.256 57.3369 108.816 59.2169C110.416 61.0969 112.496 62.0369 115.056 62.0369C117.496 62.0369 119.376 61.4769 120.696 60.3569C122.016 59.1969 122.956 57.8569 123.516 56.3369L129.696 57.0569ZM114.996 38.8769C112.516 38.8769 110.536 39.6969 109.056 41.3369C107.616 42.9369 106.756 44.9169 106.476 47.2769H123.696C123.416 44.8769 122.536 42.8769 121.056 41.2769C119.576 39.6769 117.556 38.8769 114.996 38.8769Z" fill="#452E66"/>
<path d="M139.827 39.4169H140.067C140.907 37.8169 142.147 36.4969 143.787 35.4569C145.427 34.4169 147.327 33.8969 149.487 33.8969C150.487 33.8969 151.427 33.9969 152.307 34.1969V40.0769C151.187 39.9169 150.147 39.8369 149.187 39.8369C146.427 39.8369 144.227 40.6169 142.587 42.1769C140.947 43.6969 140.127 46.1369 140.127 49.4969V66.2969H134.007V34.6169H139.827V39.4169Z" fill="#452E66"/>
<path d="M169.257 62.0369C173.497 62.0369 176.257 59.7769 177.537 55.2569L183.717 56.1569C182.957 58.9969 181.397 61.5169 179.037 63.7169C176.717 65.9169 173.457 67.0169 169.257 67.0169C166.297 67.0169 163.677 66.3369 161.397 64.9769C159.157 63.5769 157.417 61.6369 156.177 59.1569C154.937 56.6369 154.317 53.7369 154.317 50.4569C154.317 47.1769 154.937 44.2969 156.177 41.8169C157.417 39.2969 159.157 37.3569 161.397 35.9969C163.677 34.5969 166.317 33.8969 169.317 33.8969C173.317 33.8969 176.397 34.8769 178.557 36.8369C180.757 38.7569 182.257 40.7969 183.057 42.9569L177.297 44.8169C176.777 43.2969 175.897 41.9369 174.657 40.7369C173.457 39.4969 171.677 38.8769 169.317 38.8769C166.637 38.8769 164.497 39.9169 162.897 41.9969C161.337 44.0369 160.557 46.8569 160.557 50.4569C160.557 54.0169 161.337 56.8369 162.897 58.9169C164.497 60.9969 166.617 62.0369 169.257 62.0369Z" fill="#452E66"/>
<path d="M201.493 33.8969C204.573 33.8969 207.273 34.5969 209.593 35.9969C211.913 37.3569 213.693 39.2969 214.933 41.8169C216.213 44.2969 216.853 47.1769 216.853 50.4569C216.853 53.7369 216.213 56.6369 214.933 59.1569C213.693 61.6369 211.913 63.5769 209.593 64.9769C207.273 66.3369 204.573 67.0169 201.493 67.0169C198.413 67.0169 195.713 66.3369 193.393 64.9769C191.073 63.5769 189.273 61.6369 187.993 59.1569C186.753 56.6369 186.133 53.7369 186.133 50.4569C186.133 47.1769 186.753 44.2969 187.993 41.8169C189.273 39.2969 191.073 37.3569 193.393 35.9969C195.713 34.5969 198.413 33.8969 201.493 33.8969ZM201.493 62.0369C204.293 62.0369 206.493 61.0169 208.093 58.9769C209.733 56.8969 210.553 54.0569 210.553 50.4569C210.553 46.8569 209.733 44.0369 208.093 41.9969C206.493 39.9169 204.293 38.8769 201.493 38.8769C198.693 38.8769 196.473 39.9169 194.833 41.9969C193.193 44.0369 192.373 46.8569 192.373 50.4569C192.373 54.0569 193.193 56.8969 194.833 58.9769C196.473 61.0169 198.693 62.0369 201.493 62.0369Z" fill="#452E66"/>
<path d="M227.02 38.8169C228.18 37.1369 229.6 35.8969 231.28 35.0969C232.96 34.2969 234.82 33.8969 236.86 33.8969C238.86 33.8969 240.7 34.3169 242.38 35.1569C244.1 35.9569 245.48 37.2169 246.52 38.9369C247.56 40.6169 248.08 42.7369 248.08 45.2969V66.2969H241.96V47.1569C241.96 44.2369 241.38 42.1569 240.22 40.9169C239.06 39.6769 237.3 39.0569 234.94 39.0569C233.58 39.0569 232.3 39.4369 231.1 40.1969C229.9 40.9569 228.92 42.0769 228.16 43.5569C227.44 45.0369 227.08 46.8169 227.08 48.8969V66.2969H220.96V34.6169H226.78V38.8169H227.02Z" fill="#452E66"/>
<path d="M258.954 38.8169C260.114 37.1369 261.534 35.8969 263.214 35.0969C264.894 34.2969 266.754 33.8969 268.794 33.8969C270.794 33.8969 272.634 34.3169 274.314 35.1569C276.034 35.9569 277.414 37.2169 278.454 38.9369C279.494 40.6169 280.014 42.7369 280.014 45.2969V66.2969H273.894V47.1569C273.894 44.2369 273.314 42.1569 272.154 40.9169C270.994 39.6769 269.234 39.0569 266.874 39.0569C265.514 39.0569 264.234 39.4369 263.034 40.1969C261.834 40.9569 260.854 42.0769 260.094 43.5569C259.374 45.0369 259.014 46.8169 259.014 48.8969V66.2969H252.894V34.6169H258.714V38.8169H258.954Z" fill="#452E66"/>
<path d="M313.387 57.0569C312.507 59.8169 310.907 62.1769 308.587 64.1369C306.267 66.0569 302.987 67.0169 298.747 67.0169C295.827 67.0169 293.228 66.3369 290.948 64.9769C288.708 63.5769 286.968 61.6369 285.728 59.1569C284.488 56.6369 283.867 53.7569 283.867 50.5169C283.867 47.2369 284.467 44.3369 285.667 41.8169C286.907 39.2969 288.627 37.3569 290.827 35.9969C293.067 34.5969 295.688 33.8969 298.688 33.8969C301.608 33.8969 304.187 34.5569 306.427 35.8769C308.707 37.1569 310.467 39.0169 311.707 41.4569C312.987 43.8569 313.628 46.7169 313.628 50.0369C313.628 50.8769 313.608 51.5169 313.568 51.9569H290.047C290.127 54.9169 290.948 57.3369 292.508 59.2169C294.108 61.0969 296.187 62.0369 298.747 62.0369C301.187 62.0369 303.068 61.4769 304.388 60.3569C305.708 59.1969 306.647 57.8569 307.207 56.3369L313.387 57.0569ZM298.688 38.8769C296.208 38.8769 294.227 39.6969 292.747 41.3369C291.307 42.9369 290.448 44.9169 290.168 47.2769H307.387C307.107 44.8769 306.227 42.8769 304.747 41.2769C303.267 39.6769 301.248 38.8769 298.688 38.8769Z" fill="#452E66"/>
<path d="M331.679 62.0369C335.919 62.0369 338.679 59.7769 339.959 55.2569L346.139 56.1569C345.379 58.9969 343.819 61.5169 341.459 63.7169C339.139 65.9169 335.879 67.0169 331.679 67.0169C328.719 67.0169 326.099 66.3369 323.819 64.9769C321.579 63.5769 319.839 61.6369 318.599 59.1569C317.359 56.6369 316.739 53.7369 316.739 50.4569C316.739 47.1769 317.359 44.2969 318.599 41.8169C319.839 39.2969 321.579 37.3569 323.819 35.9969C326.099 34.5969 328.739 33.8969 331.739 33.8969C335.739 33.8969 338.819 34.8769 340.979 36.8369C343.179 38.7569 344.679 40.7969 345.479 42.9569L339.719 44.8169C339.199 43.2969 338.319 41.9369 337.079 40.7369C335.879 39.4969 334.099 38.8769 331.739 38.8769C329.059 38.8769 326.919 39.9169 325.319 41.9969C323.759 44.0369 322.979 46.8569 322.979 50.4569C322.979 54.0169 323.759 56.8369 325.319 58.9169C326.919 60.9969 329.039 62.0369 331.679 62.0369Z" fill="#452E66"/>
<path d="M365.415 61.0169V66.2969C364.535 66.3769 363.035 66.4169 360.915 66.4169C357.955 66.4169 355.835 65.9369 354.555 64.9769C353.315 64.0169 352.695 62.1769 352.695 59.4569V39.2369H347.475V34.6169H352.695V25.6769H358.815V34.6169H365.775V39.2369H358.815V57.8369C358.815 59.2369 359.075 60.1369 359.595 60.5369C360.115 60.9369 361.055 61.1369 362.415 61.1369L365.415 61.0169Z" fill="#452E66"/>
<path d="M375.501 34.6169V66.2969H369.381V34.6169H375.501ZM375.501 22.8569V29.5169H369.381V22.8569H375.501Z" fill="#452E66"/>
<path d="M386.747 38.8169C387.907 37.1369 389.327 35.8969 391.007 35.0969C392.687 34.2969 394.547 33.8969 396.587 33.8969C398.587 33.8969 400.427 34.3169 402.107 35.1569C403.827 35.9569 405.207 37.2169 406.247 38.9369C407.287 40.6169 407.807 42.7369 407.807 45.2969V66.2969H401.687V47.1569C401.687 44.2369 401.107 42.1569 399.947 40.9169C398.787 39.6769 397.027 39.0569 394.667 39.0569C393.307 39.0569 392.027 39.4369 390.827 40.1969C389.627 40.9569 388.647 42.0769 387.887 43.5569C387.167 45.0369 386.807 46.8169 386.807 48.8969V66.2969H380.687V34.6169H386.507V38.8169H386.747Z" fill="#452E66"/>
<path d="M441.36 64.0769C441.36 68.8769 440 72.3969 437.28 74.6369C434.56 76.9169 430.98 78.0569 426.54 78.0569C422.98 78.0569 419.92 77.2369 417.36 75.5969C414.84 73.9569 413.1 71.4369 412.14 68.0369L418.02 66.7769C418.62 69.0169 419.62 70.6169 421.02 71.5769C422.46 72.5369 424.3 73.0169 426.54 73.0169C432.34 73.0169 435.24 69.9369 435.24 63.7769V60.5969H435C434.12 61.8369 432.88 62.8169 431.28 63.5369C429.68 64.2569 427.84 64.6169 425.76 64.6169C423.04 64.6169 420.6 63.9769 418.44 62.6969C416.32 61.4169 414.66 59.6169 413.46 57.2969C412.26 54.9769 411.66 52.2969 411.66 49.2569C411.66 46.2569 412.26 43.5969 413.46 41.2769C414.66 38.9169 416.32 37.0969 418.44 35.8169C420.6 34.5369 423.04 33.8969 425.76 33.8969C427.92 33.8969 429.84 34.2969 431.52 35.0969C433.2 35.8569 434.46 36.9169 435.3 38.2769H435.54V34.6169H441.36V64.0769ZM426.78 59.7569C429.46 59.7569 431.6 58.7969 433.2 56.8769C434.8 54.9569 435.6 52.4169 435.6 49.2569C435.6 46.1369 434.8 43.6369 433.2 41.7569C431.6 39.8369 429.46 38.8769 426.78 38.8769C424.1 38.8769 421.94 39.8369 420.3 41.7569C418.7 43.6369 417.9 46.1369 417.9 49.2569C417.9 52.3769 418.7 54.9169 420.3 56.8769C421.94 58.7969 424.1 59.7569 426.78 59.7569Z" fill="#452E66"/>
<path d="M486.122 57.0569C485.242 59.8169 483.642 62.1769 481.322 64.1369C479.002 66.0569 475.722 67.0169 471.482 67.0169C468.562 67.0169 465.962 66.3369 463.682 64.9769C461.442 63.5769 459.702 61.6369 458.462 59.1569C457.222 56.6369 456.602 53.7569 456.602 50.5169C456.602 47.2369 457.202 44.3369 458.402 41.8169C459.642 39.2969 461.362 37.3569 463.562 35.9969C465.802 34.5969 468.422 33.8969 471.422 33.8969C474.342 33.8969 476.922 34.5569 479.162 35.8769C481.442 37.1569 483.202 39.0169 484.442 41.4569C485.722 43.8569 486.362 46.7169 486.362 50.0369C486.362 50.8769 486.342 51.5169 486.302 51.9569H462.782C462.862 54.9169 463.682 57.3369 465.242 59.2169C466.842 61.0969 468.922 62.0369 471.482 62.0369C473.922 62.0369 475.802 61.4769 477.122 60.3569C478.442 59.1969 479.382 57.8569 479.942 56.3369L486.122 57.0569ZM471.422 38.8769C468.942 38.8769 466.962 39.6969 465.482 41.3369C464.042 42.9369 463.182 44.9169 462.902 47.2769H480.122C479.842 44.8769 478.962 42.8769 477.482 41.2769C476.002 39.6769 473.982 38.8769 471.422 38.8769Z" fill="#452E66"/>
<path d="M496.493 38.8169C497.653 37.1369 499.073 35.8969 500.753 35.0969C502.433 34.2969 504.293 33.8969 506.333 33.8969C508.333 33.8969 510.173 34.3169 511.853 35.1569C513.573 35.9569 514.953 37.2169 515.993 38.9369C517.033 40.6169 517.553 42.7369 517.553 45.2969V66.2969H511.433V47.1569C511.433 44.2369 510.853 42.1569 509.693 40.9169C508.533 39.6769 506.773 39.0569 504.413 39.0569C503.053 39.0569 501.773 39.4369 500.573 40.1969C499.373 40.9569 498.393 42.0769 497.633 43.5569C496.913 45.0369 496.553 46.8169 496.553 48.8969V66.2969H490.433V34.6169H496.253V38.8169H496.493Z" fill="#452E66"/>
<path d="M550.927 57.0569C550.047 59.8169 548.447 62.1769 546.127 64.1369C543.807 66.0569 540.527 67.0169 536.287 67.0169C533.367 67.0169 530.767 66.3369 528.487 64.9769C526.247 63.5769 524.507 61.6369 523.267 59.1569C522.027 56.6369 521.407 53.7569 521.407 50.5169C521.407 47.2369 522.007 44.3369 523.207 41.8169C524.447 39.2969 526.167 37.3569 528.367 35.9969C530.607 34.5969 533.227 33.8969 536.227 33.8969C539.147 33.8969 541.727 34.5569 543.967 35.8769C546.247 37.1569 548.007 39.0169 549.247 41.4569C550.527 43.8569 551.167 46.7169 551.167 50.0369C551.167 50.8769 551.147 51.5169 551.107 51.9569H527.587C527.667 54.9169 528.487 57.3369 530.047 59.2169C531.647 61.0969 533.727 62.0369 536.287 62.0369C538.727 62.0369 540.607 61.4769 541.927 60.3569C543.247 59.1969 544.187 57.8569 544.747 56.3369L550.927 57.0569ZM536.227 38.8769C533.747 38.8769 531.767 39.6969 530.287 41.3369C528.847 42.9369 527.987 44.9169 527.707 47.2769H544.927C544.647 44.8769 543.767 42.8769 542.287 41.2769C540.807 39.6769 538.787 38.8769 536.227 38.8769Z" fill="#452E66"/>
<path d="M561.058 39.4169H561.298C562.138 37.8169 563.378 36.4969 565.018 35.4569C566.658 34.4169 568.558 33.8969 570.718 33.8969C571.718 33.8969 572.658 33.9969 573.538 34.1969V40.0769C572.418 39.9169 571.378 39.8369 570.418 39.8369C567.658 39.8369 565.458 40.6169 563.818 42.1769C562.178 43.6969 561.358 46.1369 561.358 49.4969V66.2969H555.238V34.6169H561.058V39.4169Z" fill="#452E66"/>
<path d="M605.247 64.0769C605.247 68.8769 603.887 72.3969 601.167 74.6369C598.447 76.9169 594.867 78.0569 590.427 78.0569C586.867 78.0569 583.807 77.2369 581.247 75.5969C578.727 73.9569 576.987 71.4369 576.027 68.0369L581.907 66.7769C582.507 69.0169 583.507 70.6169 584.907 71.5769C586.347 72.5369 588.187 73.0169 590.427 73.0169C596.227 73.0169 599.127 69.9369 599.127 63.7769V60.5969H598.887C598.007 61.8369 596.767 62.8169 595.167 63.5369C593.567 64.2569 591.727 64.6169 589.647 64.6169C586.927 64.6169 584.487 63.9769 582.327 62.6969C580.207 61.4169 578.547 59.6169 577.347 57.2969C576.147 54.9769 575.547 52.2969 575.547 49.2569C575.547 46.2569 576.147 43.5969 577.347 41.2769C578.547 38.9169 580.207 37.0969 582.327 35.8169C584.487 34.5369 586.927 33.8969 589.647 33.8969C591.807 33.8969 593.727 34.2969 595.407 35.0969C597.087 35.8569 598.347 36.9169 599.187 38.2769H599.427V34.6169H605.247V64.0769ZM590.667 59.7569C593.347 59.7569 595.487 58.7969 597.087 56.8769C598.687 54.9569 599.487 52.4169 599.487 49.2569C599.487 46.1369 598.687 43.6369 597.087 41.7569C595.487 39.8369 593.347 38.8769 590.667 38.8769C587.987 38.8769 585.827 39.8369 584.187 41.7569C582.587 43.6369 581.787 46.1369 581.787 49.2569C581.787 52.3769 582.587 54.9169 584.187 56.8769C585.827 58.7969 587.987 59.7569 590.667 59.7569Z" fill="#452E66"/>
<path d="M626.283 66.2969C625.043 69.5769 623.823 72.0569 622.623 73.7369C621.423 75.4569 620.183 76.5969 618.903 77.1569C617.623 77.7569 616.103 78.0569 614.343 78.0569C612.663 78.0569 611.423 77.9969 610.623 77.8769V72.4769C610.743 72.4769 611.023 72.5169 611.463 72.5969C611.943 72.7169 612.623 72.7769 613.503 72.7769C615.103 72.7769 616.303 72.3769 617.103 71.5769C617.903 70.7769 618.783 69.2769 619.743 67.0769L620.223 65.8769L607.503 34.6169H614.103L623.043 58.6169H623.283L631.683 34.6169H638.283L626.283 66.2969Z" fill="#452E66"/>
<path d="M645.596 64.8569C645.596 67.9769 644.996 70.3969 643.796 72.1169C642.636 73.8369 640.856 74.7169 638.456 74.7569V71.4569C639.576 71.4169 640.376 70.9769 640.856 70.1369C641.336 69.3369 641.576 68.0569 641.576 66.2969H638.156V58.8569H645.596V64.8569Z" fill="#452E66"/>
<path d="M147.27 151.297C146.99 151.017 146.75 150.497 146.55 149.737C146.39 148.977 146.31 148.097 146.31 147.097C145.35 148.737 143.85 149.977 141.81 150.817C139.81 151.617 137.75 152.017 135.63 152.017C133.75 152.017 132.01 151.637 130.41 150.877C128.81 150.077 127.53 148.977 126.57 147.577C125.65 146.137 125.19 144.457 125.19 142.537C125.19 139.297 126.31 136.917 128.55 135.397C130.79 133.837 134.17 132.817 138.69 132.337C141.61 132.057 143.59 131.637 144.63 131.077C145.71 130.517 146.25 129.717 146.25 128.677C146.25 125.517 144.03 123.937 139.59 123.937C137.87 123.937 136.31 124.397 134.91 125.317C133.51 126.197 132.53 127.517 131.97 129.277L126.39 127.957C127.07 125.157 128.63 122.957 131.07 121.357C133.51 119.717 136.43 118.897 139.83 118.897C144.15 118.897 147.31 119.797 149.31 121.597C151.35 123.357 152.37 125.677 152.37 128.557V144.457C152.37 146.457 152.41 147.937 152.49 148.897C152.61 149.817 152.85 150.617 153.21 151.297H147.27ZM146.25 134.977C145.81 135.457 144.87 135.857 143.43 136.177C142.03 136.457 140.23 136.737 138.03 137.017C136.15 137.257 134.57 137.837 133.29 138.757C132.05 139.637 131.43 140.897 131.43 142.537C131.43 144.057 131.91 145.217 132.87 146.017C133.83 146.777 135.15 147.157 136.83 147.157C138.35 147.157 139.83 146.877 141.27 146.317C142.71 145.717 143.89 144.797 144.81 143.557C145.77 142.277 146.25 140.697 146.25 138.817V134.977Z" fill="#452E66"/>
<path d="M176.412 129.097C175.972 127.297 175.072 125.937 173.712 125.017C172.352 124.057 170.772 123.577 168.972 123.577C167.092 123.577 165.592 123.977 164.472 124.777C163.352 125.577 162.792 126.717 162.792 128.197C162.792 129.437 163.292 130.337 164.292 130.897C165.332 131.457 166.892 131.917 168.972 132.277L172.092 132.757C175.452 133.357 178.052 134.317 179.892 135.637C181.772 136.917 182.712 139.077 182.712 142.117C182.712 145.277 181.452 147.717 178.932 149.437C176.452 151.157 173.232 152.017 169.272 152.017C165.352 152.017 162.152 151.117 159.672 149.317C157.192 147.477 155.672 145.077 155.112 142.117L160.692 140.917C161.172 143.117 162.152 144.757 163.632 145.837C165.152 146.877 167.072 147.397 169.392 147.397C171.512 147.397 173.212 146.957 174.492 146.077C175.772 145.157 176.412 143.897 176.412 142.297C176.412 140.977 175.852 139.997 174.732 139.357C173.652 138.717 172.012 138.217 169.812 137.857L166.572 137.317C163.532 136.797 161.092 135.897 159.252 134.617C157.452 133.337 156.552 131.217 156.552 128.257C156.552 126.457 157.072 124.857 158.112 123.457C159.192 122.017 160.672 120.897 162.552 120.097C164.472 119.297 166.632 118.897 169.032 118.897C171.272 118.897 173.332 119.317 175.212 120.157C177.092 120.957 178.612 122.057 179.772 123.457C180.972 124.817 181.712 126.297 181.992 127.897L176.412 129.097Z" fill="#452E66"/>
<path d="M205.884 129.097C205.444 127.297 204.544 125.937 203.184 125.017C201.824 124.057 200.244 123.577 198.444 123.577C196.564 123.577 195.064 123.977 193.944 124.777C192.824 125.577 192.264 126.717 192.264 128.197C192.264 129.437 192.764 130.337 193.764 130.897C194.804 131.457 196.364 131.917 198.444 132.277L201.564 132.757C204.924 133.357 207.524 134.317 209.364 135.637C211.244 136.917 212.184 139.077 212.184 142.117C212.184 145.277 210.924 147.717 208.404 149.437C205.924 151.157 202.704 152.017 198.744 152.017C194.824 152.017 191.624 151.117 189.144 149.317C186.664 147.477 185.144 145.077 184.584 142.117L190.164 140.917C190.644 143.117 191.624 144.757 193.104 145.837C194.624 146.877 196.544 147.397 198.864 147.397C200.984 147.397 202.684 146.957 203.964 146.077C205.244 145.157 205.884 143.897 205.884 142.297C205.884 140.977 205.324 139.997 204.204 139.357C203.124 138.717 201.484 138.217 199.284 137.857L196.044 137.317C193.004 136.797 190.564 135.897 188.724 134.617C186.924 133.337 186.024 131.217 186.024 128.257C186.024 126.457 186.544 124.857 187.584 123.457C188.664 122.017 190.144 120.897 192.024 120.097C193.944 119.297 196.104 118.897 198.504 118.897C200.744 118.897 202.804 119.317 204.684 120.157C206.564 120.957 208.084 122.057 209.244 123.457C210.444 124.817 211.184 126.297 211.464 127.897L205.884 129.097Z" fill="#452E66"/>
<path d="M244.657 142.057C243.777 144.817 242.177 147.177 239.857 149.137C237.537 151.057 234.257 152.017 230.017 152.017C227.097 152.017 224.497 151.337 222.217 149.977C219.977 148.577 218.237 146.637 216.997 144.157C215.757 141.637 215.137 138.757 215.137 135.517C215.137 132.237 215.737 129.337 216.937 126.817C218.177 124.297 219.897 122.357 222.097 120.997C224.337 119.597 226.957 118.897 229.957 118.897C232.877 118.897 235.457 119.557 237.697 120.877C239.977 122.157 241.737 124.017 242.977 126.457C244.257 128.857 244.897 131.717 244.897 135.037C244.897 135.877 244.877 136.517 244.837 136.957H221.317C221.397 139.917 222.217 142.337 223.777 144.217C225.377 146.097 227.457 147.037 230.017 147.037C232.457 147.037 234.337 146.477 235.657 145.357C236.977 144.197 237.917 142.857 238.477 141.337L244.657 142.057ZM229.957 123.877C227.477 123.877 225.497 124.697 224.017 126.337C222.577 127.937 221.717 129.917 221.437 132.277H238.657C238.377 129.877 237.497 127.877 236.017 126.277C234.537 124.677 232.517 123.877 229.957 123.877Z" fill="#452E66"/>
<path d="M263.813 146.017V151.297C262.933 151.377 261.433 151.417 259.313 151.417C256.353 151.417 254.233 150.937 252.953 149.977C251.713 149.017 251.093 147.177 251.093 144.457V124.237H245.873V119.617H251.093V110.677H257.213V119.617H264.173V124.237H257.213V142.837C257.213 144.237 257.473 145.137 257.993 145.537C258.513 145.937 259.453 146.137 260.813 146.137L263.813 146.017Z" fill="#452E66"/>
<path d="M286.92 129.097C286.48 127.297 285.58 125.937 284.22 125.017C282.86 124.057 281.28 123.577 279.48 123.577C277.6 123.577 276.1 123.977 274.98 124.777C273.86 125.577 273.3 126.717 273.3 128.197C273.3 129.437 273.8 130.337 274.8 130.897C275.84 131.457 277.4 131.917 279.48 132.277L282.6 132.757C285.96 133.357 288.56 134.317 290.4 135.637C292.28 136.917 293.22 139.077 293.22 142.117C293.22 145.277 291.96 147.717 289.44 149.437C286.96 151.157 283.74 152.017 279.78 152.017C275.86 152.017 272.66 151.117 270.18 149.317C267.7 147.477 266.18 145.077 265.62 142.117L271.2 140.917C271.68 143.117 272.66 144.757 274.14 145.837C275.66 146.877 277.58 147.397 279.9 147.397C282.02 147.397 283.72 146.957 285 146.077C286.28 145.157 286.92 143.897 286.92 142.297C286.92 140.977 286.36 139.997 285.24 139.357C284.16 138.717 282.52 138.217 280.32 137.857L277.08 137.317C274.04 136.797 271.6 135.897 269.76 134.617C267.96 133.337 267.06 131.217 267.06 128.257C267.06 126.457 267.58 124.857 268.62 123.457C269.7 122.017 271.18 120.897 273.06 120.097C274.98 119.297 277.14 118.897 279.54 118.897C281.78 118.897 283.84 119.317 285.72 120.157C287.6 120.957 289.12 122.057 290.28 123.457C291.48 124.817 292.22 126.297 292.5 127.897L286.92 129.097Z" fill="#452E66"/>
<path d="M329.438 151.297C329.158 151.017 328.918 150.497 328.718 149.737C328.558 148.977 328.478 148.097 328.478 147.097C327.518 148.737 326.018 149.977 323.978 150.817C321.978 151.617 319.918 152.017 317.798 152.017C315.918 152.017 314.178 151.637 312.578 150.877C310.978 150.077 309.698 148.977 308.738 147.577C307.818 146.137 307.358 144.457 307.358 142.537C307.358 139.297 308.478 136.917 310.718 135.397C312.958 133.837 316.338 132.817 320.858 132.337C323.778 132.057 325.758 131.637 326.798 131.077C327.878 130.517 328.418 129.717 328.418 128.677C328.418 125.517 326.198 123.937 321.758 123.937C320.038 123.937 318.478 124.397 317.078 125.317C315.678 126.197 314.698 127.517 314.138 129.277L308.558 127.957C309.238 125.157 310.798 122.957 313.238 121.357C315.678 119.717 318.598 118.897 321.998 118.897C326.318 118.897 329.478 119.797 331.478 121.597C333.518 123.357 334.538 125.677 334.538 128.557V144.457C334.538 146.457 334.578 147.937 334.658 148.897C334.778 149.817 335.018 150.617 335.378 151.297H329.438ZM328.418 134.977C327.978 135.457 327.038 135.857 325.598 136.177C324.198 136.457 322.398 136.737 320.198 137.017C318.318 137.257 316.738 137.837 315.458 138.757C314.218 139.637 313.598 140.897 313.598 142.537C313.598 144.057 314.078 145.217 315.038 146.017C315.998 146.777 317.318 147.157 318.998 147.157C320.518 147.157 321.998 146.877 323.438 146.317C324.878 145.717 326.058 144.797 326.978 143.557C327.938 142.277 328.418 140.697 328.418 138.817V134.977Z" fill="#452E66"/>
<path d="M345.38 123.817C346.54 122.137 347.96 120.897 349.64 120.097C351.32 119.297 353.18 118.897 355.22 118.897C357.22 118.897 359.06 119.317 360.74 120.157C362.46 120.957 363.84 122.217 364.88 123.937C365.92 125.617 366.44 127.737 366.44 130.297V151.297H360.32V132.157C360.32 129.237 359.74 127.157 358.58 125.917C357.42 124.677 355.66 124.057 353.3 124.057C351.94 124.057 350.66 124.437 349.46 125.197C348.26 125.957 347.28 127.077 346.52 128.557C345.8 130.037 345.44 131.817 345.44 133.897V151.297H339.32V119.617H345.14V123.817H345.38Z" fill="#452E66"/>
<path d="M384.693 118.897C386.853 118.897 388.753 119.297 390.393 120.097C392.073 120.897 393.353 121.977 394.233 123.337H394.473V107.857H400.593V151.297H394.773V147.217H394.533C393.693 148.697 392.393 149.877 390.633 150.757C388.913 151.597 386.933 152.017 384.693 152.017C381.893 152.017 379.393 151.337 377.193 149.977C375.033 148.577 373.333 146.637 372.093 144.157C370.893 141.637 370.293 138.737 370.293 135.457C370.293 132.177 370.893 129.297 372.093 126.817C373.333 124.297 375.033 122.357 377.193 120.997C379.393 119.597 381.893 118.897 384.693 118.897ZM385.713 147.037C388.513 147.037 390.733 146.017 392.373 143.977C394.013 141.897 394.833 139.057 394.833 135.457C394.833 131.857 394.013 129.037 392.373 126.997C390.733 124.917 388.513 123.877 385.713 123.877C382.913 123.877 380.673 124.917 378.993 126.997C377.353 129.037 376.533 131.857 376.533 135.457C376.533 139.057 377.353 141.897 378.993 143.977C380.673 146.017 382.913 147.037 385.713 147.037Z" fill="#452E66"/>
<path d="M437.899 147.097C435.659 150.377 432.379 152.017 428.059 152.017C424.899 152.017 422.239 151.057 420.079 149.137C417.919 147.217 416.839 144.377 416.839 140.617V119.617H422.959V138.757C422.959 141.677 423.539 143.757 424.699 144.997C425.859 146.237 427.619 146.857 429.979 146.857C431.379 146.857 432.659 146.477 433.819 145.717C435.019 144.957 435.979 143.837 436.699 142.357C437.459 140.877 437.839 139.097 437.839 137.017V119.617H443.959V151.297H438.139V147.097H437.899Z" fill="#452E66"/>
<path d="M468.033 129.097C467.593 127.297 466.693 125.937 465.333 125.017C463.973 124.057 462.393 123.577 460.593 123.577C458.713 123.577 457.213 123.977 456.093 124.777C454.973 125.577 454.413 126.717 454.413 128.197C454.413 129.437 454.913 130.337 455.913 130.897C456.953 131.457 458.513 131.917 460.593 132.277L463.713 132.757C467.073 133.357 469.673 134.317 471.513 135.637C473.393 136.917 474.333 139.077 474.333 142.117C474.333 145.277 473.073 147.717 470.553 149.437C468.073 151.157 464.853 152.017 460.893 152.017C456.973 152.017 453.773 151.117 451.293 149.317C448.813 147.477 447.293 145.077 446.733 142.117L452.313 140.917C452.793 143.117 453.773 144.757 455.253 145.837C456.773 146.877 458.693 147.397 461.013 147.397C463.133 147.397 464.833 146.957 466.113 146.077C467.393 145.157 468.033 143.897 468.033 142.297C468.033 140.977 467.473 139.997 466.353 139.357C465.273 138.717 463.633 138.217 461.433 137.857L458.193 137.317C455.153 136.797 452.713 135.897 450.873 134.617C449.073 133.337 448.173 131.217 448.173 128.257C448.173 126.457 448.693 124.857 449.733 123.457C450.813 122.017 452.293 120.897 454.173 120.097C456.093 119.297 458.253 118.897 460.653 118.897C462.893 118.897 464.953 119.317 466.833 120.157C468.713 120.957 470.233 122.057 471.393 123.457C472.593 124.817 473.333 126.297 473.613 127.897L468.033 129.097Z" fill="#452E66"/>
<path d="M506.805 142.057C505.925 144.817 504.325 147.177 502.005 149.137C499.685 151.057 496.405 152.017 492.165 152.017C489.245 152.017 486.645 151.337 484.365 149.977C482.125 148.577 480.385 146.637 479.145 144.157C477.905 141.637 477.285 138.757 477.285 135.517C477.285 132.237 477.885 129.337 479.085 126.817C480.325 124.297 482.045 122.357 484.245 120.997C486.485 119.597 489.105 118.897 492.105 118.897C495.025 118.897 497.605 119.557 499.845 120.877C502.125 122.157 503.885 124.017 505.125 126.457C506.405 128.857 507.045 131.717 507.045 135.037C507.045 135.877 507.025 136.517 506.985 136.957H483.465C483.545 139.917 484.365 142.337 485.925 144.217C487.525 146.097 489.605 147.037 492.165 147.037C494.605 147.037 496.485 146.477 497.805 145.357C499.125 144.197 500.065 142.857 500.625 141.337L506.805 142.057ZM492.105 123.877C489.625 123.877 487.645 124.697 486.165 126.337C484.725 127.937 483.865 129.917 483.585 132.277H500.805C500.525 129.877 499.645 127.877 498.165 126.277C496.685 124.677 494.665 123.877 492.105 123.877Z" fill="#452E66"/>
<path d="M516.937 124.417H517.177C518.017 122.817 519.257 121.497 520.897 120.457C522.537 119.417 524.437 118.897 526.597 118.897C527.597 118.897 528.537 118.997 529.417 119.197V125.077C528.297 124.917 527.257 124.837 526.297 124.837C523.537 124.837 521.337 125.617 519.697 127.177C518.057 128.697 517.237 131.137 517.237 134.497V151.297H511.117V119.617H516.937V124.417Z" fill="#452E66"/>
<path d="M552.408 129.097C551.968 127.297 551.068 125.937 549.708 125.017C548.348 124.057 546.768 123.577 544.968 123.577C543.088 123.577 541.588 123.977 540.468 124.777C539.348 125.577 538.788 126.717 538.788 128.197C538.788 129.437 539.288 130.337 540.288 130.897C541.328 131.457 542.888 131.917 544.968 132.277L548.088 132.757C551.448 133.357 554.048 134.317 555.888 135.637C557.768 136.917 558.708 139.077 558.708 142.117C558.708 145.277 557.448 147.717 554.928 149.437C552.448 151.157 549.228 152.017 545.268 152.017C541.348 152.017 538.148 151.117 535.668 149.317C533.188 147.477 531.668 145.077 531.108 142.117L536.688 140.917C537.168 143.117 538.148 144.757 539.628 145.837C541.148 146.877 543.068 147.397 545.388 147.397C547.508 147.397 549.208 146.957 550.488 146.077C551.768 145.157 552.408 143.897 552.408 142.297C552.408 140.977 551.848 139.997 550.728 139.357C549.648 138.717 548.008 138.217 545.808 137.857L542.568 137.317C539.528 136.797 537.088 135.897 535.248 134.617C533.448 133.337 532.548 131.217 532.548 128.257C532.548 126.457 533.068 124.857 534.108 123.457C535.188 122.017 536.668 120.897 538.548 120.097C540.468 119.297 542.628 118.897 545.028 118.897C547.268 118.897 549.328 119.317 551.208 120.157C553.088 120.957 554.608 122.057 555.768 123.457C556.968 124.817 557.708 126.297 557.988 127.897L552.408 129.097Z" fill="#452E66"/>
</svg>
